<svg width="152" height="60" viewBox="0 0 152 60" fill="none" xmlns="http://www.w3.org/2000/svg">
<path d="M4.48 6.9V16H3.57V6.9H0.49V6.088H7.7V6.9H4.48ZM12.7122 16.196C10.0242 16.196 8.47022 14.6 8.47022 11.394V10.834C8.47022 7.684 10.0802 5.934 12.7262 5.934C13.5662 5.934 14.3082 6.116 14.9522 6.494C16.2402 7.25 16.9962 8.692 16.9962 10.834V11.394C16.9962 12.458 16.8282 13.34 16.4502 14.054C15.7222 15.482 14.4202 16.196 12.7122 16.196ZM12.7262 15.37C14.7702 15.37 16.0722 13.97 16.0722 11.366V10.876C16.0722 8.216 14.8262 6.746 12.7262 6.746C10.5842 6.746 9.39422 8.258 9.39422 10.862V11.366C9.39422 13.956 10.5842 15.37 12.7262 15.37ZM20.1085 12.598V16H19.2265V6.088H22.7685C25.3585 6.088 26.5485 7.376 26.5485 9.308C26.5485 11.352 25.3585 12.612 22.8665 12.598H20.1085ZM22.8525 11.814C24.6305 11.828 25.6525 10.918 25.6525 9.308C25.6525 7.866 24.7425 6.872 22.7685 6.872H20.1085V11.814H22.8525ZM38.6735 7.516L35.5375 16H34.6975L32.3455 6.088H33.2555L35.2155 14.572L38.3375 6.088H39.0515L42.0055 14.67L44.3575 6.088H45.2535L42.4815 16H41.6275L38.6735 7.516ZM54.0478 16H47.0898V6.088H53.8378V6.886H47.9578V10.61H52.9558V11.408H47.9578V15.188H54.0478V16ZM55.8671 16V6.088H59.5491C62.0691 6.088 63.1051 6.97 63.1051 8.58C63.1051 9.84 62.5171 10.596 61.2991 10.918C62.6291 11.212 63.3151 11.926 63.3151 13.27C63.3151 15.034 62.1671 16 59.5771 16H55.8671ZM56.7491 6.844V10.554H59.5771C61.2851 10.554 62.2231 9.98 62.2231 8.65C62.2231 7.474 61.4531 6.844 59.5631 6.844H56.7491ZM56.7491 11.296V15.216H59.4931C61.5511 15.216 62.4051 14.53 62.4051 13.214C62.4051 11.842 61.3831 11.296 59.5491 11.296H56.7491ZM69.9218 6.088H73.1558C73.9818 6.088 74.7098 6.27 75.3818 6.62C76.7538 7.32 77.6078 8.692 77.6078 10.778V11.338C77.6078 12.374 77.4258 13.214 77.0478 13.914C76.2778 15.3 74.9478 16 73.2818 16H69.9218V6.088ZM70.8038 6.886V15.202H73.2538C73.9258 15.202 74.4998 15.048 75.0318 14.768C76.0818 14.166 76.6978 13.032 76.6978 11.282V10.82C76.6978 9.952 76.5438 9.252 76.2218 8.65C75.5778 7.488 74.4718 6.886 73.1278 6.886H70.8038ZM86.7919 16H79.8339V6.088H86.5819V6.886H80.7019V10.61H85.6999V11.408H80.7019V15.188H86.7919V16ZM91.8247 16L87.9747 6.088H88.9267L92.2727 14.768L95.5627 6.088H96.5287L92.7207 16H91.8247ZM105.14 16H98.1816V6.088H104.93V6.886H99.0496V10.61H104.048V11.408H99.0496V15.188H105.14V16ZM106.959 16V6.088H107.855V15.16H113.217V16H106.959ZM118.437 16.196C115.749 16.196 114.195 14.6 114.195 11.394V10.834C114.195 7.684 115.805 5.934 118.451 5.934C119.291 5.934 120.033 6.116 120.677 6.494C121.965 7.25 122.721 8.692 122.721 10.834V11.394C122.721 12.458 122.553 13.34 122.175 14.054C121.447 15.482 120.145 16.196 118.437 16.196ZM118.451 15.37C120.495 15.37 121.797 13.97 121.797 11.366V10.876C121.797 8.216 120.551 6.746 118.451 6.746C116.309 6.746 115.119 8.258 115.119 10.862V11.366C115.119 13.956 116.309 15.37 118.451 15.37ZM125.833 12.598V16H124.951V6.088H128.493C131.083 6.088 132.273 7.376 132.273 9.308C132.273 11.352 131.083 12.612 128.591 12.598H125.833ZM128.577 11.814C130.355 11.828 131.377 10.918 131.377 9.308C131.377 7.866 130.467 6.872 128.493 6.872H125.833V11.814H128.577ZM141.247 16H134.289V6.088H141.037V6.886H135.157V10.61H140.155V11.408H135.157V15.188H141.247V16ZM143.948 11.912V16H143.066V6.088H146.888C149.436 6.088 150.458 7.124 150.458 8.902C150.458 10.33 149.772 11.156 148.442 11.492C149.716 11.73 150.22 12.388 150.22 13.942V15.524C150.22 15.734 150.29 15.888 150.416 16H149.45C149.352 15.888 149.296 15.72 149.296 15.51V13.942C149.296 12.388 148.624 11.912 146.79 11.912H143.948ZM146.818 11.128C148.526 11.142 149.548 10.428 149.548 8.944C149.548 7.614 148.764 6.872 146.874 6.872H143.948V11.128H146.818Z" fill="#C1C6D5"/>
<g clip-path="url(#clip0_3803_143638)">
<path d="M53.8737 43.1825C55.1759 43.1825 56.2315 42.1265 56.2315 40.824C56.2315 39.5214 55.1759 38.4656 53.8737 38.4656C52.5715 38.4656 51.5159 39.5214 51.5159 40.824C51.5159 42.1265 52.5715 43.1825 53.8737 43.1825ZM131.687 51.2405C131.328 50.9883 131.051 50.9465 130.822 51.4363C126.862 60.0131 120.188 55.7331 120.851 56.1098C122.331 55.4327 126.225 52.3105 125.636 47.9994C125.279 45.3647 123.017 44.196 120.617 44.6145C116.427 45.3449 114.886 49.864 115.671 53.8649C115.808 54.552 116.053 55.1187 116.299 55.6738C111.564 59.524 109.684 52.2271 109.47 51.3551C109.462 51.3085 113.126 48.2543 114.145 40.9763C115.213 33.3485 112.78 31.9596 110.292 32.0029C105.687 32.0832 104.443 41.7034 106.115 49.7211C105.975 49.7576 105.323 50.1185 104.276 50.1589C103.523 47.7885 100.304 45.7107 99.4617 46.5114C97.3533 48.5143 99.973 52.43 101.816 52.7371C100.709 59.5574 93.7839 57.8683 95.073 49.3236C97.3282 45.1358 99.0433 38.9089 98.7373 35.1498C98.6288 33.8189 97.6448 32.0358 95.4195 32.1243C91.1393 32.2936 90.6739 41.9165 91.1757 48.7463C91.1508 48.578 90.9126 49.576 89.1586 50.0723C88.7437 47.7694 85.0357 45.4578 84.1628 46.5691C82.5288 48.6491 85.3606 52.3578 86.7019 52.6165C85.5946 59.4365 78.6697 57.7474 79.9588 49.2027C82.2139 45.0151 83.9288 38.7883 83.6228 35.0292C83.5144 33.698 82.5306 31.9149 80.305 32.0032C76.0248 32.1727 75.5595 41.7956 76.0613 48.6254C76.0362 48.4545 75.7924 49.4854 73.9668 49.9734C73.9057 46.9856 70.1842 45.6156 69.2902 46.5689C67.6968 48.2683 69.655 51.7549 71.4666 52.6165C70.3593 59.4365 63.4344 57.7474 64.7235 49.2027C66.9786 45.0151 68.6937 38.7883 68.3875 35.0292C68.2793 33.698 67.2953 31.9149 65.0697 32.0032C60.7897 32.1727 60.4453 42.2794 60.947 49.1089C59.5373 55.1491 54.8095 62.6923 55.4237 47.5818C55.4844 46.5218 55.5506 46.1194 55.0222 45.7225C54.6262 45.414 53.7257 45.5625 53.2335 45.5747C52.6353 45.5987 52.4853 45.9487 52.353 46.4778C52.045 47.844 51.9897 49.1685 51.9457 50.9756C51.9168 51.8209 51.849 52.2154 51.5235 53.368C51.1984 54.5205 49.3435 56.6269 48.3279 56.2747C46.919 55.7903 47.3813 51.8129 47.6453 49.0803C47.8653 46.9207 47.1608 45.9509 45.3559 45.5983C44.2993 45.378 43.6573 45.4118 42.5568 45.0649C41.5162 44.7369 41.2808 42.7685 39.0613 43.4245C37.8473 43.7836 38.6277 46.3558 38.3359 48.2623C36.9015 57.6403 33.9168 57.8978 32.5322 53.3423C38.7684 38.0687 34.3362 32.0474 31.7417 32.0474C29.0395 32.0474 25.9506 33.9087 27.2586 45.818C26.6226 45.6325 26.427 45.5325 25.7308 45.5325C21.7933 45.5325 19.1106 48.7156 19.1106 52.6423C19.1106 56.5689 21.7935 59.7523 25.731 59.7523C28.0555 59.7523 29.6875 58.6951 30.9235 57.0598C31.7299 58.2147 32.7119 59.77 34.5077 59.7C39.8604 59.4916 41.417 48.5118 41.6008 47.8994C42.173 47.9876 42.7144 48.1545 43.2428 48.2427C44.1233 48.3749 44.1873 48.7234 44.1673 49.6089C43.9339 57.0765 45.3119 59.6911 48.4377 59.6911C50.1793 59.6911 51.7315 57.98 52.8008 56.7565C53.5995 58.4049 54.8722 59.6407 56.5795 59.6909C60.7166 59.7938 62.3006 53.1998 62.1562 54.0676C62.0428 54.7485 63.4984 59.6538 67.7575 59.6716C73.0333 59.6938 74.0139 53.892 74.1308 52.9203C74.1455 52.7269 74.1519 52.7469 74.1308 52.9203L74.1268 52.9791C75.8017 52.6676 76.6659 51.7696 76.6659 51.7696C76.6659 51.7696 78.0108 59.7618 82.9926 59.6718C88.1659 59.578 89.1415 54.3336 89.2695 53.3109C89.2864 53.0683 89.2964 53.0967 89.2695 53.3109C89.2688 53.3209 89.2681 53.3309 89.2675 53.3409C91.257 52.6171 91.7804 51.8907 91.7804 51.8907C91.7804 51.8907 92.8493 59.724 98.107 59.7925C102.792 59.8538 104.529 55.0558 104.539 53.0476C105.329 53.056 106.791 52.5787 106.757 52.5516C106.757 52.5516 108.473 59.4005 113.266 59.7523C115.516 59.9174 117.204 58.486 118.166 57.8331C120.427 59.6645 127.957 62.0036 132.712 53.9425C133.383 52.7856 131.94 51.4189 131.687 51.2405ZM25.541 57.0931C23.2437 57.0931 21.7706 54.9689 21.7706 52.6785C21.7706 50.3883 23.1228 48.264 25.4202 48.264C26.4539 48.264 27.029 48.3778 27.8342 49.078C27.9802 49.6534 28.3939 50.9805 28.5953 51.5831C28.865 52.3896 29.1859 53.076 29.5095 53.8231C29.0473 55.7394 27.5319 57.0931 25.541 57.0931ZM31.1393 49.1454C31.0437 48.9931 31.0637 49.0867 30.9568 48.9429C30.5357 47.7974 29.7242 45.2405 29.6302 42.3363C29.5239 39.0509 30.0715 35.2 31.6857 35.2C32.7795 35.2 33.9419 43.0045 31.139 49.1454H31.1393ZM63.4862 45.7223C63.227 43.7727 63.2135 35.0816 65.2999 35.3209C66.4519 35.7876 64.5695 43.9887 63.4862 45.7223ZM78.7215 45.7223C78.4624 43.7727 78.4488 35.0816 80.5353 35.3209C81.6873 35.7876 79.8048 43.9887 78.7215 45.7223ZM93.8359 45.8434C93.5766 43.8936 93.5633 35.2025 95.6495 35.4418C96.8015 35.9085 94.919 44.1098 93.8359 45.8434ZM110.522 34.8123C112.43 34.6145 112.351 42.9447 108.522 48.2038C108.028 46.3029 107.271 35.4649 110.522 34.812V34.8123ZM118.54 52.7371C117.927 49.6423 119.51 47.6096 121.142 47.3867C121.713 47.2956 122.539 47.6651 122.704 48.356C122.975 49.658 122.665 51.5894 119.012 54.0398C119.018 54.0607 118.677 53.4265 118.54 52.7371H118.54Z" fill="#DD3E7B"/>
</g>
<defs>
<clipPath id="clip0_3803_143638">
<rect width="113.821" height="28" fill="white" transform="translate(19.0894 32)"/>
</clipPath>
</defs>
</svg>
