<svg width="92" height="92" viewBox="0 0 92 92" fill="none" xmlns="http://www.w3.org/2000/svg">
<g clip-path="url(#clip0_3825_37240)">
<ellipse cx="46.2637" cy="52.6894" rx="11.0606" ry="10.5076" fill="#D4F941"/>
<path d="M65.0676 82V80.3409C65.0676 69.6509 56.4016 60.9849 45.7115 60.9849V60.9849C35.0215 60.9849 26.3555 69.6509 26.3555 80.3409V82" stroke="#D4F941" stroke-width="4"/>
<ellipse cx="46.3003" cy="24.3496" rx="4.80911" ry="4.80911" transform="rotate(-180 46.3003 24.3496)" fill="white"/>
<path d="M39.8866 13.1284L39.8866 13.9299C39.8866 17.4712 42.7575 20.342 46.2988 20.342V20.342C49.8401 20.342 52.7109 17.4712 52.7109 13.9299L52.7109 13.1284" stroke="white" stroke-width="4"/>
<ellipse cx="64.3618" cy="28.3573" rx="4.80911" ry="4.80911" transform="rotate(-120 64.3618 28.3573)" fill="white"/>
<path d="M70.8741 17.1936L70.18 17.5943C67.1131 19.365 66.0623 23.2866 67.833 26.3535V26.3535C69.6037 29.4204 73.5253 30.4711 76.5921 28.7005L77.2863 28.2997" stroke="white" stroke-width="4"/>
<ellipse cx="4.80911" cy="4.80911" rx="4.80911" ry="4.80911" transform="matrix(0.707107 -0.707107 -0.707107 -0.707107 28.5273 35.8223)" fill="white"/>
<path d="M25.1275 16.5526L25.6942 17.1194C28.1983 19.6235 28.1983 23.6834 25.6942 26.1875V26.1875C23.1901 28.6916 19.1302 28.6916 16.6261 26.1875L16.0593 25.6208" stroke="white" stroke-width="4"/>
</g>
<defs>
<clipPath id="clip0_3825_37240">
<rect width="92" height="92" fill="white"/>
</clipPath>
</defs>
</svg>
