<svg width="92" height="92" viewBox="0 0 92 92" fill="none" xmlns="http://www.w3.org/2000/svg">
<ellipse cx="46" cy="43.5" rx="12" ry="11.5" fill="white"/>
<path d="M10.0679 84C11.0953 68.9167 23.656 57 39 57H52C67.344 57 79.9047 68.9167 80.9321 84H10.0679Z" stroke="white" stroke-width="4"/>
<path d="M30.4142 43.4142C31.1953 42.6332 31.1953 41.3668 30.4142 40.5858L17.6863 27.8579C16.9052 27.0768 15.6389 27.0768 14.8579 27.8579C14.0768 28.6389 14.0768 29.9052 14.8579 30.6863L26.1716 42L14.8579 53.3137C14.0768 54.0948 14.0768 55.3611 14.8579 56.1421C15.6389 56.9232 16.9052 56.9232 17.6863 56.1421L30.4142 43.4142ZM9 44L29 44L29 40L9 40L9 44Z" fill="#D4F941"/>
<path d="M44.5858 28.4142C45.3668 29.1953 46.6332 29.1953 47.4142 28.4142L60.1421 15.6863C60.9232 14.9052 60.9232 13.6389 60.1421 12.8579C59.3611 12.0768 58.0948 12.0768 57.3137 12.8579L46 24.1716L34.6863 12.8579C33.9052 12.0768 32.6389 12.0768 31.8579 12.8579C31.0768 13.6389 31.0768 14.9052 31.8579 15.6863L44.5858 28.4142ZM44 7L44 27L48 27L48 7L44 7Z" fill="#D4F941"/>
<path d="M61.5858 40.5858C60.8047 41.3668 60.8047 42.6332 61.5858 43.4142L74.3137 56.1421C75.0948 56.9232 76.3611 56.9232 77.1421 56.1421C77.9232 55.3611 77.9232 54.0948 77.1421 53.3137L65.8284 42L77.1421 30.6863C77.9232 29.9052 77.9232 28.6389 77.1421 27.8579C76.3611 27.0768 75.0948 27.0768 74.3137 27.8579L61.5858 40.5858ZM83 40L63 40L63 44L83 44L83 40Z" fill="#D4F941"/>
</svg>
