<svg width="92" height="92" viewBox="0 0 92 92" fill="none" xmlns="http://www.w3.org/2000/svg">
<rect x="8" y="8" width="76" height="76" rx="10" stroke="white" stroke-width="4"/>
<path d="M45.5 18L47.6329 24.5643H54.535L48.9511 28.6213L51.084 35.1857L45.5 31.1287L39.916 35.1857L42.0489 28.6213L36.465 24.5643H43.3671L45.5 18Z" fill="white"/>
<path d="M31 59H61L51 75H41L31 59Z" fill="#D4F941"/>
<path d="M61 59L31 59L45.5 36L46 36L61 59Z" fill="#D4F941"/>
<path d="M47.4142 53.5858C46.6332 52.8047 45.3668 52.8047 44.5858 53.5858L31.8579 66.3137C31.0768 67.0948 31.0768 68.3611 31.8579 69.1421C32.6389 69.9232 33.9052 69.9232 34.6863 69.1421L46 57.8284L57.3137 69.1421C58.0948 69.9232 59.3611 69.9232 60.1421 69.1421C60.9232 68.3611 60.9232 67.0948 60.1421 66.3137L47.4142 53.5858ZM48 75L48 55L44 55L44 75L48 75Z" fill="#5648FF"/>
</svg>
