<svg width="92" height="92" viewBox="0 0 92 92" fill="none" xmlns="http://www.w3.org/2000/svg">
<path fill-rule="evenodd" clip-rule="evenodd" d="M45.9692 85C43.8769 85 45.3462 84.7427 43.3154 84.2281C42.7615 84.0995 42.3308 83.5849 42.3308 83.006L38.8308 64.7382C34.5846 62.1009 32 57.341 32 52.1308C32 46.6634 34.8923 41.7105 39.5077 39.1376C39.8769 38.9446 40.3692 38.9446 40.7385 39.2019C41.1077 39.4592 41.2923 39.8451 41.2923 40.2954V50.8444H50.6462V40.2954C50.6462 39.8451 50.8923 39.4592 51.2615 39.2019C51.6308 38.9446 52.0615 38.9446 52.4923 39.1376C57.1077 41.7105 60 46.6634 60 52.1308C60 57.341 57.3538 62.1009 53.1077 64.7382L50.4827 83.006C50.4827 83.5849 50.1135 84.0995 49.5596 84.2281C47.5288 84.7427 48.0615 85 45.9692 85Z" fill="#D4F941"/>
<path d="M41.6388 83C41.5805 83 41.5305 82.9964 41.4883 82.9911L39.4397 73.0362L39.201 71.8761L38.069 71.5278C34.1868 70.3333 30.5744 68.2881 27.6176 65.5332L26.7518 64.7265L25.628 65.0971L15.829 68.3276C15.793 68.2908 15.7539 68.2439 15.715 68.1865L11.4096 60.7571C11.3857 60.7134 11.3664 60.6733 11.3509 60.6372L19.0241 53.9254L19.9147 53.1464L19.6607 51.9907C19.2239 50.0035 18.9681 48.0015 18.9681 45.9772C18.9681 44 19.2235 41.9982 19.6607 40.0093L19.9147 38.8536L19.0241 38.0746L11.3422 31.3551C11.3611 31.3042 11.3865 31.2452 11.4203 31.1789L15.7286 23.7899C15.7692 23.7242 15.8083 23.6718 15.8429 23.6312L25.628 26.8573L26.742 27.2245L27.6063 26.4316C30.5781 23.7053 34.1933 21.6223 38.0497 20.478L39.1982 20.1372L39.4397 18.9638L41.4887 9.00722C41.5324 9.00278 41.5825 9 41.6388 9H50.3705C50.4099 9 50.4447 9.00164 50.4754 9.00426L52.5713 18.9722L52.8166 20.1389L53.9596 20.478C57.816 21.6223 61.4312 23.7053 64.403 26.4316L65.2673 27.2245L66.3812 26.8573L76.1418 23.6393C76.1615 23.666 76.1825 23.6982 76.2038 23.7365L76.2137 23.7543L76.224 23.7719L80.5628 31.2132C80.5634 31.2142 80.564 31.2152 80.5646 31.2163C80.592 31.264 80.6144 31.3074 80.6327 31.3464L72.9809 38.0784L72.0954 38.8574L72.3486 40.0093C72.7793 41.969 72.995 43.9727 72.995 45.9772C72.995 48.0289 72.779 50.0325 72.3486 51.9907L72.0954 53.1426L72.9809 53.9216L80.6201 60.6426C80.6096 60.6619 80.5978 60.6825 80.5846 60.7043L80.5742 60.7215L80.5641 60.7388L76.2257 68.2252C76.2252 68.2261 76.2246 68.227 76.2241 68.2279C76.2029 68.2638 76.1812 68.2948 76.1602 68.321L66.3812 65.0971L65.2574 64.7265L64.3916 65.5332C61.4349 68.2881 57.8225 70.3333 53.9403 71.5278L52.8138 71.8744L52.5713 73.0278L50.4754 82.9957C50.4447 82.9984 50.4099 83 50.3705 83H41.6388ZM76.499 23.5216C76.4983 23.5218 76.4977 23.522 76.4971 23.5222L76.499 23.5216Z" stroke="white" stroke-width="4"/>
</svg>
