<svg width="36" height="36" viewBox="0 0 36 36" fill="none" xmlns="http://www.w3.org/2000/svg">
<g clip-path="url(#clip0_3797_64017)">
<path d="M9.24361 31.0672L9.81729 31.354C12.1564 32.7454 14.8307 33.4726 17.5523 33.4575C25.9308 33.4384 32.8149 26.538 32.8149 18.1595C32.8149 14.1104 31.2067 10.2218 28.3469 7.35534C25.491 4.45925 21.5891 2.82715 17.5227 2.82715C9.18242 2.82715 2.32031 9.69021 2.32031 18.0295C2.32031 18.0955 2.32031 18.1605 2.32127 18.2265C2.34639 21.0618 3.1394 23.8373 4.61598 26.2579L4.99841 26.8316L3.46862 32.4727L9.24361 31.0672Z" fill="#25D366"/>
<path d="M30.051 5.63499C26.7953 2.3134 22.3292 0.449946 17.6787 0.471871H17.649C8.07161 0.471901 0.190287 8.35326 0.190287 17.9307C0.190287 17.9756 0.191246 18.0196 0.191246 18.0646C0.22732 21.1096 1.01561 24.0985 2.48595 26.7653L0 35.8485L9.26485 33.4581C11.8243 34.8633 14.7017 35.5876 17.6213 35.5616C27.2342 35.509 35.1146 27.5828 35.1088 17.969C35.1318 13.3499 33.3104 8.90779 30.051 5.63499ZM17.6787 32.5976C15.0906 32.6111 12.5481 31.9168 10.3261 30.5898L9.75245 30.3029L4.23562 31.7372L5.6698 26.2872L5.28736 25.7136C3.86675 23.4197 3.11412 20.7751 3.11408 18.077C3.11408 10.1202 9.66163 3.5726 17.6185 3.5726C25.5753 3.5726 32.1228 10.1202 32.1228 18.077C32.1228 23.0871 29.527 27.7549 25.2703 30.3986C23.019 31.8407 20.4001 32.6041 17.7265 32.5976M26.1309 21.9847L25.0791 21.5066C25.0791 21.5066 23.5493 20.8373 22.5932 20.3593C22.4976 20.3593 22.402 20.2637 22.3063 20.2637C22.0706 20.2695 21.8403 20.3353 21.637 20.4549C21.4334 20.5744 21.5414 20.5505 20.2029 22.0803C20.1121 22.2591 19.9256 22.371 19.7248 22.3671H19.6292C19.4855 22.3431 19.3523 22.2765 19.2468 22.1759L18.7687 21.9847C17.7429 21.5504 16.8037 20.9351 15.9959 20.1681C15.8047 19.9768 15.5179 19.7856 15.3266 19.5944C14.6188 18.9163 14.0076 18.1442 13.51 17.2997L13.4144 17.1085C13.3313 16.9916 13.2668 16.8626 13.2232 16.726C13.1982 16.5604 13.232 16.3912 13.3188 16.248C13.4058 16.1045 13.7012 15.7699 13.9881 15.483C14.2749 15.1962 14.2749 15.005 14.4661 14.8138C14.5644 14.6773 14.6323 14.5213 14.6653 14.3564C14.6983 14.1915 14.6956 14.0214 14.6573 13.8576C14.2118 12.6204 13.7011 11.4077 13.1276 10.2244C12.9738 9.98528 12.7343 9.81419 12.4583 9.74631H11.4065C11.2153 9.74631 11.0241 9.84192 10.8329 9.84192L10.7372 9.93752C10.546 10.0331 10.3548 10.2244 10.1636 10.32C9.97236 10.4156 9.87675 10.7024 9.68553 10.8937C9.01712 11.7383 8.64728 12.7806 8.63379 13.8576C8.64438 14.6153 8.80694 15.3631 9.11183 16.0567L9.20746 16.3435C10.066 18.1791 11.2666 19.834 12.7451 21.2198L13.1276 21.6022C13.4059 21.8327 13.662 22.0888 13.8925 22.3671C15.8735 24.091 18.2266 25.334 20.767 26.0004C21.0538 26.096 21.4363 26.096 21.7231 26.1916H22.6792C23.179 26.167 23.6678 26.0366 24.1134 25.8092C24.3476 25.703 24.5714 25.5749 24.7827 25.4267L24.9739 25.2355C25.1652 25.0443 25.3564 24.9487 25.5476 24.7575C25.7345 24.591 25.8956 24.3976 26.0257 24.1838C26.2092 23.7554 26.3383 23.3061 26.4081 22.8452V22.1759C26.3222 22.0987 26.2256 22.0343 26.1213 21.9847" fill="white"/>
</g>
<defs>
<clipPath id="clip0_3797_64017">
<rect width="36" height="36" fill="white"/>
</clipPath>
</defs>
</svg>
