<svg width="132" height="132" viewBox="0 0 132 132" fill="none" xmlns="http://www.w3.org/2000/svg">
<circle cx="66" cy="66" r="66" fill="url(#paint0_linear_3697_31458)"/>
<path d="M18.1351 54.8173C17.8377 54.8692 17.5656 54.955 17.3188 55.0745C17.0696 55.1908 16.8499 55.3414 16.6597 55.5265C16.4699 55.7087 16.3141 55.9245 16.1921 56.1739C16.0701 56.4233 15.9867 56.704 15.9418 57.0162C15.8683 57.528 15.9335 58.0123 16.1376 58.4693C16.3417 58.9263 16.6832 59.3155 17.1623 59.637C17.6413 59.9584 18.2548 60.1729 19.0028 60.2805C19.7508 60.388 20.4 60.3536 20.9506 60.1774C21.5012 60.0011 21.9394 59.7182 22.2652 59.3288C22.5909 58.9394 22.7922 58.4776 22.8691 57.9433C22.9402 57.4484 22.8974 56.9973 22.7407 56.5902C22.5816 56.1799 22.3231 55.8413 21.9654 55.5747C21.6053 55.3047 21.1609 55.1318 20.6322 55.0558L20.7458 54.7449L20.3722 57.3432L19.4443 57.2098L19.9173 53.9197L20.8453 54.0532C21.5567 54.1555 22.1535 54.3962 22.6357 54.7755C23.1183 55.152 23.4662 55.6268 23.6794 56.1999C23.8902 56.7698 23.9463 57.3978 23.8476 58.084C23.7377 58.8488 23.4611 59.495 23.0178 60.0225C22.575 60.5473 21.9986 60.9236 21.2884 61.1516C20.5787 61.3767 19.7683 61.4238 18.8572 61.2928C18.1739 61.1945 17.5726 61.0148 17.0534 60.7536C16.5317 60.4892 16.1025 60.1605 15.7658 59.7677C15.4291 59.3749 15.1912 58.9331 15.0523 58.4424C14.9133 57.9518 14.8836 57.4294 14.9633 56.8755C15.0288 56.4199 15.1587 56.0052 15.3531 55.6314C15.5451 55.2543 15.7885 54.9291 16.0832 54.6557C16.3755 54.3792 16.7096 54.1617 17.0854 54.0034C17.4584 53.8446 17.86 53.756 18.2903 53.7375L18.1351 54.8173Z" fill="black"/>
<path d="M26.0549 49.0437L18.1163 45.4183L20.3043 40.6272L21.1571 41.0166L19.4081 44.8464L22.0905 46.0714L23.7262 42.4897L24.5789 42.8792L22.9432 46.4608L25.6411 47.6929L27.4184 43.8012L28.2712 44.1906L26.0549 49.0437Z" fill="black"/>
<path d="M25.7802 33.7339L25.0716 33.12L29.358 28.1732L30.0665 28.7872L28.2694 30.8612L34.1565 35.9624L33.4644 36.7611L27.5773 31.6599L25.7802 33.7339Z" fill="black"/>
<path d="M54.0013 16.6594C53.8306 16.2594 53.5372 15.9962 53.121 15.8697C52.7049 15.7432 52.2433 15.7544 51.7363 15.9032C51.3656 16.0121 51.0589 16.1673 50.816 16.3689C50.5759 16.5696 50.409 16.7978 50.3153 17.0533C50.2243 17.308 50.218 17.5689 50.2964 17.8361C50.362 18.0596 50.4716 18.2361 50.6251 18.3658C50.7806 18.4918 50.9584 18.5832 51.1587 18.6399C51.3581 18.6939 51.5605 18.7277 51.7658 18.7414C51.9704 18.7524 52.1564 18.7555 52.3237 18.7508L53.2414 18.7301C53.4763 18.7233 53.7421 18.7311 54.0389 18.7535C54.3383 18.7751 54.6363 18.8371 54.9329 18.9396C55.2314 19.0385 55.5006 19.1992 55.7407 19.4219C55.9808 19.6445 56.1584 19.9521 56.2737 20.3446C56.4065 20.7971 56.408 21.2408 56.2781 21.6757C56.1509 22.1098 55.8927 22.5009 55.5035 22.8491C55.1169 23.1965 54.602 23.4647 53.9587 23.6535C53.3591 23.8296 52.8114 23.8853 52.3157 23.8207C51.8227 23.7552 51.4 23.5862 51.0476 23.3136C50.6979 23.0403 50.4395 22.6794 50.2723 22.2311L51.319 21.9238C51.4391 22.232 51.6223 22.4624 51.8684 22.6152C52.1166 22.7644 52.3985 22.8474 52.7144 22.8642C53.0321 22.8775 53.3573 22.8353 53.6898 22.7377C54.0769 22.624 54.406 22.4593 54.6772 22.2434C54.9476 22.0249 55.1396 21.7761 55.253 21.497C55.3657 21.2152 55.3772 20.9217 55.2876 20.6164C55.2059 20.3383 55.0618 20.1349 54.8552 20.0061C54.6486 19.8772 54.4026 19.7955 54.117 19.7609C53.8315 19.7263 53.5296 19.7114 53.2112 19.716L52.0944 19.7242C51.3849 19.7282 50.7882 19.6118 50.3041 19.3749C49.8201 19.1381 49.4952 18.7375 49.3295 18.1733C49.1918 17.7044 49.1985 17.2583 49.3496 16.835C49.5026 16.4081 49.766 16.0347 50.1398 15.7147C50.5156 15.3912 50.9707 15.151 51.5049 14.9941C52.0446 14.8356 52.5528 14.7915 53.0294 14.8618C53.5052 14.9294 53.9146 15.0934 54.2576 15.3539C54.6033 15.6136 54.8449 15.9527 54.9826 16.3712L54.0013 16.6594Z" fill="black"/>
<path d="M62.7299 13.2102V12.2727L69.2754 12.2727V13.2102L66.5311 13.2102V21H65.4743V13.2102H62.7299Z" fill="black"/>
<path d="M75.6498 22.8171L74.5867 22.5049L80.1202 15.034L81.167 15.3413L81.7829 24.6179L80.7199 24.3058L80.2873 16.522L80.2219 16.5028L75.6498 22.8171ZM77.0028 19.6613L81.2878 20.9195L81.0237 21.819L76.7387 20.5608L77.0028 19.6613Z" fill="black"/>
<path d="M86.7103 27.051L91.4287 19.7091L93.9094 21.3034C94.483 21.672 94.8908 22.0726 95.1329 22.5051C95.3766 22.9352 95.4778 23.3768 95.4365 23.8298C95.3953 24.2828 95.2356 24.7256 94.9576 25.1582C94.6796 25.5908 94.3447 25.9175 93.9528 26.1385C93.5609 26.3594 93.1207 26.448 92.6322 26.4042C92.1452 26.358 91.6173 26.1521 91.0485 25.7866L89.041 24.4964L89.557 23.6934L91.5359 24.9651C91.9278 25.217 92.2802 25.3624 92.5929 25.4013C92.908 25.4417 93.1869 25.3913 93.4296 25.2501C93.6762 25.108 93.894 24.89 94.0829 24.5961C94.2719 24.3021 94.382 24.0099 94.4134 23.7193C94.4447 23.4288 94.3781 23.1462 94.2135 22.8716C94.0505 22.5946 93.7706 22.3286 93.3739 22.0737L91.8109 21.0692L87.5994 27.6223L86.7103 27.051ZM92.2857 25.9738L91.9729 30.4331L90.9405 29.7696L91.282 25.3287L92.2857 25.9738Z" fill="black"/>
<path d="M102.114 29.0953L102.823 28.4813L107.109 33.4281L106.401 34.042L104.604 31.968L98.7164 37.0692L98.0243 36.2705L103.911 31.1693L102.114 29.0953Z" fill="black"/>
<path d="M103.76 44.4426L111.699 40.8172L113.887 45.6083L113.034 45.9977L111.285 42.168L108.603 43.393L110.239 46.9746L109.386 47.3641L107.75 43.7824L105.052 45.0145L106.83 48.9063L105.977 49.2957L103.76 44.4426Z" fill="black"/>
<path d="M108.184 58.0504L107.8 55.3847L116.439 54.1426L116.839 56.9265C116.959 57.7645 116.89 58.5064 116.629 59.1523C116.372 59.7978 115.944 60.3257 115.346 60.736C114.751 61.1459 114.006 61.4152 113.112 61.5438C112.212 61.6731 111.414 61.6242 110.718 61.3971C110.025 61.1695 109.461 60.7743 109.024 60.2114C108.59 59.6481 108.31 58.9278 108.184 58.0504ZM108.879 56.2973L109.102 57.8495C109.204 58.5638 109.427 59.1359 109.77 59.5659C110.114 59.9959 110.556 60.2895 111.098 60.4469C111.64 60.6044 112.263 60.6325 112.966 60.5314C113.663 60.4312 114.247 60.231 114.718 59.9308C115.191 59.6303 115.53 59.2342 115.735 58.7427C115.943 58.2507 115.998 57.6673 115.901 56.9925L115.661 55.3221L108.879 56.2973Z" fill="black"/>
<defs>
<linearGradient id="paint0_linear_3697_31458" x1="95" y1="9.29203e-06" x2="-34.5848" y2="91.5433" gradientUnits="userSpaceOnUse">
<stop stop-color="#F1FF48"/>
<stop offset="0.317708" stop-color="#F6FACA"/>
<stop offset="0.635417" stop-color="#DE59FF"/>
<stop offset="1" stop-color="#C5C0FF"/>
</linearGradient>
</defs>
</svg>
