<svg width="77" height="76" viewBox="0 0 77 76" fill="none" xmlns="http://www.w3.org/2000/svg">
<path d="M76.1615 39.065L76.1616 39.0651L76.1852 39.1013C76.1716 39.0821 76.1591 39.0628 76.1474 39.0435L76.1514 39.0495L76.1596 39.062L76.1614 39.0647L76.1615 39.065ZM1.58752 39.022C1.46964 38.8619 1.36501 38.718 1.27397 38.5917C1.40838 38.4192 1.56443 38.2147 1.73861 37.9855C1.80242 37.9015 1.86916 37.8135 1.93882 37.7217C2.47285 37.018 3.17788 36.0888 4.04403 34.9981C6.00202 32.5325 8.77313 29.2544 12.1786 25.9809C19.0271 19.3979 28.2694 13 38.5 13C48.7341 13 58.1169 19.4018 65.0342 25.9844C68.4737 29.2575 71.2604 32.5339 73.1873 34.993C74.1502 36.2218 74.8968 37.2445 75.4014 37.9579C75.5316 38.142 75.6456 38.3054 75.7431 38.4465C75.6636 38.5485 75.5758 38.6617 75.4807 38.7843L75.4277 38.8526C74.9162 39.512 74.1671 40.4755 73.2027 41.646C71.2729 43.9881 68.4852 47.1531 65.0451 50.3304C58.1277 56.7195 48.7424 63 38.5 63C28.2511 63 18.8637 56.8421 11.9512 50.522C8.51246 47.378 5.72665 44.231 3.80047 41.8692C2.83799 40.6891 2.09174 39.707 1.58752 39.022Z" stroke="white" stroke-width="2"/>
<path d="M33 31.9113L38.5647 23L44 31.9113V37H38.8235H33V31.9113Z" fill="#D4F941"/>
<path d="M38.5 23L40.6651 26.75H36.3349L38.5 23Z" fill="#D4F941"/>
<rect x="33" y="33" width="11" height="2" fill="#0D2259"/>
<path d="M33 39H44V47.5C44 50.5376 41.5376 53 38.5 53C35.4624 53 33 50.5376 33 47.5V39Z" fill="#5648FF"/>
</svg>
