<svg width="76" height="76" viewBox="0 0 76 76" fill="none" xmlns="http://www.w3.org/2000/svg">
<rect x="30.3984" y="29" width="27.2" height="17" fill="#0D2259"/>
<g clip-path="url(#clip0_3775_47410)">
<path fill-rule="evenodd" clip-rule="evenodd" d="M45.1948 12.5H55.3452V15.6041C57.895 16.1829 60.2827 17.1884 62.4293 18.5415L64.627 16.3438L71.8044 23.5212L69.6057 25.72C70.9574 27.8658 71.9618 30.2524 72.54 32.8008H75.6519V42.9512H72.54C71.9618 45.4997 70.9573 47.8863 69.6055 50.0322L71.8041 52.2308L64.6267 59.4082L62.4291 57.2106C60.2825 58.5636 57.8948 59.5691 55.345 60.1479V63.252H45.1946V60.1489C42.6454 59.5708 40.2581 58.5662 38.1117 57.2141L35.9175 59.4083L28.7401 52.2309L30.9332 50.0378C29.5796 47.8905 28.5739 45.5019 27.9951 42.9512H24.8984L24.8984 32.8008H27.9951C28.5739 30.2501 29.5796 27.8617 30.9331 25.7144L28.7398 23.5211L35.9172 16.3437L38.1115 18.538C40.258 17.1858 42.6454 16.1812 45.1948 15.603V12.5ZM49.9995 54C58.8361 54 65.9995 46.8366 65.9995 38C65.9995 29.1634 58.8361 22 49.9995 22C41.163 22 33.9995 29.1634 33.9995 38C33.9995 46.8366 41.163 54 49.9995 54Z" fill="#5648FF"/>
<rect x="22" y="29" width="24" height="17" fill="#0D2259"/>
</g>
<rect x="22" y="32" width="24" height="4" fill="#D4F941"/>
<rect x="33" y="33" width="9.93191" height="10.4489" fill="#D4F941"/>
<circle cx="11.5" cy="33.5" r="9.5" stroke="white" stroke-width="4"/>
<defs>
<clipPath id="clip0_3775_47410">
<rect width="51" height="51" fill="white" transform="translate(25 12.5)"/>
</clipPath>
</defs>
</svg>
