<svg width="76" height="76" viewBox="0 0 76 76" fill="none" xmlns="http://www.w3.org/2000/svg">
<g clip-path="url(#clip0_3776_60686)">
<rect x="1" y="1" width="74" height="74" rx="10.0961" stroke="white" stroke-width="2"/>
<circle cx="31" cy="51" r="9" fill="#D4F941"/>
<circle cx="46" cy="51" r="9" fill="#5648FF"/>
<path d="M33.8993 18.2L39.9713 35H35.8673L34.7633 31.568H28.7393L27.6113 35H23.6033L29.6993 18.2H33.8993ZM31.8113 22.448H31.7153L29.8433 28.184H33.6593L31.8113 22.448ZM51.6428 27.776V35H48.2348V33.968H48.1388C47.8508 34.368 47.4028 34.696 46.7948 34.952C46.1868 35.208 45.5628 35.336 44.9228 35.336C43.7228 35.336 42.7308 34.992 41.9468 34.304C41.1788 33.616 40.7948 32.736 40.7948 31.664C40.7948 30.464 41.2428 29.528 42.1388 28.856C43.0348 28.168 44.2588 27.824 45.8108 27.824C46.8828 27.824 47.6348 27.952 48.0668 28.208V27.512C48.0668 26.984 47.9148 26.576 47.6108 26.288C47.3228 25.984 46.9148 25.832 46.3868 25.832C45.6188 25.832 45.0668 26.136 44.7308 26.744L41.1308 26.504C41.4828 25.4 42.1308 24.552 43.0748 23.96C44.0348 23.352 45.2108 23.048 46.6028 23.048C48.2348 23.048 49.4828 23.456 50.3468 24.272C51.2108 25.088 51.6428 26.256 51.6428 27.776ZM44.4428 31.424C44.4428 32.208 44.9708 32.6 46.0268 32.6C46.6028 32.6 47.0988 32.464 47.5148 32.192C47.9308 31.92 48.1388 31.608 48.1388 31.256V30.656C47.8508 30.368 47.2428 30.224 46.3148 30.224C45.7228 30.224 45.2588 30.336 44.9228 30.56C44.6028 30.768 44.4428 31.056 44.4428 31.424Z" fill="white"/>
</g>
<defs>
<clipPath id="clip0_3776_60686">
<rect width="76" height="76" fill="white"/>
</clipPath>
</defs>
</svg>
