<svg width="76" height="76" viewBox="0 0 76 76" fill="none" xmlns="http://www.w3.org/2000/svg">
<g clip-path="url(#clip0_5528_32422)">
<path d="M33.5436 23.923L33.1063 23.9312C25.0147 24.0839 17.1319 27.4026 11.3299 33.2046L11.3246 33.2099L11.3246 33.2098C11.2475 33.2858 11.2185 33.4022 11.2522 33.5071C11.289 33.6162 11.3806 33.6904 11.4879 33.706L33.5436 23.923ZM33.5436 23.923L33.8344 23.5963C42.3936 13.9817 55.9221 7.7982 67.7065 8.00747C67.8644 8.01303 67.9895 8.14133 67.9935 8.2947L68.9932 8.2684L67.9935 8.29169C68.2675 20.0548 62.0365 33.5803 52.4068 42.1617L52.0805 42.4525L52.0723 42.8894C51.9195 50.9819 48.6005 58.8631 42.8839 64.5809C42.8057 64.6575 42.6822 64.7062 42.5889 64.7062C42.5606 64.7062 42.5427 64.7026 42.5322 64.6995C42.4398 64.6677 42.3745 64.622 42.3371 64.583C42.303 64.5474 42.2969 64.5239 42.2949 64.5101L40.8689 54.5543L40.6044 52.7075L39.2129 53.9502L37.836 55.1799L37.8353 55.1805C37.7808 55.2293 37.7135 55.2538 37.6419 55.2538C37.5618 55.2538 37.4892 55.2242 37.4345 55.1695L20.8314 38.5665C20.7191 38.4542 20.7162 38.2794 20.8181 38.1653L20.8185 38.1649L22.0481 36.788L23.2908 35.3965L21.4441 35.132L11.4883 33.7061L33.5436 23.923Z" stroke="white" stroke-width="2"/>
<circle cx="53.1042" cy="23.1042" r="5.93268" transform="rotate(-30 53.1042 23.1042)" fill="#5648FF"/>
<path d="M14.0371 50.6712C11.273 53.4354 7.47806 65.9232 7.0544 67.3363C6.91748 67.791 7.04406 68.2844 7.37731 68.6202C7.62532 68.8682 7.9534 69 8.29182 69C8.41581 69 8.53982 68.9819 8.66382 68.9457C10.0769 68.5221 22.5647 64.7272 25.3289 61.963C28.4418 58.8501 28.4418 53.7842 25.3289 50.6712C22.2134 47.5583 17.1501 47.5609 14.0371 50.6712Z" fill="#D4F941"/>
</g>
<defs>
<clipPath id="clip0_5528_32422">
<rect width="62" height="62" fill="white" transform="translate(7 7)"/>
</clipPath>
</defs>
</svg>
