<svg width="78" height="76" viewBox="0 0 78 76" fill="none" xmlns="http://www.w3.org/2000/svg">
<rect x="1" y="1" width="74" height="74" rx="14.8333" stroke="white" stroke-width="2"/>
<circle cx="13.1546" cy="13.1538" r="2.4359" fill="#5648FF"/>
<circle cx="26.7972" cy="13.1538" r="2.4359" fill="#5648FF"/>
<circle cx="19.975" cy="13.1538" r="2.4359" fill="#5648FF"/>
<rect x="16" y="25" width="42" height="16" rx="8" fill="#D4F941"/>
<rect x="26" y="45" width="32" height="6" rx="3" fill="#5648FF"/>
<rect x="31" y="54" width="24" height="6" rx="3" fill="#5648FF"/>
<g clip-path="url(#clip0_5528_32420)">
<path d="M62.4102 34.8008C62.1886 34.4075 61.8357 34.1048 61.4133 33.9455C60.9909 33.7863 60.526 33.7807 60.0999 33.9297C59.8447 34.0251 59.6133 34.175 59.4219 34.3689C59.2305 34.5628 59.0836 34.7961 58.9916 35.0525C58.8995 35.3089 58.8644 35.5823 58.8888 35.8537C58.9131 36.1251 58.9963 36.3879 59.1326 36.6238L64.5701 46.0418L63.2711 46.7918L61.2502 43.2916L60.3574 46.4268C60.2621 46.7811 60.255 47.1534 60.3365 47.5111C60.4181 47.8689 60.5859 48.2012 60.8254 48.4793C61.1416 48.8376 61.5597 49.0908 62.0238 49.205L67.1951 50.5885L76.2884 45.3385L71.1111 36.3712L64.5102 38.4381L62.4102 34.8008Z" fill="#D4F941"/>
</g>
<defs>
<clipPath id="clip0_5528_32420">
<rect width="18" height="18" fill="white" transform="translate(53 38) rotate(-30)"/>
</clipPath>
</defs>
</svg>
