<svg width="76" height="76" viewBox="0 0 76 76" fill="none" xmlns="http://www.w3.org/2000/svg">
<path d="M16.0996 27.2V7C16.0996 4.23857 18.3382 2 21.0996 2H53.8496C56.611 2 58.8496 4.23858 58.8496 7V27.2" stroke="white" stroke-width="2"/>
<rect x="10.6992" y="15.95" width="10.8" height="19.8" rx="5.4" fill="#D4F941"/>
<rect x="53.9004" y="15.95" width="10.8" height="19.8" rx="5.4" fill="#D4F941"/>
<path d="M66.3829 73H9.0171C9.544 57.6125 22.1841 45.3 37.7 45.3C53.2159 45.3 65.856 57.6125 66.3829 73Z" stroke="white" stroke-width="2"/>
<circle cx="37.7" cy="28.1" r="15.2" stroke="white" stroke-width="2"/>
<path d="M44.0004 67.7C44.0004 67.7 42.671 68.6 37.7004 68.6C35.4298 68.6 31.4004 67.7 31.4004 67.7C31.4004 62.7294 32.7298 50.6 37.7004 50.6C42.671 50.6 44.0004 62.7294 44.0004 67.7Z" fill="#5648FF"/>
</svg>
