<svg width="162" height="162" viewBox="0 0 162 162" fill="none" xmlns="http://www.w3.org/2000/svg">
<path d="M0 81C0 36.2649 36.2649 0 81 0C125.735 0 162 36.2649 162 81C162 125.735 125.735 162 81 162C36.2649 162 0 125.735 0 81Z" fill="#091E55"/>
<rect x="49" y="46" width="65" height="74" rx="11" stroke="white" stroke-width="2"/>
<circle cx="80.5576" cy="80.5576" r="15.0492" transform="rotate(-30 80.5576 80.5576)" fill="#5648FF"/>
<path d="M92.278 104.979L88.078 96.739L83 101.216V83.019C83 82.6463 83.1041 82.281 83.3007 81.9643C83.4972 81.6476 83.7783 81.3922 84.1123 81.2267C84.4463 81.0613 84.8198 80.9925 85.1908 81.028C85.5618 81.0636 85.9155 81.2021 86.212 81.428L100.117 93.436L93.5 94.17L97.645 102.3L92.278 104.979Z" fill="#D4F941"/>
</svg>
