<svg width="76" height="76" viewBox="0 0 76 76" fill="none" xmlns="http://www.w3.org/2000/svg">
<path d="M38 25L40.9187 33.9828H50.3637L42.7225 39.5344L45.6412 48.5172L38 42.9656L30.3588 48.5172L33.2775 39.5344L25.6363 33.9828H35.0813L38 25Z" fill="#D4F941"/>
<path d="M73.9871 37.039C74.1856 37.3044 74.3702 37.5512 74.538 37.7724C74.427 37.8862 74.3133 38.0089 74.1984 38.1363C73.695 38.6943 73.0359 39.4943 72.2538 40.4435C72.1133 40.614 71.9689 40.7893 71.8206 40.9689C69.8548 43.3508 67.1309 46.6012 63.7941 49.8805C57.0811 56.478 48.0785 63 38 63C27.9014 63 18.6429 56.7254 11.8169 50.2733C8.42276 47.0651 5.67287 43.8536 3.77134 41.4431C2.82119 40.2387 2.08447 39.2364 1.58663 38.5372C1.43968 38.3308 1.31357 38.1509 1.20898 38C1.31357 37.8491 1.43968 37.6692 1.58663 37.4628C2.08447 36.7636 2.82119 35.7613 3.77134 34.5569C5.67287 32.1464 8.42276 28.9349 11.8169 25.7267C18.6429 19.2746 27.9014 13 38 13C48.1142 13 56.8769 18.7512 63.4351 24.9161C66.7016 27.9867 69.3885 31.1293 71.387 33.6454C72.3859 34.9031 73.2112 36.0022 73.8531 36.8599C73.8985 36.9205 73.9431 36.9802 73.9871 37.039Z" stroke="#D9D9D9" stroke-width="2"/>
<rect width="29.0222" height="27.4098" transform="translate(41 4)" fill="#0D2259"/>
<path d="M47 16.2702L52.3745 21.2864L62.8987 10" stroke="#5648FF" stroke-width="2"/>
</svg>
