<svg width="162" height="162" viewBox="0 0 162 162" fill="none" xmlns="http://www.w3.org/2000/svg">
<rect width="162" height="162" rx="81" fill="#0D2259"/>
<path d="M82 59L84.9187 67.9828H94.3637L86.7225 73.5344L89.6412 82.5172L82 76.9656L74.3588 82.5172L77.2775 73.5344L69.6363 67.9828H79.0813L82 59Z" fill="#D4F941"/>
<path d="M125.868 72.5908C126.08 72.8525 126.28 73.0989 126.465 73.3247C126.356 73.43 126.246 73.5408 126.134 73.6547C125.506 74.2976 124.683 75.2191 123.709 76.3108C123.534 76.5068 123.354 76.7082 123.17 76.9145C120.721 79.6532 117.329 83.3895 113.174 87.1593C104.822 94.7355 93.5947 102.254 81.0005 102.254C68.3825 102.254 56.8356 95.0211 48.3422 87.6105C44.1153 83.9224 40.6911 80.231 38.3239 77.4611C37.1411 76.077 36.2241 74.9254 35.6046 74.1223C35.4535 73.9263 35.32 73.7511 35.2048 73.5984C35.32 73.4457 35.4535 73.2705 35.6046 73.0745C36.2241 72.2715 37.1411 71.1198 38.3239 69.7357C40.6911 66.9659 44.1153 63.2745 48.3422 59.5864C56.8356 52.1757 68.3825 44.9427 81.0005 44.9427C93.6372 44.9427 104.566 51.5732 112.727 58.6542C116.795 62.1838 120.14 65.796 122.629 68.6877C123.872 70.1332 124.9 71.3965 125.7 72.3828C125.757 72.4531 125.813 72.5225 125.868 72.5908Z" stroke="#D9D9D9" stroke-width="2.4918"/>
<rect width="29.0222" height="27.4098" transform="translate(67.7363 27.5)" fill="#0D2259"/>
<path d="M75.7988 41.832L81.1733 46.8482L88.6976 35.5618" stroke="#5648FF" stroke-width="4.98361"/>
</svg>
