<svg width="76" height="76" viewBox="0 0 76 76" fill="none" xmlns="http://www.w3.org/2000/svg">
<path d="M30 13C30 12.4477 30.4477 12 31 12H48C48.5523 12 49 12.4477 49 13V64H30V13Z" stroke="white" stroke-width="2"/>
<path d="M2 31C2 29.8954 2.89543 29 4 29H21C22.1046 29 23 29.8954 23 31V65H2V31Z" fill="#D4F941"/>
<path d="M56 41C56 39.8954 56.8954 39 58 39H74C75.1046 39 76 39.8954 76 41V65H56V41Z" fill="#5648FF"/>
<path d="M0 63C0 64.1046 0.895431 65 2 65H74C75.1046 65 76 64.1046 76 63H0Z" fill="white"/>
</svg>
