<svg width="162" height="162" viewBox="0 0 162 162" fill="none" xmlns="http://www.w3.org/2000/svg">
<rect width="162" height="162" rx="81" fill="#0D2259"/>
<path d="M72 47C72 46.4477 72.4477 46 73 46H91C91.5523 46 92 46.4477 92 47V98H72V47Z" stroke="white" stroke-width="2"/>
<path d="M42 65C42 63.8954 42.8954 63 44 63H62C63.1046 63 64 63.8954 64 65V99H42V65Z" fill="#D4F941"/>
<path d="M100 75C100 73.8954 100.895 73 102 73H119C120.105 73 121 73.8954 121 75V99H100V75Z" fill="#5648FF"/>
<path d="M40 97C40 98.1046 40.8954 99 42 99H121C122.105 99 123 98.1046 123 97H40Z" fill="white"/>
</svg>
