<svg width="76" height="76" viewBox="0 0 76 76" fill="none" xmlns="http://www.w3.org/2000/svg">
<path fill-rule="evenodd" clip-rule="evenodd" d="M13.6667 2C6.67106 2 1 7.67106 1 14.6667V23H74V14.6667C74 7.67106 68.3289 2 61.3333 2H13.6667ZM51.1717 17.8211L52.5125 14.7775L53.6924 17.8211H57.259L60.3831 9.97742H56.3875L55.1539 13.3428L53.8265 9.97742H51.3192L49.8846 13.316L48.9326 9.97742H45.5493H44.9102H41.5537L40.3201 13.3428L38.9927 9.97742H36.4854L35.0508 13.316L34.0988 9.97742H30.7132H30.0764H26.7176L25.484 13.3428L24.1566 9.97742H21.6493L20.2146 13.316L19.2627 9.97742H15.2402L17.7744 17.8211H21.5018L22.8426 14.7775L24.0225 17.8211H27.5891L30.3616 10.8602L32.6105 17.8211H36.3379L37.6788 14.7775L38.8587 17.8211H42.4252L45.1964 10.8634L47.4443 17.8211H51.1717Z" fill="#5648FF"/>
<rect x="1" y="1" width="74" height="74" rx="13.6154" stroke="white" stroke-width="2"/>
<g clip-path="url(#clip0_3711_10288)">
<mask id="path-3-outside-1_3711_10288" maskUnits="userSpaceOnUse" x="24.3086" y="34.0775" width="25" height="25" fill="black">
<rect fill="white" x="24.3086" y="34.0775" width="25" height="25"/>
<path d="M38.6091 58.4614H35.3924C34.8272 58.4614 34.3676 58.0022 34.3676 57.437V56.2704C33.5905 56.0554 32.8449 55.7471 32.1446 55.3494L31.3199 56.1746C30.9203 56.5743 30.2701 56.5743 29.8704 56.1746L27.596 53.8999C27.1964 53.5003 27.1964 52.8501 27.596 52.4504L28.4213 51.6252C28.0242 50.9248 27.7156 50.1789 27.5009 49.4031H26.3337C25.7685 49.4031 25.3086 48.9432 25.3086 48.378V45.1612C25.3086 44.596 25.7685 44.1361 26.3337 44.1361H27.4993C27.714 43.3588 28.0226 42.6128 28.4197 41.9125L27.596 41.0888C27.1964 40.6888 27.1967 40.0386 27.596 39.6393L29.8704 37.3646C30.2701 36.9649 30.9203 36.9649 31.3199 37.3646L32.1439 38.1883C32.8445 37.7912 33.5905 37.4826 34.3676 37.2681V36.1022C34.3676 35.537 34.8272 35.0775 35.3924 35.0775H38.6091C39.1743 35.0775 39.6342 35.537 39.6342 36.1022V37.2694C40.4113 37.4845 41.1566 37.7934 41.8563 38.1898L42.6816 37.3646C43.0812 36.9659 43.7314 36.9646 44.131 37.3646L46.4058 39.6393C46.8054 40.0386 46.8054 40.6888 46.4058 41.0888L45.5811 41.9134C45.9789 42.615 46.2878 43.3607 46.5022 44.1361H47.6681C48.2333 44.1361 48.6932 44.596 48.6932 45.1612V48.378C48.6932 48.9432 48.2333 49.4031 47.6681 49.4031H46.5003C46.2853 50.1795 45.9763 50.9248 45.5792 51.6239L46.4058 52.4504C46.8054 52.8501 46.8054 53.5003 46.4058 53.8999L44.131 56.1746C43.7314 56.5749 43.0812 56.5736 42.6816 56.1746L41.855 55.3481C41.1541 55.7458 40.4094 56.0547 39.6342 56.2692V57.437C39.6342 58.0022 39.1743 58.4614 38.6091 58.4614ZM32.0922 54.618C32.1499 54.618 32.2077 54.6332 32.2597 54.6643C33.0399 55.1343 33.8849 55.4845 34.7707 55.7046C34.9157 55.7408 35.0172 55.8708 35.0172 56.0199V57.437C35.0172 57.6438 35.1856 57.8119 35.3924 57.8119H38.6091C38.8159 57.8119 38.9846 57.6438 38.9846 57.437V56.0186C38.9846 55.8695 39.0861 55.7395 39.2308 55.7033C40.1138 55.4838 40.9581 55.1337 41.7402 54.663C41.8677 54.5869 42.0314 54.6059 42.1373 54.7119L43.1408 55.7154C43.2867 55.8613 43.5259 55.8625 43.6718 55.7154L45.9465 53.4406C46.0931 53.2941 46.0931 53.0562 45.9465 52.9097L44.943 51.9062C44.8377 51.8009 44.8174 51.6366 44.8941 51.5091C45.3642 50.7295 45.7143 49.8852 45.9345 48.9996C45.9706 48.855 46.1007 48.7535 46.2497 48.7535H47.6681C47.8749 48.7535 48.0436 48.5848 48.0436 48.378V45.1612C48.0436 44.9541 47.8749 44.7857 47.6681 44.7857H46.2516C46.1026 44.7857 45.9725 44.6842 45.9364 44.5393C45.7169 43.6556 45.3667 42.8107 44.8961 42.0282C44.8193 41.9004 44.8396 41.7364 44.9449 41.6311L45.9465 40.6295C46.0924 40.483 46.0931 40.2448 45.9465 40.0986L43.6718 37.8238C43.5252 37.677 43.2861 37.6782 43.1408 37.8238L42.1386 38.8264C42.032 38.932 41.869 38.952 41.7415 38.8749C40.9612 38.4058 40.1169 38.0557 39.2308 37.8352C39.0861 37.7991 38.9846 37.669 38.9846 37.52V36.1022C38.9846 35.8954 38.8159 35.727 38.6091 35.727H35.3924C35.1856 35.727 35.0172 35.8954 35.0172 36.1022V37.5187C35.0172 37.6681 34.9154 37.7978 34.7707 37.834C33.8849 38.0538 33.0399 38.4036 32.2587 38.8733C32.1312 38.9504 31.9673 38.9311 31.8616 38.8248L30.8607 37.8238C30.7141 37.6773 30.4762 37.6773 30.3297 37.8238L28.0553 40.0986C27.9091 40.2448 27.9091 40.483 28.0553 40.6295L29.056 41.6302C29.1616 41.7355 29.1816 41.8995 29.1048 42.0273C28.6351 42.8082 28.2852 43.6531 28.0651 44.5393C28.029 44.6842 27.8989 44.7857 27.7498 44.7857H26.3337C26.1266 44.7857 25.9582 44.9541 25.9582 45.1612V48.378C25.9582 48.5848 26.1266 48.7535 26.3337 48.7535H27.7514C27.9005 48.7535 28.0305 48.855 28.0667 48.9996C28.2868 49.8845 28.6363 50.7295 29.1064 51.5103C29.1831 51.6385 29.1632 51.8021 29.0575 51.9074L28.0553 52.9097C27.9091 53.0562 27.9091 53.2941 28.0553 53.4406L30.3297 55.7154C30.4762 55.8613 30.7141 55.8613 30.8607 55.7154L31.8626 54.7131C31.9251 54.6503 32.0082 54.618 32.0922 54.618ZM36.9874 51.9233C35.6236 51.9233 34.3372 51.3968 33.3523 50.4117C32.1252 49.1848 31.6098 47.4893 31.9378 45.7604C32.3244 43.7222 33.9534 42.0933 35.9915 41.7066C37.721 41.3783 39.416 41.8941 40.6434 43.1212C41.8703 44.348 42.386 46.0433 42.058 47.7722C41.6717 49.8103 40.0427 51.4399 38.004 51.8269C37.663 51.8916 37.3227 51.9233 36.9874 51.9233ZM37.0049 42.2601C36.7105 42.2601 36.4124 42.288 36.1127 42.3448C34.3343 42.6822 32.9131 44.1035 32.5759 45.8815C32.2885 47.396 32.7389 48.8797 33.8116 49.9524C34.8843 51.0257 36.3683 51.4735 37.8834 51.1887C39.6615 50.8513 41.083 49.4297 41.4199 47.6517C41.7072 46.1368 41.2568 44.6528 40.1842 43.5805C39.3234 42.72 38.1981 42.2601 37.0049 42.2601Z"/>
</mask>
<path d="M38.6091 58.4614H35.3924C34.8272 58.4614 34.3676 58.0022 34.3676 57.437V56.2704C33.5905 56.0554 32.8449 55.7471 32.1446 55.3494L31.3199 56.1746C30.9203 56.5743 30.2701 56.5743 29.8704 56.1746L27.596 53.8999C27.1964 53.5003 27.1964 52.8501 27.596 52.4504L28.4213 51.6252C28.0242 50.9248 27.7156 50.1789 27.5009 49.4031H26.3337C25.7685 49.4031 25.3086 48.9432 25.3086 48.378V45.1612C25.3086 44.596 25.7685 44.1361 26.3337 44.1361H27.4993C27.714 43.3588 28.0226 42.6128 28.4197 41.9125L27.596 41.0888C27.1964 40.6888 27.1967 40.0386 27.596 39.6393L29.8704 37.3646C30.2701 36.9649 30.9203 36.9649 31.3199 37.3646L32.1439 38.1883C32.8445 37.7912 33.5905 37.4826 34.3676 37.2681V36.1022C34.3676 35.537 34.8272 35.0775 35.3924 35.0775H38.6091C39.1743 35.0775 39.6342 35.537 39.6342 36.1022V37.2694C40.4113 37.4845 41.1566 37.7934 41.8563 38.1898L42.6816 37.3646C43.0812 36.9659 43.7314 36.9646 44.131 37.3646L46.4058 39.6393C46.8054 40.0386 46.8054 40.6888 46.4058 41.0888L45.5811 41.9134C45.9789 42.615 46.2878 43.3607 46.5022 44.1361H47.6681C48.2333 44.1361 48.6932 44.596 48.6932 45.1612V48.378C48.6932 48.9432 48.2333 49.4031 47.6681 49.4031H46.5003C46.2853 50.1795 45.9763 50.9248 45.5792 51.6239L46.4058 52.4504C46.8054 52.8501 46.8054 53.5003 46.4058 53.8999L44.131 56.1746C43.7314 56.5749 43.0812 56.5736 42.6816 56.1746L41.855 55.3481C41.1541 55.7458 40.4094 56.0547 39.6342 56.2692V57.437C39.6342 58.0022 39.1743 58.4614 38.6091 58.4614ZM32.0922 54.618C32.1499 54.618 32.2077 54.6332 32.2597 54.6643C33.0399 55.1343 33.8849 55.4845 34.7707 55.7046C34.9157 55.7408 35.0172 55.8708 35.0172 56.0199V57.437C35.0172 57.6438 35.1856 57.8119 35.3924 57.8119H38.6091C38.8159 57.8119 38.9846 57.6438 38.9846 57.437V56.0186C38.9846 55.8695 39.0861 55.7395 39.2308 55.7033C40.1138 55.4838 40.9581 55.1337 41.7402 54.663C41.8677 54.5869 42.0314 54.6059 42.1373 54.7119L43.1408 55.7154C43.2867 55.8613 43.5259 55.8625 43.6718 55.7154L45.9465 53.4406C46.0931 53.2941 46.0931 53.0562 45.9465 52.9097L44.943 51.9062C44.8377 51.8009 44.8174 51.6366 44.8941 51.5091C45.3642 50.7295 45.7143 49.8852 45.9345 48.9996C45.9706 48.855 46.1007 48.7535 46.2497 48.7535H47.6681C47.8749 48.7535 48.0436 48.5848 48.0436 48.378V45.1612C48.0436 44.9541 47.8749 44.7857 47.6681 44.7857H46.2516C46.1026 44.7857 45.9725 44.6842 45.9364 44.5393C45.7169 43.6556 45.3667 42.8107 44.8961 42.0282C44.8193 41.9004 44.8396 41.7364 44.9449 41.6311L45.9465 40.6295C46.0924 40.483 46.0931 40.2448 45.9465 40.0986L43.6718 37.8238C43.5252 37.677 43.2861 37.6782 43.1408 37.8238L42.1386 38.8264C42.032 38.932 41.869 38.952 41.7415 38.8749C40.9612 38.4058 40.1169 38.0557 39.2308 37.8352C39.0861 37.7991 38.9846 37.669 38.9846 37.52V36.1022C38.9846 35.8954 38.8159 35.727 38.6091 35.727H35.3924C35.1856 35.727 35.0172 35.8954 35.0172 36.1022V37.5187C35.0172 37.6681 34.9154 37.7978 34.7707 37.834C33.8849 38.0538 33.0399 38.4036 32.2587 38.8733C32.1312 38.9504 31.9673 38.9311 31.8616 38.8248L30.8607 37.8238C30.7141 37.6773 30.4762 37.6773 30.3297 37.8238L28.0553 40.0986C27.9091 40.2448 27.9091 40.483 28.0553 40.6295L29.056 41.6302C29.1616 41.7355 29.1816 41.8995 29.1048 42.0273C28.6351 42.8082 28.2852 43.6531 28.0651 44.5393C28.029 44.6842 27.8989 44.7857 27.7498 44.7857H26.3337C26.1266 44.7857 25.9582 44.9541 25.9582 45.1612V48.378C25.9582 48.5848 26.1266 48.7535 26.3337 48.7535H27.7514C27.9005 48.7535 28.0305 48.855 28.0667 48.9996C28.2868 49.8845 28.6363 50.7295 29.1064 51.5103C29.1831 51.6385 29.1632 51.8021 29.0575 51.9074L28.0553 52.9097C27.9091 53.0562 27.9091 53.2941 28.0553 53.4406L30.3297 55.7154C30.4762 55.8613 30.7141 55.8613 30.8607 55.7154L31.8626 54.7131C31.9251 54.6503 32.0082 54.618 32.0922 54.618ZM36.9874 51.9233C35.6236 51.9233 34.3372 51.3968 33.3523 50.4117C32.1252 49.1848 31.6098 47.4893 31.9378 45.7604C32.3244 43.7222 33.9534 42.0933 35.9915 41.7066C37.721 41.3783 39.416 41.8941 40.6434 43.1212C41.8703 44.348 42.386 46.0433 42.058 47.7722C41.6717 49.8103 40.0427 51.4399 38.004 51.8269C37.663 51.8916 37.3227 51.9233 36.9874 51.9233ZM37.0049 42.2601C36.7105 42.2601 36.4124 42.288 36.1127 42.3448C34.3343 42.6822 32.9131 44.1035 32.5759 45.8815C32.2885 47.396 32.7389 48.8797 33.8116 49.9524C34.8843 51.0257 36.3683 51.4735 37.8834 51.1887C39.6615 50.8513 41.083 49.4297 41.4199 47.6517C41.7072 46.1368 41.2568 44.6528 40.1842 43.5805C39.3234 42.72 38.1981 42.2601 37.0049 42.2601Z" fill="#D4F941"/>
<path d="M37.9437 51.7514H37.95V51.2642H37.9437V51.7514ZM34.3676 56.2704H34.8548V55.8998L34.4975 55.8009L34.3676 56.2704ZM32.1446 55.3494L32.3851 54.9257L32.0623 54.7424L31.7999 55.005L32.1446 55.3494ZM31.3199 56.1746L31.6644 56.5191L31.6645 56.519L31.3199 56.1746ZM29.8704 56.1746L29.5259 56.5191L29.526 56.5191L29.8704 56.1746ZM27.596 53.8999L27.9405 53.5554L27.9405 53.5554L27.596 53.8999ZM27.596 52.4504L27.9405 52.7949L27.596 52.4504ZM28.4213 51.6252L28.7658 51.9696L29.028 51.7074L28.8451 51.3849L28.4213 51.6252ZM27.5009 49.4031L27.9704 49.2731L27.8715 48.9159H27.5009V49.4031ZM26.3337 49.4031V48.9159H26.3337L26.3337 49.4031ZM27.4993 44.1361V44.6233H27.8701L27.9689 44.2659L27.4993 44.1361ZM28.4197 41.9125L28.8435 42.1528L29.0264 41.8302L28.7642 41.568L28.4197 41.9125ZM27.596 41.0888L27.2514 41.4331L27.2515 41.4333L27.596 41.0888ZM27.596 39.6393L27.9405 39.9838L27.9405 39.9838L27.596 39.6393ZM29.8704 37.3646L29.526 37.0201L29.5259 37.0201L29.8704 37.3646ZM31.3199 37.3646L30.9754 37.7091L30.9755 37.7091L31.3199 37.3646ZM32.1439 38.1883L31.7995 38.5328L32.0617 38.7949L32.3841 38.6121L32.1439 38.1883ZM34.3676 37.2681L34.4972 37.7378L34.8548 37.6391V37.2681H34.3676ZM39.6342 37.2694H39.147V37.6401L39.5043 37.7389L39.6342 37.2694ZM41.8563 38.1898L41.6161 38.6137L41.9386 38.7965L42.2008 38.5343L41.8563 38.1898ZM42.6816 37.3646L42.3375 37.0197L42.3371 37.0201L42.6816 37.3646ZM44.131 37.3646L43.7864 37.7089L43.7865 37.7091L44.131 37.3646ZM46.4058 39.6393L46.0613 39.9838L46.0614 39.9839L46.4058 39.6393ZM46.4058 41.0888L46.7503 41.4333L46.7504 41.4331L46.4058 41.0888ZM45.5811 41.9134L45.2367 41.5689L44.9745 41.8311L45.1573 42.1537L45.5811 41.9134ZM46.5022 44.1361L46.0326 44.266L46.1314 44.6233H46.5022V44.1361ZM47.6681 44.1361V43.649V44.1361ZM46.5003 49.4031V48.9159H46.1297L46.0308 49.273L46.5003 49.4031ZM45.5792 51.6239L45.1556 51.3833L44.9723 51.7059L45.2347 51.9684L45.5792 51.6239ZM46.4058 52.4504L46.0613 52.7949L46.4058 52.4504ZM46.4058 53.8999L46.7503 54.2444L46.4058 53.8999ZM44.131 56.1746L43.7866 55.8302L43.7863 55.8304L44.131 56.1746ZM42.6816 56.1746L42.3371 56.5191L42.3374 56.5194L42.6816 56.1746ZM41.855 55.3481L42.1995 55.0036L41.9372 54.7413L41.6146 54.9244L41.855 55.3481ZM39.6342 56.2692L39.5043 55.7996L39.147 55.8984V56.2692H39.6342ZM32.2597 54.6643L32.5111 54.247L32.5096 54.2461L32.2597 54.6643ZM34.7707 55.7046L34.8886 55.2319L34.8882 55.2318L34.7707 55.7046ZM39.2308 55.7033L39.1132 55.2305L39.1126 55.2307L39.2308 55.7033ZM41.7402 54.663L41.4905 54.2447L41.489 54.2456L41.7402 54.663ZM43.1408 55.7154L42.7963 56.0599V56.0599L43.1408 55.7154ZM43.6718 55.7154L43.3273 55.3709L43.3258 55.3724L43.6718 55.7154ZM45.9465 53.4406L46.291 53.7851L45.9465 53.4406ZM44.943 51.9062L45.2875 51.5617L45.2875 51.5617L44.943 51.9062ZM44.8941 51.5091L44.4769 51.2575L44.4768 51.2578L44.8941 51.5091ZM45.9345 48.9996L45.4618 48.8815L45.4617 48.8821L45.9345 48.9996ZM45.9364 44.5393L45.4636 44.6567L45.4637 44.6572L45.9364 44.5393ZM44.8961 42.0282L44.4784 42.279L44.4786 42.2794L44.8961 42.0282ZM44.9449 41.6311L45.2894 41.9756L45.2894 41.9756L44.9449 41.6311ZM45.9465 40.6295L46.291 40.974L46.2918 40.9733L45.9465 40.6295ZM45.9465 40.0986L45.602 40.4431L45.6024 40.4434L45.9465 40.0986ZM43.6718 37.8238L43.3269 38.1679L43.3273 38.1683L43.6718 37.8238ZM43.1408 37.8238L43.4854 38.1683L43.4857 38.1679L43.1408 37.8238ZM42.1386 38.8264L42.4815 39.1724L42.4831 39.1708L42.1386 38.8264ZM41.7415 38.8749L41.9935 38.458L41.9925 38.4574L41.7415 38.8749ZM39.2308 37.8352L39.1126 38.3079L39.1132 38.308L39.2308 37.8352ZM34.7707 37.834L34.888 38.3068L34.8889 38.3066L34.7707 37.834ZM32.2587 38.8733L32.0077 38.4558L32.0067 38.4564L32.2587 38.8733ZM31.8616 38.8248L32.2072 38.4814L32.2061 38.4803L31.8616 38.8248ZM30.3297 37.8238L29.9852 37.4793L29.9852 37.4794L30.3297 37.8238ZM28.0553 40.0986L28.3998 40.4431L28.3998 40.443L28.0553 40.0986ZM28.0553 40.6295L27.7104 40.9736L27.7108 40.974L28.0553 40.6295ZM29.056 41.6302L28.7115 41.9747L28.712 41.9752L29.056 41.6302ZM29.1048 42.0273L29.5223 42.2784L29.5225 42.2781L29.1048 42.0273ZM28.0651 44.5393L28.5378 44.6572L28.5379 44.6567L28.0651 44.5393ZM28.0667 48.9996L28.5395 48.882L28.5393 48.8815L28.0667 48.9996ZM29.1064 51.5103L29.5243 51.26L29.5238 51.2591L29.1064 51.5103ZM29.0575 51.9074L28.7136 51.5624L28.7131 51.5629L29.0575 51.9074ZM28.0553 52.9097L27.7108 52.5652L27.7104 52.5656L28.0553 52.9097ZM28.0553 53.4406L27.7104 53.7847L27.7108 53.7851L28.0553 53.4406ZM30.3297 55.7154L29.9852 56.0598L29.986 56.0606L30.3297 55.7154ZM30.8607 55.7154L31.2044 56.0606L31.2052 56.0598L30.8607 55.7154ZM31.8626 54.7131L32.2071 55.0576L32.2079 55.0567L31.8626 54.7131ZM33.3523 50.4117L33.6969 50.0672L33.6968 50.0671L33.3523 50.4117ZM31.9378 45.7604L31.4591 45.6696L31.4591 45.6696L31.9378 45.7604ZM35.9915 41.7066L36.0823 42.1853L36.0824 42.1853L35.9915 41.7066ZM40.6434 43.1212L40.9879 42.7767L40.9879 42.7767L40.6434 43.1212ZM42.058 47.7722L41.5794 47.6814L41.5794 47.6814L42.058 47.7722ZM38.004 51.8269L38.0948 52.3055L38.0948 52.3055L38.004 51.8269ZM36.1127 42.3448L36.022 41.8661L36.0218 41.8661L36.1127 42.3448ZM32.5759 45.8815L33.0545 45.9723L33.0546 45.9723L32.5759 45.8815ZM33.8116 49.9524L34.1562 49.608L34.1561 49.6079L33.8116 49.9524ZM37.8834 51.1887L37.9734 51.6675L37.9743 51.6674L37.8834 51.1887ZM41.4199 47.6517L40.9412 47.5609L40.9412 47.561L41.4199 47.6517ZM40.1842 43.5805L40.5286 43.2359L40.5286 43.2359L40.1842 43.5805ZM38.6091 57.9743H35.3924V58.9486H38.6091V57.9743ZM35.3924 57.9743C35.096 57.9743 34.8548 57.7329 34.8548 57.437H33.8804C33.8804 58.2714 34.5583 58.9486 35.3924 58.9486V57.9743ZM34.8548 57.437V56.2704H33.8804V57.437H34.8548ZM34.4975 55.8009C33.7587 55.5964 33.0502 55.3035 32.3851 54.9257L31.904 55.773C32.6395 56.1907 33.4224 56.5143 34.2377 56.74L34.4975 55.8009ZM31.7999 55.005L30.9753 55.8303L31.6645 56.519L32.4892 55.6937L31.7999 55.005ZM30.9754 55.8302C30.766 56.0395 30.4243 56.0395 30.2149 55.8302L29.526 56.5191C30.1158 57.109 31.0745 57.109 31.6644 56.5191L30.9754 55.8302ZM30.215 55.8302L27.9405 53.5554L27.2515 54.2444L29.5259 56.5191L30.215 55.8302ZM27.9405 53.5554C27.7311 53.346 27.7311 53.0043 27.9405 52.7949L27.2515 52.1059C26.6616 52.6958 26.6616 53.6545 27.2515 54.2444L27.9405 53.5554ZM27.9405 52.7949L28.7658 51.9696L28.0768 51.2807L27.2515 52.1059L27.9405 52.7949ZM28.8451 51.3849C28.4678 50.7195 28.1745 50.0106 27.9704 49.2731L27.0313 49.533C27.2567 50.3471 27.5806 51.1302 27.9975 51.8655L28.8451 51.3849ZM27.5009 48.9159H26.3337V49.8902H27.5009V48.9159ZM26.3337 48.9159C26.0376 48.9159 25.7958 48.6741 25.7958 48.378H24.8214C24.8214 49.2122 25.4994 49.8902 26.3337 49.8902L26.3337 48.9159ZM25.7958 48.378V45.1612H24.8214V48.378H25.7958ZM25.7958 45.1612C25.7958 44.8651 26.0376 44.6233 26.3337 44.6233V43.649C25.4994 43.649 24.8214 44.327 24.8214 45.1612H25.7958ZM26.3337 44.6233H27.4993V43.649H26.3337V44.6233ZM27.9689 44.2659C28.173 43.5269 28.4662 42.8181 28.8435 42.1528L27.9959 41.6722C27.579 42.4075 27.255 43.1906 27.0297 44.0064L27.9689 44.2659ZM28.7642 41.568L27.9405 40.7443L27.2515 41.4333L28.0752 42.257L28.7642 41.568ZM27.9406 40.7444C27.7311 40.5347 27.7314 40.1929 27.9405 39.9838L27.2515 39.2948C26.662 39.8844 26.6617 40.8429 27.2514 41.4331L27.9406 40.7444ZM27.9405 39.9838L30.215 37.709L29.5259 37.0201L27.2515 39.2948L27.9405 39.9838ZM30.2149 37.7091C30.4243 37.4997 30.766 37.4997 30.9754 37.7091L31.6644 37.0201C31.0745 36.4302 30.1158 36.4302 29.526 37.0201L30.2149 37.7091ZM30.9755 37.7091L31.7995 38.5328L32.4883 37.8437L31.6643 37.02L30.9755 37.7091ZM32.3841 38.6121C33.0498 38.2348 33.7587 37.9415 34.4972 37.7378L34.238 36.7985C33.4224 37.0236 32.6393 37.3475 31.9037 37.7644L32.3841 38.6121ZM34.8548 37.2681V36.1022H33.8804V37.2681H34.8548ZM34.8548 36.1022C34.8548 35.8061 35.0962 35.5646 35.3924 35.5646V34.5903C34.5581 34.5903 33.8804 35.268 33.8804 36.1022H34.8548ZM35.3924 35.5646H38.6091V34.5903H35.3924V35.5646ZM38.6091 35.5646C38.9054 35.5646 39.147 35.8063 39.147 36.1022H40.1214C40.1214 35.2678 39.4432 34.5903 38.6091 34.5903V35.5646ZM39.147 36.1022V37.2694H40.1214V36.1022H39.147ZM39.5043 37.7389C40.2429 37.9433 40.9512 38.2369 41.6161 38.6137L42.0965 37.766C41.3621 37.3498 40.5797 37.0256 39.7641 36.7999L39.5043 37.7389ZM42.2008 38.5343L43.0261 37.7091L42.3371 37.0201L41.5118 37.8454L42.2008 38.5343ZM43.0256 37.7095C43.2358 37.4998 43.5778 37.5001 43.7864 37.7089L44.4757 37.0202C43.885 36.4291 42.9266 36.432 42.3375 37.0197L43.0256 37.7095ZM43.7865 37.7091L46.0613 39.9838L46.7503 39.2948L44.4755 37.0201L43.7865 37.7091ZM46.0614 39.9839C46.2705 40.1928 46.2709 40.5345 46.0612 40.7444L46.7504 41.4331C47.34 40.8431 47.3404 39.8844 46.7501 39.2947L46.0614 39.9839ZM46.0613 40.7443L45.2367 41.5689L45.9256 42.2579L46.7503 41.4333L46.0613 40.7443ZM45.1573 42.1537C45.5354 42.8205 45.8289 43.5291 46.0326 44.266L46.9718 44.0063C46.7467 43.1922 46.4224 42.4095 46.005 41.6732L45.1573 42.1537ZM46.5022 44.6233H47.6681V43.649H46.5022V44.6233ZM47.6681 44.6233C47.9643 44.6233 48.206 44.8651 48.206 45.1612H49.1804C49.1804 44.327 48.5024 43.649 47.6681 43.649L47.6681 44.6233ZM48.206 45.1612V48.378H49.1804V45.1612H48.206ZM48.206 48.378C48.206 48.6741 47.9643 48.9159 47.6681 48.9159V49.8902C48.5024 49.8902 49.1804 49.2122 49.1804 48.378H48.206ZM47.6681 48.9159H46.5003V49.8902H47.6681V48.9159ZM46.0308 49.273C45.8264 50.011 45.5328 50.7192 45.1556 51.3833L46.0028 51.8645C46.4198 51.1305 46.7441 50.3479 46.9698 49.5331L46.0308 49.273ZM45.2347 51.9684L46.0613 52.7949L46.7503 52.1059L45.9237 51.2794L45.2347 51.9684ZM46.0613 52.7949C46.2707 53.0043 46.2707 53.346 46.0613 53.5554L46.7503 54.2444C47.3402 53.6545 47.3402 52.6958 46.7503 52.1059L46.0613 52.7949ZM46.0613 53.5554L43.7866 55.8302L44.4755 56.5191L46.7503 54.2444L46.0613 53.5554ZM43.7863 55.8304C43.5777 56.0394 43.2359 56.0397 43.0258 55.8299L42.3374 56.5194C42.9265 57.1076 43.8852 57.1104 44.4758 56.5189L43.7863 55.8304ZM43.0261 55.8302L42.1995 55.0036L41.5105 55.6926L42.3371 56.5191L43.0261 55.8302ZM41.6146 54.9244C40.9484 55.3024 40.2408 55.5959 39.5043 55.7996L39.7641 56.7387C40.578 56.5136 41.3598 56.1892 42.0955 55.7718L41.6146 54.9244ZM39.147 56.2692V57.437H40.1214V56.2692H39.147ZM39.147 57.437C39.147 57.7327 38.9056 57.9743 38.6091 57.9743V58.9486C39.443 58.9486 40.1214 58.2716 40.1214 57.437H39.147ZM32.0922 55.1052C32.0637 55.1052 32.0348 55.0974 32.0098 55.0825L32.5096 54.2461C32.3805 54.169 32.2362 54.1308 32.0922 54.1308V55.1052ZM32.0083 55.0816C32.8302 55.5767 33.7203 55.9456 34.6532 56.1774L34.8882 55.2318C34.0495 55.0234 33.2497 54.6919 32.5111 54.247L32.0083 55.0816ZM34.6528 56.1773C34.5808 56.1593 34.53 56.0945 34.53 56.0199H35.5043C35.5043 55.6471 35.2505 55.3222 34.8886 55.2319L34.6528 56.1773ZM34.53 56.0199V57.437H35.5043V56.0199H34.53ZM34.53 57.437C34.53 57.9134 34.9171 58.299 35.3924 58.299V57.3247C35.4541 57.3247 35.5043 57.3742 35.5043 57.437H34.53ZM35.3924 58.299H38.6091V57.3247H35.3924V58.299ZM38.6091 58.299C39.0839 58.299 39.4718 57.9139 39.4718 57.437H38.4975C38.4975 57.3736 38.5479 57.3247 38.6091 57.3247V58.299ZM39.4718 57.437V56.0186H38.4975V57.437H39.4718ZM39.4718 56.0186C39.4718 56.093 39.4212 56.1579 39.3489 56.176L39.1126 55.2307C38.751 55.3211 38.4975 55.646 38.4975 56.0186H39.4718ZM39.3483 56.1761C40.2786 55.9449 41.1679 55.576 41.9914 55.0804L41.489 54.2456C40.7482 54.6914 39.949 55.0228 39.1132 55.2305L39.3483 56.1761ZM41.9899 55.0813C41.9281 55.1183 41.8465 55.11 41.7928 55.0563L42.4818 54.3674C42.2163 54.1018 41.8074 54.0555 41.4905 54.2447L41.9899 55.0813ZM41.7928 55.0563L42.7963 56.0599L43.4853 55.3709L42.4818 54.3674L41.7928 55.0563ZM42.7963 56.0599C43.1306 56.3941 43.6794 56.3997 44.0178 56.0584L43.3258 55.3724C43.3724 55.3254 43.4429 55.3284 43.4853 55.3709L42.7963 56.0599ZM44.0163 56.0599L46.291 53.7851L45.602 53.0961L43.3273 55.3709L44.0163 56.0599ZM46.291 53.7851C46.6278 53.4483 46.6278 52.902 46.291 52.5652L45.602 53.2542C45.5583 53.2105 45.5583 53.1399 45.602 53.0961L46.291 53.7851ZM46.291 52.5652L45.2875 51.5617L44.5985 52.2507L45.602 53.2542L46.291 52.5652ZM45.2875 51.5617C45.34 51.6142 45.3505 51.6955 45.3115 51.7603L44.4768 51.2578C44.2842 51.5776 44.3354 51.9876 44.5985 52.2507L45.2875 51.5617ZM45.3114 51.7606C45.8065 50.9393 46.1754 50.0498 46.4073 49.1171L45.4617 48.8821C45.2533 49.7205 44.9218 50.5196 44.4769 51.2575L45.3114 51.7606ZM46.4071 49.1178C46.389 49.1901 46.3241 49.2407 46.2497 49.2407V48.2663C45.8772 48.2663 45.5522 48.5199 45.4618 48.8815L46.4071 49.1178ZM46.2497 49.2407H47.6681V48.2663H46.2497V49.2407ZM47.6681 49.2407C48.144 49.2407 48.5308 48.8538 48.5308 48.378H47.5565C47.5565 48.3157 47.6059 48.2663 47.6681 48.2663V49.2407ZM48.5308 48.378V45.1612H47.5565V48.378H48.5308ZM48.5308 45.1612C48.5308 44.6848 48.1437 44.2985 47.6681 44.2985V45.2729C47.6061 45.2729 47.5565 45.2235 47.5565 45.1612H48.5308ZM47.6681 44.2985H46.2516V45.2729H47.6681V44.2985ZM46.2516 44.2985C46.3263 44.2985 46.3911 44.3494 46.4091 44.4214L45.4637 44.6572C45.5539 45.019 45.8788 45.2729 46.2516 45.2729V44.2985ZM46.4092 44.4218C46.178 43.4909 45.8091 42.601 45.3135 41.7771L44.4786 42.2794C44.9244 43.0204 45.2558 43.8203 45.4636 44.6567L46.4092 44.4218ZM45.3137 41.7774C45.3522 41.8415 45.342 41.923 45.2894 41.9756L44.6004 41.2866C44.3372 41.5499 44.2864 41.9593 44.4784 42.279L45.3137 41.7774ZM45.2894 41.9756L46.291 40.974L45.602 40.285L44.6004 41.2866L45.2894 41.9756ZM46.2918 40.9733C46.6258 40.6378 46.6291 40.0914 46.2906 39.7537L45.6024 40.4434C45.557 40.3982 45.5591 40.3282 45.6013 40.2858L46.2918 40.9733ZM46.291 39.7541L44.0163 37.4793L43.3273 38.1683L45.602 40.4431L46.291 39.7541ZM44.0166 37.4797C43.6787 37.141 43.1305 37.1445 42.796 37.4797L43.4857 38.1679C43.4417 38.212 43.3718 38.2129 43.3269 38.1679L44.0166 37.4797ZM42.7963 37.4794L41.794 38.482L42.4831 39.1708L43.4854 38.1683L42.7963 37.4794ZM41.7956 38.4804C41.8459 38.4306 41.9277 38.4182 41.9935 38.458L41.4895 39.2919C41.8103 39.4858 42.2181 39.4335 42.4815 39.1724L41.7956 38.4804ZM41.9925 38.4574C41.1709 37.9634 40.2816 37.5946 39.3484 37.3625L39.1132 38.308C39.9522 38.5167 40.7516 38.8482 41.4905 39.2925L41.9925 38.4574ZM39.3489 37.3626C39.4212 37.3807 39.4718 37.4456 39.4718 37.52H38.4975C38.4975 37.8925 38.751 38.2175 39.1126 38.3079L39.3489 37.3626ZM39.4718 37.52V36.1022H38.4975V37.52H39.4718ZM39.4718 36.1022C39.4718 35.6258 39.0844 35.2398 38.6091 35.2398V36.2142C38.5474 36.2142 38.4975 36.165 38.4975 36.1022H39.4718ZM38.6091 35.2398H35.3924V36.2142H38.6091V35.2398ZM35.3924 35.2398C34.9165 35.2398 34.53 35.6264 34.53 36.1022H35.5043C35.5043 36.1645 35.4546 36.2142 35.3924 36.2142V35.2398ZM34.53 36.1022V37.5187H35.5043V36.1022H34.53ZM34.53 37.5187C34.53 37.4436 34.5812 37.3792 34.6526 37.3613L34.8889 38.3066C35.2495 38.2165 35.5043 37.8926 35.5043 37.5187H34.53ZM34.6534 37.3611C33.7204 37.5926 32.8304 37.9611 32.0077 38.4558L32.5098 39.2909C33.2494 38.8461 34.0493 38.5149 34.888 38.3068L34.6534 37.3611ZM32.0067 38.4564C32.0701 38.4181 32.1532 38.4271 32.2072 38.4814L31.5161 39.1683C31.7813 39.435 32.1924 39.4827 32.5108 39.2903L32.0067 38.4564ZM32.2061 38.4803L31.2051 37.4793L30.5162 38.1683L31.5172 39.1693L32.2061 38.4803ZM31.2051 37.4793C30.8684 37.1426 30.322 37.1426 29.9852 37.4793L30.6742 38.1683C30.6305 38.212 30.5599 38.212 30.5162 38.1683L31.2051 37.4793ZM29.9852 37.4794L27.7108 39.7541L28.3998 40.443L30.6742 38.1683L29.9852 37.4794ZM27.7108 39.7541C27.3741 40.0908 27.3747 40.6371 27.7104 40.9736L28.4001 40.2854C28.4435 40.3288 28.444 40.3988 28.3998 40.4431L27.7108 39.7541ZM27.7108 40.974L28.7115 41.9747L29.4004 41.2857L28.3998 40.285L27.7108 40.974ZM28.712 41.9752C28.6585 41.9218 28.6491 41.8399 28.6871 41.7765L29.5225 42.2781C29.7141 41.959 29.6647 41.5491 29.3999 41.2852L28.712 41.9752ZM28.6873 41.7762C28.1926 42.5986 27.8241 43.4886 27.5923 44.4218L28.5379 44.6567C28.7464 43.8176 29.0776 43.0177 29.5223 42.2784L28.6873 41.7762ZM27.5924 44.4213C27.6104 44.3494 27.6752 44.2985 27.7498 44.2985V45.2729C28.1226 45.2729 28.4475 45.019 28.5378 44.6572L27.5924 44.4213ZM27.7498 44.2985H26.3337V45.2729H27.7498V44.2985ZM26.3337 44.2985C25.8575 44.2985 25.471 44.6851 25.471 45.1612H26.4453C26.4453 45.2232 26.3956 45.2729 26.3337 45.2729V44.2985ZM25.471 45.1612V48.378H26.4453V45.1612H25.471ZM25.471 48.378C25.471 48.8536 25.8572 49.2407 26.3337 49.2407V48.2663C26.3959 48.2663 26.4453 48.316 26.4453 48.378H25.471ZM26.3337 49.2407H27.7514V48.2663H26.3337V49.2407ZM27.7514 49.2407C27.677 49.2407 27.6121 49.1901 27.5941 49.1178L28.5393 48.8815C28.4489 48.5199 28.124 48.2663 27.7514 48.2663V49.2407ZM27.5939 49.1172C27.8257 50.049 28.1938 50.939 28.689 51.7616L29.5238 51.2591C29.0788 50.5199 28.7479 49.7201 28.5395 48.882L27.5939 49.1172ZM28.6885 51.7607C28.6509 51.698 28.6599 51.6159 28.7136 51.5624L29.4015 52.2524C29.6664 51.9883 29.7154 51.579 29.5243 51.26L28.6885 51.7607ZM28.7131 51.5629L27.7108 52.5652L28.3998 53.2542L29.402 52.2519L28.7131 51.5629ZM27.7104 52.5656C27.3745 52.9023 27.3745 53.448 27.7104 53.7847L28.4001 53.0965C28.4437 53.1402 28.4437 53.2102 28.4001 53.2538L27.7104 52.5656ZM27.7108 53.7851L29.9852 56.0598L30.6742 55.3709L28.3998 53.0962L27.7108 53.7851ZM29.986 56.0606C30.3226 56.3958 30.8678 56.3958 31.2044 56.0606L30.5169 55.3701C30.5605 55.3268 30.6299 55.3268 30.6734 55.3701L29.986 56.0606ZM31.2052 56.0598L32.2071 55.0576L31.518 54.3687L30.5161 55.3709L31.2052 56.0598ZM32.2079 55.0567C32.1756 55.0892 32.133 55.1052 32.0922 55.1052V54.1308C31.8834 54.1308 31.6745 54.2114 31.5172 54.3695L32.2079 55.0567ZM36.9874 51.4361C35.7527 51.4361 34.5902 50.9609 33.6969 50.0672L33.0078 50.7561C34.0841 51.8327 35.4945 52.4105 36.9874 52.4105V51.4361ZM33.6968 50.0671C32.5856 48.9563 32.118 47.4245 32.4164 45.8512L31.4591 45.6696C31.1016 47.5541 31.6648 49.4134 33.0079 50.7562L33.6968 50.0671ZM32.4164 45.8512C32.7657 44.0097 34.2409 42.5346 36.0823 42.1853L35.9007 41.228C33.6659 41.6519 31.8831 43.4347 31.4591 45.6696L32.4164 45.8512ZM36.0824 42.1853C37.6561 41.8865 39.1874 42.3544 40.299 43.4657L40.9879 42.7767C39.6446 41.4337 37.7859 40.8702 35.9007 41.228L36.0824 42.1853ZM40.299 43.4657C41.4099 44.5766 41.8778 46.1082 41.5794 47.6814L42.5367 47.863C42.8941 45.9784 42.3306 44.1194 40.9879 42.7767L40.299 43.4657ZM41.5794 47.6814C41.2303 49.5229 39.7552 50.9986 37.9131 51.3482L38.0948 52.3055C40.3303 51.8812 42.1131 50.0977 42.5367 47.8629L41.5794 47.6814ZM37.9131 51.3482C37.6019 51.4073 37.2919 51.4361 36.9874 51.4361V52.4105C37.3534 52.4105 37.7241 52.3759 38.0948 52.3055L37.9131 51.3482ZM37.0049 41.7729C36.6796 41.7729 36.3512 41.8037 36.022 41.8661L36.2033 42.8234C36.4736 42.7722 36.7414 42.7473 37.0049 42.7473V41.7729ZM36.0218 41.8661C34.0468 42.2409 32.4717 43.816 32.0973 45.7908L33.0546 45.9723C33.3544 44.391 34.6218 43.1236 36.2035 42.8234L36.0218 41.8661ZM32.0973 45.7907C31.7804 47.4605 32.2783 49.1081 33.4671 50.2969L34.1561 49.6079C33.1996 48.6514 32.7967 47.3315 33.0545 45.9723L32.0973 45.7907ZM33.467 50.2968C34.6563 51.4868 36.3042 51.9813 37.9734 51.6675L37.7934 50.7099C36.4324 50.9658 35.1122 50.5646 34.1562 49.608L33.467 50.2968ZM37.9743 51.6674C39.949 51.2926 41.5244 49.7172 41.8985 47.7423L40.9412 47.561C40.6417 49.1422 39.374 50.4099 37.7926 50.7101L37.9743 51.6674ZM41.8985 47.7424C42.2153 46.0724 41.7175 44.4245 40.5286 43.2359L39.8397 43.925C40.7961 44.8811 41.1991 46.2013 40.9412 47.5609L41.8985 47.7424ZM40.5286 43.2359C39.5762 42.2839 38.3269 41.7729 37.0049 41.7729V42.7473C38.0692 42.7473 39.0705 43.1561 39.8398 43.925L40.5286 43.2359Z" fill="#D4F941" mask="url(#path-3-outside-1_3711_10288)"/>
</g>
<defs>
<clipPath id="clip0_3711_10288">
<rect width="25.3333" height="25.3333" fill="white" transform="translate(24.334 34.1025)"/>
</clipPath>
</defs>
</svg>
