<svg width="76" height="76" viewBox="0 0 76 76" fill="none" xmlns="http://www.w3.org/2000/svg">
<path d="M3.46793 31.8294C3.23261 31.4983 3.4693 31.0397 3.87546 31.0397H72.1245C72.5307 31.0397 72.7674 31.4983 72.5321 31.8294L61.2265 47.7341C61.1327 47.8661 60.9808 47.9444 60.8189 47.9444H15.1811C15.0192 47.9444 14.8673 47.8661 14.7735 47.7341L3.46793 31.8294Z" stroke="#5648FF" stroke-width="3"/>
<path d="M62.8658 4.06282C63.3049 3.39916 64.0476 3 64.8434 3C66.7428 3 67.8714 5.12172 66.8097 6.69673L56.158 22.4983C55.7325 23.1295 55.021 23.5079 54.2597 23.5079C52.4349 23.5079 51.3436 21.4773 52.3505 19.9554L62.8658 4.06282Z" fill="white"/>
<circle cx="19" cy="63.0635" r="10" fill="#D4F941"/>
<circle cx="57" cy="63.0635" r="10" fill="#D4F941"/>
</svg>
