<svg width="76" height="76" viewBox="0 0 76 76" fill="none" xmlns="http://www.w3.org/2000/svg">
<g clip-path="url(#clip0_3711_10256)">
<circle cx="38" cy="38" r="29" stroke="white" stroke-width="2"/>
<rect width="24.4286" height="24.4286" transform="translate(0 25.1069)" fill="#0D2259"/>
<mask id="path-2-outside-1_3711_10256" maskUnits="userSpaceOnUse" x="3.07227" y="28.1787" width="18" height="18" fill="black">
<rect fill="white" x="3.07227" y="28.1787" width="18" height="18"/>
<path d="M13.3351 45.464H11.0949C10.7013 45.464 10.3812 45.1441 10.3812 44.7505V43.9381C9.84005 43.7883 9.32074 43.5736 8.83302 43.2966L8.25872 43.8714C7.9804 44.1497 7.52759 44.1497 7.24927 43.8714L5.6653 42.2872C5.38698 42.0089 5.38698 41.5561 5.6653 41.2777L6.24004 40.703C5.96349 40.2153 5.74857 39.6958 5.59903 39.1555H4.78617C4.39255 39.1555 4.07227 38.8352 4.07227 38.4416V36.2013C4.07227 35.8077 4.39255 35.4874 4.78617 35.4874H5.59793C5.74747 34.946 5.96239 34.4265 6.23894 33.9388L5.6653 33.3652C5.38698 33.0866 5.3872 32.6338 5.6653 32.3557L7.24927 30.7715C7.52759 30.4932 7.9804 30.4932 8.25872 30.7715L8.83258 31.3452C9.32052 31.0686 9.84004 30.8537 10.3812 30.7044V29.8924C10.3812 29.4988 10.7013 29.1787 11.0949 29.1787H13.3351C13.7287 29.1787 14.049 29.4988 14.049 29.8924V30.7053C14.5902 30.855 15.1093 31.0702 15.5966 31.3463L16.1713 30.7715C16.4496 30.4939 16.9024 30.493 17.1808 30.7715L18.7649 32.3557C19.0433 32.6338 19.0433 33.0866 18.7649 33.3652L18.1906 33.9395C18.4676 34.4281 18.6828 34.9474 18.8321 35.4874H19.6441C20.0377 35.4874 20.358 35.8077 20.358 36.2013V38.4416C20.358 38.8352 20.0377 39.1555 19.6441 39.1555H18.8308C18.681 39.6962 18.4659 40.2153 18.1893 40.7021L18.7649 41.2777C19.0433 41.5561 19.0433 42.0089 18.7649 42.2872L17.1808 43.8714C16.9024 44.1502 16.4496 44.1493 16.1713 43.8714L15.5957 43.2958C15.1075 43.5728 14.5889 43.7879 14.049 43.9372V44.7505C14.049 45.1441 13.7287 45.464 13.3351 45.464ZM8.79658 42.7873C8.83678 42.7873 8.87698 42.7979 8.91321 42.8195C9.45659 43.1469 10.045 43.3907 10.662 43.544C10.7629 43.5692 10.8336 43.6598 10.8336 43.7636V44.7505C10.8336 44.8945 10.9509 45.0116 11.0949 45.0116H13.3351C13.4791 45.0116 13.5967 44.8945 13.5967 44.7505V43.7627C13.5967 43.6589 13.6673 43.5683 13.7681 43.5432C14.383 43.3903 14.971 43.1464 15.5157 42.8186C15.6045 42.7656 15.7185 42.7789 15.7923 42.8527L16.4911 43.5515C16.5928 43.6532 16.7593 43.654 16.8609 43.5515L18.4451 41.9674C18.5472 41.8653 18.5472 41.6996 18.4451 41.5976L17.7462 40.8987C17.6729 40.8254 17.6588 40.711 17.7122 40.6222C18.0396 40.0792 18.2834 39.4912 18.4367 38.8745C18.4619 38.7738 18.5525 38.7031 18.6563 38.7031H19.6441C19.7881 38.7031 19.9056 38.5856 19.9056 38.4416V36.2013C19.9056 36.0571 19.7881 35.9398 19.6441 35.9398H18.6576C18.5538 35.9398 18.4632 35.8691 18.438 35.7682C18.2852 35.1528 18.0413 34.5644 17.7135 34.0194C17.6601 33.9304 17.6742 33.8162 17.7475 33.7429L18.4451 33.0453C18.5467 32.9433 18.5472 32.7774 18.4451 32.6756L16.8609 31.0914C16.7589 30.9891 16.5923 30.99 16.4911 31.0914L15.7931 31.7896C15.7189 31.8631 15.6054 31.8771 15.5166 31.8234C14.9732 31.4967 14.3852 31.2528 13.7681 31.0993C13.6673 31.0741 13.5967 30.9836 13.5967 30.8798V29.8924C13.5967 29.7484 13.4791 29.6311 13.3351 29.6311H11.0949C10.9509 29.6311 10.8336 29.7484 10.8336 29.8924V30.8789C10.8336 30.9829 10.7627 31.0733 10.662 31.0984C10.045 31.2515 9.45659 31.4951 8.91254 31.8223C8.82375 31.876 8.70955 31.8625 8.63599 31.7885L7.93888 31.0914C7.83683 30.9893 7.67116 30.9893 7.56911 31.0914L5.98514 32.6756C5.88331 32.7774 5.88331 32.9433 5.98514 33.0453L6.68204 33.7422C6.75559 33.8156 6.76951 33.9297 6.71605 34.0188C6.38892 34.5626 6.14528 35.151 5.99199 35.7682C5.96681 35.8691 5.87624 35.9398 5.77243 35.9398H4.78617C4.64193 35.9398 4.52464 36.0571 4.52464 36.2013V38.4416C4.52464 38.5856 4.64193 38.7031 4.78617 38.7031H5.77353C5.87735 38.7031 5.96791 38.7738 5.99309 38.8745C6.14639 39.4908 6.3898 40.0792 6.71716 40.623C6.77061 40.7123 6.7567 40.8263 6.68314 40.8996L5.98514 41.5976C5.88331 41.6996 5.88331 41.8653 5.98514 41.9674L7.56911 43.5515C7.67116 43.6532 7.83683 43.6532 7.93888 43.5515L8.63666 42.8535C8.68017 42.8098 8.73804 42.7873 8.79658 42.7873ZM12.2057 40.9106C11.2559 40.9106 10.36 40.544 9.67416 39.8579C8.81955 39.0035 8.46061 37.8226 8.68901 36.6186C8.95827 35.1992 10.0927 34.0647 11.5122 33.7955C12.7166 33.5668 13.8971 33.926 14.7519 34.7806C15.6063 35.635 15.9654 36.8156 15.737 38.0197C15.468 39.4391 14.3335 40.574 12.9137 40.8435C12.6762 40.8885 12.4392 40.9106 12.2057 40.9106ZM12.2179 34.1809C12.0129 34.1809 11.8053 34.2003 11.5965 34.2399C10.358 34.4749 9.36823 35.4647 9.13343 36.703C8.93331 37.7577 9.24697 38.791 9.994 39.538C10.741 40.2855 11.7746 40.5974 12.8297 40.3991C14.068 40.164 15.058 39.174 15.2926 37.9357C15.4927 36.8808 15.1791 35.8473 14.432 35.1004C13.8326 34.5012 13.0489 34.1809 12.2179 34.1809Z"/>
</mask>
<path d="M13.3351 45.464H11.0949C10.7013 45.464 10.3812 45.1441 10.3812 44.7505V43.9381C9.84005 43.7883 9.32074 43.5736 8.83302 43.2966L8.25872 43.8714C7.9804 44.1497 7.52759 44.1497 7.24927 43.8714L5.6653 42.2872C5.38698 42.0089 5.38698 41.5561 5.6653 41.2777L6.24004 40.703C5.96349 40.2153 5.74857 39.6958 5.59903 39.1555H4.78617C4.39255 39.1555 4.07227 38.8352 4.07227 38.4416V36.2013C4.07227 35.8077 4.39255 35.4874 4.78617 35.4874H5.59793C5.74747 34.946 5.96239 34.4265 6.23894 33.9388L5.6653 33.3652C5.38698 33.0866 5.3872 32.6338 5.6653 32.3557L7.24927 30.7715C7.52759 30.4932 7.9804 30.4932 8.25872 30.7715L8.83258 31.3452C9.32052 31.0686 9.84004 30.8537 10.3812 30.7044V29.8924C10.3812 29.4988 10.7013 29.1787 11.0949 29.1787H13.3351C13.7287 29.1787 14.049 29.4988 14.049 29.8924V30.7053C14.5902 30.855 15.1093 31.0702 15.5966 31.3463L16.1713 30.7715C16.4496 30.4939 16.9024 30.493 17.1808 30.7715L18.7649 32.3557C19.0433 32.6338 19.0433 33.0866 18.7649 33.3652L18.1906 33.9395C18.4676 34.4281 18.6828 34.9474 18.8321 35.4874H19.6441C20.0377 35.4874 20.358 35.8077 20.358 36.2013V38.4416C20.358 38.8352 20.0377 39.1555 19.6441 39.1555H18.8308C18.681 39.6962 18.4659 40.2153 18.1893 40.7021L18.7649 41.2777C19.0433 41.5561 19.0433 42.0089 18.7649 42.2872L17.1808 43.8714C16.9024 44.1502 16.4496 44.1493 16.1713 43.8714L15.5957 43.2958C15.1075 43.5728 14.5889 43.7879 14.049 43.9372V44.7505C14.049 45.1441 13.7287 45.464 13.3351 45.464ZM8.79658 42.7873C8.83678 42.7873 8.87698 42.7979 8.91321 42.8195C9.45659 43.1469 10.045 43.3907 10.662 43.544C10.7629 43.5692 10.8336 43.6598 10.8336 43.7636V44.7505C10.8336 44.8945 10.9509 45.0116 11.0949 45.0116H13.3351C13.4791 45.0116 13.5967 44.8945 13.5967 44.7505V43.7627C13.5967 43.6589 13.6673 43.5683 13.7681 43.5432C14.383 43.3903 14.971 43.1464 15.5157 42.8186C15.6045 42.7656 15.7185 42.7789 15.7923 42.8527L16.4911 43.5515C16.5928 43.6532 16.7593 43.654 16.8609 43.5515L18.4451 41.9674C18.5472 41.8653 18.5472 41.6996 18.4451 41.5976L17.7462 40.8987C17.6729 40.8254 17.6588 40.711 17.7122 40.6222C18.0396 40.0792 18.2834 39.4912 18.4367 38.8745C18.4619 38.7738 18.5525 38.7031 18.6563 38.7031H19.6441C19.7881 38.7031 19.9056 38.5856 19.9056 38.4416V36.2013C19.9056 36.0571 19.7881 35.9398 19.6441 35.9398H18.6576C18.5538 35.9398 18.4632 35.8691 18.438 35.7682C18.2852 35.1528 18.0413 34.5644 17.7135 34.0194C17.6601 33.9304 17.6742 33.8162 17.7475 33.7429L18.4451 33.0453C18.5467 32.9433 18.5472 32.7774 18.4451 32.6756L16.8609 31.0914C16.7589 30.9891 16.5923 30.99 16.4911 31.0914L15.7931 31.7896C15.7189 31.8631 15.6054 31.8771 15.5166 31.8234C14.9732 31.4967 14.3852 31.2528 13.7681 31.0993C13.6673 31.0741 13.5967 30.9836 13.5967 30.8798V29.8924C13.5967 29.7484 13.4791 29.6311 13.3351 29.6311H11.0949C10.9509 29.6311 10.8336 29.7484 10.8336 29.8924V30.8789C10.8336 30.9829 10.7627 31.0733 10.662 31.0984C10.045 31.2515 9.45659 31.4951 8.91254 31.8223C8.82375 31.876 8.70955 31.8625 8.63599 31.7885L7.93888 31.0914C7.83683 30.9893 7.67116 30.9893 7.56911 31.0914L5.98514 32.6756C5.88331 32.7774 5.88331 32.9433 5.98514 33.0453L6.68204 33.7422C6.75559 33.8156 6.76951 33.9297 6.71605 34.0188C6.38892 34.5626 6.14528 35.151 5.99199 35.7682C5.96681 35.8691 5.87624 35.9398 5.77243 35.9398H4.78617C4.64193 35.9398 4.52464 36.0571 4.52464 36.2013V38.4416C4.52464 38.5856 4.64193 38.7031 4.78617 38.7031H5.77353C5.87735 38.7031 5.96791 38.7738 5.99309 38.8745C6.14639 39.4908 6.3898 40.0792 6.71716 40.623C6.77061 40.7123 6.7567 40.8263 6.68314 40.8996L5.98514 41.5976C5.88331 41.6996 5.88331 41.8653 5.98514 41.9674L7.56911 43.5515C7.67116 43.6532 7.83683 43.6532 7.93888 43.5515L8.63666 42.8535C8.68017 42.8098 8.73804 42.7873 8.79658 42.7873ZM12.2057 40.9106C11.2559 40.9106 10.36 40.544 9.67416 39.8579C8.81955 39.0035 8.46061 37.8226 8.68901 36.6186C8.95827 35.1992 10.0927 34.0647 11.5122 33.7955C12.7166 33.5668 13.8971 33.926 14.7519 34.7806C15.6063 35.635 15.9654 36.8156 15.737 38.0197C15.468 39.4391 14.3335 40.574 12.9137 40.8435C12.6762 40.8885 12.4392 40.9106 12.2057 40.9106ZM12.2179 34.1809C12.0129 34.1809 11.8053 34.2003 11.5965 34.2399C10.358 34.4749 9.36823 35.4647 9.13343 36.703C8.93331 37.7577 9.24697 38.791 9.994 39.538C10.741 40.2855 11.7746 40.5974 12.8297 40.3991C14.068 40.164 15.058 39.174 15.2926 37.9357C15.4927 36.8808 15.1791 35.8473 14.432 35.1004C13.8326 34.5012 13.0489 34.1809 12.2179 34.1809Z" fill="#5648FF"/>
<path d="M12.8717 40.7909H12.8761V40.4516H12.8717V40.7909ZM10.3812 43.9381H10.7205V43.68L10.4717 43.6111L10.3812 43.9381ZM8.83302 43.2966L9.00058 43.0016L8.77577 42.8739L8.59302 43.0568L8.83302 43.2966ZM8.25872 43.8714L8.49863 44.1113L8.49872 44.1112L8.25872 43.8714ZM7.24927 43.8714L7.00934 44.1113L7.00936 44.1113L7.24927 43.8714ZM5.6653 42.2872L5.90522 42.0473L5.90521 42.0473L5.6653 42.2872ZM5.6653 41.2777L5.42539 41.0378H5.42539L5.6653 41.2777ZM6.24004 40.703L6.47995 40.9429L6.66257 40.7603L6.53518 40.5356L6.24004 40.703ZM5.59903 39.1555L5.92602 39.065L5.85717 38.8162H5.59903V39.1555ZM4.78617 39.1555V38.8162H4.78617L4.78617 39.1555ZM5.59793 35.4874V35.8267H5.8562L5.92497 35.5778L5.59793 35.4874ZM6.23894 33.9388L6.53408 34.1062L6.66146 33.8815L6.47885 33.6989L6.23894 33.9388ZM5.6653 33.3652L5.42529 33.605L5.42539 33.6051L5.6653 33.3652ZM5.6653 32.3557L5.90521 32.5956L5.90522 32.5956L5.6653 32.3557ZM7.24927 30.7715L7.00936 30.5316L7.00934 30.5316L7.24927 30.7715ZM8.25872 30.7715L8.01881 31.0114L8.01886 31.0115L8.25872 30.7715ZM8.83258 31.3452L8.59272 31.5851L8.77529 31.7676L8.99988 31.6403L8.83258 31.3452ZM10.3812 30.7044L10.4715 31.0314L10.7205 30.9627V30.7044H10.3812ZM14.049 30.7053H13.7097V30.9634L13.9585 31.0323L14.049 30.7053ZM15.5966 31.3463L15.4293 31.6415L15.6539 31.7687L15.8365 31.5862L15.5966 31.3463ZM16.1713 30.7715L15.9317 30.5313L15.9314 30.5316L16.1713 30.7715ZM17.1808 30.7715L16.9407 31.0113L16.9408 31.0114L17.1808 30.7715ZM18.7649 32.3557L18.525 32.5956L18.5251 32.5957L18.7649 32.3557ZM18.7649 33.3652L19.0049 33.6051L19.005 33.605L18.7649 33.3652ZM18.1906 33.9395L17.9507 33.6996L17.7681 33.8822L17.8955 34.1068L18.1906 33.9395ZM18.8321 35.4874L18.5051 35.5779L18.5739 35.8267H18.8321V35.4874ZM19.6441 35.4874V35.1482V35.4874ZM18.8308 39.1555V38.8162H18.5727L18.5038 39.0649L18.8308 39.1555ZM18.1893 40.7021L17.8943 40.5345L17.7666 40.7593L17.9494 40.942L18.1893 40.7021ZM18.7649 42.2872L19.0049 42.5271H19.0049L18.7649 42.2872ZM17.1808 43.8714L16.9408 43.6315L16.9407 43.6317L17.1808 43.8714ZM16.1713 43.8714L15.9314 44.1113L15.9316 44.1115L16.1713 43.8714ZM15.5957 43.2958L15.8356 43.0559L15.6529 42.8732L15.4282 43.0007L15.5957 43.2958ZM14.049 43.9372L13.9586 43.6102L13.7097 43.679V43.9372H14.049ZM8.91321 42.8195L9.08829 42.5289L9.08724 42.5283L8.91321 42.8195ZM10.662 43.544L10.7441 43.2148L10.7438 43.2148L10.662 43.544ZM13.7681 43.5432L13.6862 43.2139L13.6858 43.214L13.7681 43.5432ZM15.5157 42.8186L15.3418 42.5273L15.3408 42.5279L15.5157 42.8186ZM15.7923 42.8527L16.0322 42.6128L15.7923 42.8527ZM16.4911 43.5515L16.2512 43.7915L16.2512 43.7915L16.4911 43.5515ZM16.8609 43.5515L16.621 43.3116L16.62 43.3127L16.8609 43.5515ZM18.4451 41.9674L18.685 42.2073L18.4451 41.9674ZM17.7462 40.8987L17.9861 40.6588L17.9861 40.6588L17.7462 40.8987ZM17.7122 40.6222L17.4216 40.447L17.4215 40.4472L17.7122 40.6222ZM18.4367 38.8745L18.1076 38.7922L18.1074 38.7927L18.4367 38.8745ZM18.438 35.7682L18.1088 35.85L18.1088 35.8503L18.438 35.7682ZM17.7135 34.0194L17.4227 34.1941L17.4228 34.1943L17.7135 34.0194ZM17.7475 33.7429L17.9875 33.9828V33.9828L17.7475 33.7429ZM18.4451 33.0453L18.685 33.2852L18.6855 33.2847L18.4451 33.0453ZM18.4451 32.6756L18.2052 32.9155L18.2055 32.9157L18.4451 32.6756ZM16.8609 31.0914L16.6207 31.331L16.621 31.3313L16.8609 31.0914ZM16.4911 31.0914L16.7311 31.3312L16.7313 31.331L16.4911 31.0914ZM15.7931 31.7896L16.032 32.0306L16.0331 32.0295L15.7931 31.7896ZM15.5166 31.8234L15.6921 31.533L15.6914 31.5326L15.5166 31.8234ZM13.7681 31.0993L13.6858 31.4285L13.6862 31.4286L13.7681 31.0993ZM10.662 31.0984L10.7437 31.4277L10.7443 31.4276L10.662 31.0984ZM8.91254 31.8223L8.7377 31.5315L8.73703 31.5319L8.91254 31.8223ZM8.63599 31.7885L8.87662 31.5493L8.87591 31.5486L8.63599 31.7885ZM7.93888 31.0914L7.69897 31.3313L7.93888 31.0914ZM7.56911 31.0914L7.3292 30.8515L7.32919 30.8515L7.56911 31.0914ZM5.98514 32.6756L6.22505 32.9155L6.22507 32.9155L5.98514 32.6756ZM5.98514 33.0453L5.74497 33.285L5.74523 33.2852L5.98514 33.0453ZM6.68204 33.7422L6.44212 33.9821L6.44249 33.9825L6.68204 33.7422ZM6.71605 34.0188L7.00679 34.1937L7.00692 34.1934L6.71605 34.0188ZM5.99199 35.7682L6.32118 35.8503L6.32127 35.85L5.99199 35.7682ZM5.99309 38.8745L6.32234 38.7926L6.32225 38.7922L5.99309 38.8745ZM6.71716 40.623L7.00822 40.4487L7.00784 40.4481L6.71716 40.623ZM6.68314 40.8996L6.44359 40.6593L6.44323 40.6597L6.68314 40.8996ZM5.98514 41.5976L5.74523 41.3577L5.74497 41.3579L5.98514 41.5976ZM5.98514 41.9674L5.74497 42.207L5.74521 42.2072L5.98514 41.9674ZM7.56911 43.5515L7.32919 43.7914L7.32972 43.792L7.56911 43.5515ZM7.93888 43.5515L8.17827 43.792L8.17883 43.7914L7.93888 43.5515ZM8.63666 42.8535L8.87661 43.0934L8.87717 43.0929L8.63666 42.8535ZM9.67416 39.8579L9.91411 39.618L9.91404 39.618L9.67416 39.8579ZM8.68901 36.6186L8.35567 36.5554L8.35567 36.5554L8.68901 36.6186ZM11.5122 33.7955L11.5754 34.1288L11.5754 34.1288L11.5122 33.7955ZM14.7519 34.7806L14.9918 34.5407L14.9918 34.5407L14.7519 34.7806ZM15.737 38.0197L15.4037 37.9564L15.4037 37.9565L15.737 38.0197ZM12.9137 40.8435L12.9769 41.1768L12.9769 41.1768L12.9137 40.8435ZM11.5965 34.2399L11.5334 33.9065L11.5333 33.9065L11.5965 34.2399ZM9.13343 36.703L9.46677 36.7662L9.46678 36.7662L9.13343 36.703ZM9.994 39.538L10.234 39.2982L10.2339 39.2981L9.994 39.538ZM12.8297 40.3991L12.8924 40.7325L12.893 40.7324L12.8297 40.3991ZM15.2926 37.9357L14.9593 37.8725L14.9593 37.8726L15.2926 37.9357ZM14.432 35.1004L14.6719 34.8605L14.6719 34.8605L14.432 35.1004ZM13.3351 45.1247H11.0949V45.8033H13.3351V45.1247ZM11.0949 45.1247C10.8885 45.1247 10.7205 44.9566 10.7205 44.7505H10.0419C10.0419 45.3317 10.514 45.8033 11.0949 45.8033V45.1247ZM10.7205 44.7505V43.9381H10.0419V44.7505H10.7205ZM10.4717 43.6111C9.95716 43.4687 9.46377 43.2647 9.00058 43.0016L8.66547 43.5917C9.17771 43.8826 9.72293 44.108 10.2907 44.2651L10.4717 43.6111ZM8.59302 43.0568L8.01872 43.6316L8.49872 44.1112L9.07303 43.5365L8.59302 43.0568ZM8.01881 43.6315C7.87299 43.7773 7.635 43.7773 7.48918 43.6315L7.00936 44.1113C7.42018 44.5221 8.08782 44.5221 8.49863 44.1113L8.01881 43.6315ZM7.4892 43.6315L5.90522 42.0473L5.42537 42.5271L7.00934 44.1113L7.4892 43.6315ZM5.90521 42.0473C5.75939 41.9015 5.75939 41.6635 5.90521 41.5177L5.42539 41.0378C5.01457 41.4487 5.01457 42.1163 5.42539 42.5271L5.90521 42.0473ZM5.90521 41.5177L6.47995 40.9429L6.00013 40.4631L5.42539 41.0378L5.90521 41.5177ZM6.53518 40.5356C6.27244 40.0723 6.06818 39.5786 5.92602 39.065L5.27204 39.246C5.42896 39.8129 5.65455 40.3583 5.9449 40.8704L6.53518 40.5356ZM5.59903 38.8162H4.78617V39.4948H5.59903V38.8162ZM4.78617 38.8162C4.57993 38.8162 4.41155 38.6478 4.41155 38.4416H3.73298C3.73298 39.0226 4.20517 39.4948 4.78617 39.4948L4.78617 38.8162ZM4.41155 38.4416V36.2013H3.73298V38.4416H4.41155ZM4.41155 36.2013C4.41155 35.9951 4.57993 35.8267 4.78617 35.8267V35.1482C4.20517 35.1482 3.73298 35.6203 3.73298 36.2013H4.41155ZM4.78617 35.8267H5.59793V35.1482H4.78617V35.8267ZM5.92497 35.5778C6.06711 35.0632 6.27135 34.5695 6.53408 34.1062L5.9438 33.7715C5.65343 34.2835 5.42782 34.8289 5.27089 35.3971L5.92497 35.5778ZM6.47885 33.6989L5.90521 33.1253L5.42539 33.6051L5.99903 34.1787L6.47885 33.6989ZM5.9053 33.1253C5.75937 32.9793 5.7596 32.7412 5.90521 32.5956L5.42539 32.1158C5.01481 32.5264 5.01459 33.194 5.42529 33.605L5.9053 33.1253ZM5.90522 32.5956L7.4892 31.0114L7.00934 30.5316L5.42537 32.1158L5.90522 32.5956ZM7.48918 31.0114C7.635 30.8656 7.87299 30.8656 8.01881 31.0114L8.49863 30.5316C8.08782 30.1208 7.42018 30.1208 7.00936 30.5316L7.48918 31.0114ZM8.01886 31.0115L8.59272 31.5851L9.07245 31.1052L8.49859 30.5316L8.01886 31.0115ZM8.99988 31.6403C9.46349 31.3776 9.95713 31.1733 10.4715 31.0314L10.291 30.3773C9.72295 30.534 9.17755 30.7597 8.66529 31.05L8.99988 31.6403ZM10.7205 30.7044V29.8924H10.0419V30.7044H10.7205ZM10.7205 29.8924C10.7205 29.6862 10.8887 29.518 11.0949 29.518V28.8394C10.5139 28.8394 10.0419 29.3114 10.0419 29.8924H10.7205ZM11.0949 29.518H13.3351V28.8394H11.0949V29.518ZM13.3351 29.518C13.5415 29.518 13.7097 29.6863 13.7097 29.8924H14.3883C14.3883 29.3113 13.916 28.8394 13.3351 28.8394V29.518ZM13.7097 29.8924V30.7053H14.3883V29.8924H13.7097ZM13.9585 31.0323C14.4729 31.1746 14.9662 31.3791 15.4293 31.6415L15.7638 31.0511C15.2524 30.7613 14.7075 30.5354 14.1395 30.3783L13.9585 31.0323ZM15.8365 31.5862L16.4112 31.0114L15.9314 30.5316L15.3566 31.1064L15.8365 31.5862ZM16.4109 31.0117C16.5573 30.8657 16.7954 30.8659 16.9407 31.0113L17.4208 30.5317C17.0094 30.1201 16.3419 30.122 15.9317 30.5313L16.4109 31.0117ZM16.9408 31.0114L18.525 32.5956L19.0049 32.1158L17.4207 30.5316L16.9408 31.0114ZM18.5251 32.5957C18.6707 32.7412 18.671 32.9792 18.5249 33.1253L19.005 33.605C19.4155 33.1941 19.4158 32.5264 19.0048 32.1157L18.5251 32.5957ZM18.525 33.1253L17.9507 33.6996L18.4306 34.1794L19.0049 33.6051L18.525 33.1253ZM17.8955 34.1068C18.1588 34.5712 18.3632 35.0647 18.5051 35.5779L19.1591 35.397C19.0024 34.8301 18.7765 34.2849 18.4858 33.7721L17.8955 34.1068ZM18.8321 35.8267H19.6441V35.1482H18.8321V35.8267ZM19.6441 35.8267C19.8503 35.8267 20.0187 35.9951 20.0187 36.2013H20.6973C20.6973 35.6203 20.2251 35.1482 19.6441 35.1482V35.8267ZM20.0187 36.2013V38.4416H20.6973V36.2013H20.0187ZM20.0187 38.4416C20.0187 38.6478 19.8503 38.8162 19.6441 38.8162V39.4948C20.2251 39.4948 20.6973 39.0226 20.6973 38.4416H20.0187ZM19.6441 38.8162H18.8308V39.4948H19.6441V38.8162ZM18.5038 39.0649C18.3614 39.5789 18.157 40.0721 17.8943 40.5345L18.4843 40.8697C18.7747 40.3585 19.0006 39.8135 19.1578 39.246L18.5038 39.0649ZM17.9494 40.942L18.525 41.5177L19.0049 41.0378L18.4292 40.4622L17.9494 40.942ZM18.525 41.5177C18.6709 41.6635 18.6709 41.9015 18.525 42.0473L19.0049 42.5271C19.4157 42.1163 19.4157 41.4487 19.0049 41.0378L18.525 41.5177ZM18.525 42.0473L16.9408 43.6315L17.4207 44.1113L19.0049 42.5271L18.525 42.0473ZM16.9407 43.6317C16.7954 43.7772 16.5574 43.7774 16.411 43.6313L15.9316 44.1115C16.3419 44.5211 17.0095 44.5231 17.4209 44.1111L16.9407 43.6317ZM16.4112 43.6315L15.8356 43.0559L15.3558 43.5357L15.9314 44.1113L16.4112 43.6315ZM15.4282 43.0007C14.9643 43.2639 14.4715 43.4683 13.9586 43.6102L14.1395 44.2642C14.7063 44.1074 15.2508 43.8816 15.7631 43.5909L15.4282 43.0007ZM13.7097 43.9372V44.7505H14.3883V43.9372H13.7097ZM13.7097 44.7505C13.7097 44.9565 13.5416 45.1247 13.3351 45.1247V45.8033C13.9159 45.8033 14.3883 45.3318 14.3883 44.7505H13.7097ZM8.79658 43.1266C8.77671 43.1266 8.75659 43.1212 8.73917 43.1108L9.08724 42.5283C8.99737 42.4746 8.89685 42.448 8.79658 42.448V43.1266ZM8.73812 43.1102C9.31052 43.455 9.93041 43.7119 10.5801 43.8733L10.7438 43.2148C10.1596 43.0696 9.60265 42.8388 9.08829 42.5289L8.73812 43.1102ZM10.5798 43.8732C10.5297 43.8607 10.4943 43.8156 10.4943 43.7636H11.1729C11.1729 43.504 10.9961 43.2777 10.7441 43.2148L10.5798 43.8732ZM10.4943 43.7636V44.7505H11.1729V43.7636H10.4943ZM10.4943 44.7505C10.4943 45.0823 10.7639 45.3509 11.0949 45.3509V44.6723C11.1379 44.6723 11.1729 44.7068 11.1729 44.7505H10.4943ZM11.0949 45.3509H13.3351V44.6723H11.0949V45.3509ZM13.3351 45.3509C13.6658 45.3509 13.9359 45.0827 13.9359 44.7505H13.2574C13.2574 44.7064 13.2925 44.6723 13.3351 44.6723V45.3509ZM13.9359 44.7505V43.7627H13.2574V44.7505H13.9359ZM13.9359 43.7627C13.9359 43.8145 13.9007 43.8597 13.8504 43.8723L13.6858 43.214C13.434 43.277 13.2574 43.5033 13.2574 43.7627H13.9359ZM13.8499 43.8724C14.4978 43.7114 15.1171 43.4545 15.6907 43.1094L15.3408 42.5279C14.8249 42.8384 14.2682 43.0692 13.6862 43.2139L13.8499 43.8724ZM15.6896 43.11C15.6465 43.1357 15.5897 43.13 15.5524 43.0926L16.0322 42.6128C15.8472 42.4278 15.5625 42.3956 15.3418 42.5273L15.6896 43.11ZM15.5524 43.0926L16.2512 43.7915L16.7311 43.3116L16.0322 42.6128L15.5524 43.0926ZM16.2512 43.7915C16.484 44.0242 16.8662 44.0281 17.1019 43.7904L16.62 43.3127C16.6524 43.28 16.7015 43.2821 16.7311 43.3116L16.2512 43.7915ZM17.1008 43.7915L18.685 42.2073L18.2052 41.7274L16.621 43.3116L17.1008 43.7915ZM18.685 42.2073C18.9196 41.9727 18.9196 41.5922 18.685 41.3577L18.2052 41.8375C18.1747 41.8071 18.1747 41.7579 18.2052 41.7274L18.685 42.2073ZM18.685 41.3577L17.9861 40.6588L17.5063 41.1386L18.2052 41.8375L18.685 41.3577ZM17.9861 40.6588C18.0227 40.6954 18.0301 40.752 18.0029 40.7971L17.4215 40.4472C17.2874 40.6699 17.3231 40.9554 17.5063 41.1386L17.9861 40.6588ZM18.0028 40.7973C18.3476 40.2254 18.6045 39.6059 18.766 38.9564L18.1074 38.7927C17.9623 39.3765 17.7315 39.9331 17.4216 40.447L18.0028 40.7973ZM18.7659 38.9568C18.7533 39.0072 18.7081 39.0424 18.6563 39.0424V38.3638C18.3968 38.3638 18.1705 38.5404 18.1076 38.7922L18.7659 38.9568ZM18.6563 39.0424H19.6441V38.3638H18.6563V39.0424ZM19.6441 39.0424C19.9755 39.0424 20.2449 38.773 20.2449 38.4416H19.5663C19.5663 38.3982 19.6007 38.3638 19.6441 38.3638V39.0424ZM20.2449 38.4416V36.2013H19.5663V38.4416H20.2449ZM20.2449 36.2013C20.2449 35.8695 19.9753 35.6005 19.6441 35.6005V36.2791C19.6009 36.2791 19.5663 36.2447 19.5663 36.2013H20.2449ZM19.6441 35.6005H18.6576V36.2791H19.6441V35.6005ZM18.6576 35.6005C18.7096 35.6005 18.7547 35.6359 18.7672 35.6861L18.1088 35.8503C18.1717 36.1023 18.398 36.2791 18.6576 36.2791V35.6005ZM18.7673 35.6864C18.6063 35.0381 18.3494 34.4183 18.0043 33.8445L17.4228 34.1943C17.7332 34.7104 17.9641 35.2675 18.1088 35.85L18.7673 35.6864ZM18.0044 33.8448C18.0312 33.8894 18.0241 33.9461 17.9875 33.9828L17.5076 33.503C17.3243 33.6863 17.2889 33.9714 17.4227 34.1941L18.0044 33.8448ZM17.9875 33.9828L18.685 33.2852L18.2052 32.8054L17.5076 33.503L17.9875 33.9828ZM18.6855 33.2847C18.9181 33.0511 18.9205 32.6706 18.6848 32.4354L18.2055 32.9157C18.1739 32.8842 18.1753 32.8355 18.2047 32.8059L18.6855 33.2847ZM18.685 32.4356L17.1008 30.8515L16.621 31.3313L18.2052 32.9155L18.685 32.4356ZM17.1011 30.8517C16.8657 30.6159 16.484 30.6182 16.251 30.8517L16.7313 31.331C16.7007 31.3617 16.652 31.3623 16.6207 31.331L17.1011 30.8517ZM16.2512 30.8515L15.5532 31.5497L16.0331 32.0295L16.7311 31.3312L16.2512 30.8515ZM15.5543 31.5486C15.5893 31.5139 15.6463 31.5053 15.6921 31.533L15.3411 32.1137C15.5645 32.2488 15.8486 32.2124 16.032 32.0306L15.5543 31.5486ZM15.6914 31.5326C15.1192 31.1886 14.4999 30.9317 13.85 30.7701L13.6862 31.4286C14.2705 31.5739 14.8272 31.8048 15.3418 32.1142L15.6914 31.5326ZM13.8504 30.7702C13.9007 30.7828 13.9359 30.8279 13.9359 30.8798H13.2574C13.2574 31.1392 13.434 31.3655 13.6858 31.4285L13.8504 30.7702ZM13.9359 30.8798V29.8924H13.2574V30.8798H13.9359ZM13.9359 29.8924C13.9359 29.5606 13.6662 29.2918 13.3351 29.2918V29.9704C13.2921 29.9704 13.2574 29.9361 13.2574 29.8924H13.9359ZM13.3351 29.2918H11.0949V29.9704H13.3351V29.2918ZM11.0949 29.2918C10.7635 29.2918 10.4943 29.561 10.4943 29.8924H11.1729C11.1729 29.9358 11.1383 29.9704 11.0949 29.9704V29.2918ZM10.4943 29.8924V30.8789H11.1729V29.8924H10.4943ZM10.4943 30.8789C10.4943 30.8266 10.53 30.7817 10.5797 30.7693L10.7443 31.4276C10.9954 31.3648 11.1729 31.1392 11.1729 30.8789H10.4943ZM10.5803 30.7691C9.9305 30.9304 9.31067 31.187 8.73771 31.5315L9.08738 32.113C9.6025 31.8033 10.1596 31.5727 10.7437 31.4277L10.5803 30.7691ZM8.73703 31.5319C8.78118 31.5052 8.83907 31.5115 8.87662 31.5493L8.39537 32.0277C8.58003 32.2134 8.86631 32.2467 9.08806 32.1126L8.73703 31.5319ZM8.87591 31.5486L8.17879 30.8515L7.69897 31.3313L8.39608 32.0284L8.87591 31.5486ZM8.17879 30.8515C7.94424 30.6169 7.56375 30.6169 7.3292 30.8515L7.80903 31.3313C7.77858 31.3617 7.72942 31.3617 7.69897 31.3313L8.17879 30.8515ZM7.32919 30.8515L5.74521 32.4357L6.22507 32.9155L7.80904 31.3313L7.32919 30.8515ZM5.74523 32.4356C5.51076 32.6701 5.51113 33.0506 5.74497 33.285L6.22531 32.8057C6.25549 32.8359 6.25587 32.8847 6.22505 32.9155L5.74523 32.4356ZM5.74523 33.2852L6.44212 33.9821L6.92195 33.5023L6.22505 32.8054L5.74523 33.2852ZM6.44249 33.9825C6.40521 33.9453 6.39866 33.8883 6.42518 33.8441L7.00692 34.1934C7.14035 33.9712 7.10597 33.6858 6.92159 33.5019L6.44249 33.9825ZM6.42531 33.8439C6.08076 34.4167 5.82414 35.0365 5.66271 35.6864L6.32127 35.85C6.46643 35.2656 6.69708 34.7085 7.00679 34.1937L6.42531 33.8439ZM5.66279 35.6861C5.67529 35.6359 5.72044 35.6005 5.77243 35.6005V36.2791C6.03205 36.2791 6.25832 36.1023 6.32118 35.8503L5.66279 35.6861ZM5.77243 35.6005H4.78617V36.2791H5.77243V35.6005ZM4.78617 35.6005C4.45455 35.6005 4.18535 35.8697 4.18535 36.2013H4.86393C4.86393 36.2445 4.82931 36.2791 4.78617 36.2791V35.6005ZM4.18535 36.2013V38.4416H4.86393V36.2013H4.18535ZM4.18535 38.4416C4.18535 38.7728 4.45436 39.0424 4.78617 39.0424V38.3638C4.8295 38.3638 4.86393 38.3984 4.86393 38.4416H4.18535ZM4.78617 39.0424H5.77353V38.3638H4.78617V39.0424ZM5.77353 39.0424C5.72171 39.0424 5.67653 39.0072 5.66394 38.9568L6.32225 38.7922C6.25929 38.5404 6.03298 38.3638 5.77353 38.3638V39.0424ZM5.66384 38.9564C5.82525 39.6053 6.08163 40.2251 6.42647 40.798L7.00784 40.4481C6.69798 39.9333 6.46752 39.3762 6.32234 38.7926L5.66384 38.9564ZM6.42609 40.7974C6.39993 40.7537 6.40622 40.6966 6.44359 40.6593L6.92269 41.1399C7.10717 40.9559 7.14129 40.6708 7.00822 40.4487L6.42609 40.7974ZM6.44323 40.6597L5.74523 41.3577L6.22505 41.8375L6.92305 41.1395L6.44323 40.6597ZM5.74497 41.3579C5.51099 41.5924 5.51099 41.9725 5.74497 42.207L6.22531 41.7277C6.25564 41.7581 6.25564 41.8069 6.22531 41.8372L5.74497 41.3579ZM5.74521 42.2072L7.32919 43.7914L7.80904 43.3117L6.22507 41.7275L5.74521 42.2072ZM7.32972 43.792C7.56415 44.0254 7.94384 44.0254 8.17827 43.792L7.69949 43.3111C7.72982 43.2809 7.77817 43.2809 7.8085 43.3111L7.32972 43.792ZM8.17883 43.7914L8.87661 43.0934L8.39671 42.6137L7.69893 43.3117L8.17883 43.7914ZM8.87717 43.0929C8.85467 43.1155 8.82495 43.1266 8.79658 43.1266V42.448C8.65114 42.448 8.50568 42.5042 8.39614 42.6142L8.87717 43.0929ZM12.2057 40.5714C11.3459 40.5714 10.5363 40.2404 9.91411 39.618L9.43421 40.0978C10.1837 40.8475 11.166 41.2499 12.2057 41.2499V40.5714ZM9.91404 39.618C9.14021 38.8443 8.81451 37.7775 9.02235 36.6818L8.35567 36.5554C8.10671 37.8678 8.4989 39.1627 9.43428 40.0978L9.91404 39.618ZM9.02235 36.6818C9.26562 35.3994 10.293 34.3721 11.5754 34.1288L11.4489 33.4621C9.89252 33.7574 8.65091 34.999 8.35567 36.5554L9.02235 36.6818ZM11.5754 34.1288C12.6715 33.9208 13.7379 34.2466 14.512 35.0205L14.9918 34.5407C14.0563 33.6054 12.7618 33.2129 11.4489 33.4621L11.5754 34.1288ZM14.512 35.0205C15.2857 35.7942 15.6115 36.8608 15.4037 37.9564L16.0704 38.0829C16.3193 36.7704 15.9269 35.4758 14.9918 34.5407L14.512 35.0205ZM15.4037 37.9565C15.1606 39.2389 14.1333 40.2667 12.8504 40.5102L12.9769 41.1768C14.5338 40.8813 15.7754 39.6393 16.0704 38.0829L15.4037 37.9565ZM12.8504 40.5101C12.6336 40.5513 12.4178 40.5714 12.2057 40.5714V41.2499C12.4606 41.2499 12.7188 41.2258 12.9769 41.1768L12.8504 40.5101ZM12.2179 33.8416C11.9914 33.8416 11.7626 33.8631 11.5334 33.9065L11.6597 34.5732C11.8479 34.5376 12.0344 34.5202 12.2179 34.5202V33.8416ZM11.5333 33.9065C10.1578 34.1675 9.06087 35.2645 8.80008 36.6398L9.46678 36.7662C9.6756 35.6649 10.5582 34.7822 11.6598 34.5732L11.5333 33.9065ZM8.80009 36.6397C8.57945 37.8026 8.92615 38.95 9.75409 39.778L10.2339 39.2981C9.56778 38.632 9.28717 37.7128 9.46677 36.7662L8.80009 36.6397ZM9.75402 39.7779C10.5823 40.6067 11.7299 40.951 12.8924 40.7325L12.7671 40.0656C11.8192 40.2438 10.8998 39.9644 10.234 39.2982L9.75402 39.7779ZM12.893 40.7324C14.2682 40.4714 15.3654 39.3742 15.626 37.9989L14.9593 37.8726C14.7506 38.9738 13.8678 39.8567 12.7665 40.0657L12.893 40.7324ZM15.626 37.999C15.8466 36.8359 15.4999 35.6883 14.6719 34.8605L14.1922 35.3404C14.8582 36.0063 15.1389 36.9257 14.9593 37.8725L15.626 37.999ZM14.6719 34.8605C14.0086 34.1975 13.1386 33.8416 12.2179 33.8416V34.5202C12.9591 34.5202 13.6565 34.8049 14.1922 35.3404L14.6719 34.8605Z" fill="#5648FF" mask="url(#path-2-outside-1_3711_10256)"/>
<rect width="24.4286" height="24.4286" transform="translate(51.5723 25.1069)" fill="#0D2259"/>
<mask id="path-4-outside-2_3711_10256" maskUnits="userSpaceOnUse" x="54.6426" y="28.1788" width="18" height="18" fill="black">
<rect fill="white" x="54.6426" y="28.1788" width="18" height="18"/>
<path d="M64.9054 45.4641H62.6652C62.2716 45.4641 61.9515 45.1443 61.9515 44.7506V43.9382C61.4104 43.7885 60.8911 43.5738 60.4033 43.2968L59.829 43.8715C59.5507 44.1498 59.0979 44.1498 58.8196 43.8715L57.2356 42.2873C56.9573 42.009 56.9573 41.5562 57.2356 41.2779L57.8104 40.7031C57.5338 40.2154 57.3189 39.6959 57.1693 39.1556H56.3565C55.9629 39.1556 55.6426 38.8353 55.6426 38.4417V36.2015C55.6426 35.8078 55.9629 35.4876 56.3565 35.4876H57.1682C57.3178 34.9462 57.5327 34.4266 57.8093 33.9389L57.2356 33.3653C56.9573 33.0868 56.9575 32.6339 57.2356 32.3558L58.8196 30.7716C59.0979 30.4933 59.5507 30.4933 59.829 30.7716L60.4029 31.3453C60.8908 31.0687 61.4104 30.8538 61.9515 30.7045V29.8925C61.9515 29.4989 62.2716 29.1788 62.6652 29.1788H64.9054C65.2991 29.1788 65.6193 29.4989 65.6193 29.8925V30.7054C66.1605 30.8551 66.6796 31.0703 67.1669 31.3464L67.7416 30.7716C68.0199 30.494 68.4727 30.4931 68.7511 30.7716L70.3353 32.3558C70.6136 32.6339 70.6136 33.0868 70.3353 33.3653L69.761 33.9396C70.0379 34.4282 70.2531 34.9475 70.4024 35.4876H71.2144C71.608 35.4876 71.9283 35.8078 71.9283 36.2015V38.4417C71.9283 38.8353 71.608 39.1556 71.2144 39.1556H70.4011C70.2513 39.6963 70.0362 40.2154 69.7596 40.7022L70.3353 41.2779C70.6136 41.5562 70.6136 42.009 70.3353 42.2873L68.7511 43.8715C68.4727 44.1503 68.0199 44.1494 67.7416 43.8715L67.166 43.2959C66.6778 43.5729 66.1592 43.788 65.6193 43.9373V44.7506C65.6193 45.1443 65.2991 45.4641 64.9054 45.4641ZM60.3669 42.7874C60.4071 42.7874 60.4473 42.798 60.4835 42.8197C61.0269 43.147 61.6153 43.3909 62.2323 43.5442C62.3332 43.5693 62.4039 43.6599 62.4039 43.7637V44.7506C62.4039 44.8947 62.5212 45.0117 62.6652 45.0117H64.9054C65.0495 45.0117 65.167 44.8947 65.167 44.7506V43.7628C65.167 43.659 65.2377 43.5685 65.3384 43.5433C65.9533 43.3904 66.5413 43.1466 67.086 42.8188C67.1748 42.7658 67.2888 42.779 67.3626 42.8528L68.0615 43.5517C68.1631 43.6533 68.3296 43.6542 68.4312 43.5517L70.0154 41.9675C70.1175 41.8654 70.1175 41.6998 70.0154 41.5977L69.3165 40.8988C69.2432 40.8255 69.2291 40.7111 69.2825 40.6223C69.6099 40.0793 69.8537 39.4913 70.007 38.8746C70.0322 38.7739 70.1228 38.7032 70.2266 38.7032H71.2144C71.3584 38.7032 71.4759 38.5857 71.4759 38.4417V36.2015C71.4759 36.0572 71.3584 35.9399 71.2144 35.9399H70.2279C70.1241 35.9399 70.0335 35.8693 70.0084 35.7683C69.8555 35.1529 69.6116 34.5645 69.2838 34.0196C69.2304 33.9305 69.2445 33.8163 69.3179 33.743L70.0154 33.0454C70.117 32.9434 70.1175 32.7775 70.0154 32.6757L68.4312 31.0915C68.3292 30.9892 68.1626 30.9901 68.0615 31.0915L67.3635 31.7897C67.2892 31.8633 67.1757 31.8772 67.0869 31.8235C66.5435 31.4968 65.9555 31.253 65.3384 31.0994C65.2377 31.0743 65.167 30.9837 65.167 30.8799V29.8925C65.167 29.7485 65.0495 29.6312 64.9054 29.6312H62.6652C62.5212 29.6312 62.4039 29.7485 62.4039 29.8925V30.879C62.4039 30.983 62.333 31.0734 62.2323 31.0986C61.6153 31.2516 61.0269 31.4953 60.4829 31.8224C60.3941 31.8761 60.2799 31.8626 60.2063 31.7886L59.5092 31.0915C59.4071 30.9894 59.2415 30.9894 59.1394 31.0915L57.5555 32.6757C57.4536 32.7775 57.4536 32.9434 57.5555 33.0454L58.2523 33.7423C58.3259 33.8157 58.3398 33.9299 58.2864 34.0189C57.9592 34.5627 57.7156 35.1512 57.5623 35.7683C57.5371 35.8693 57.4466 35.9399 57.3427 35.9399H56.3565C56.2122 35.9399 56.095 36.0572 56.095 36.2015V38.4417C56.095 38.5857 56.2122 38.7032 56.3565 38.7032H57.3438C57.4477 38.7032 57.5382 38.7739 57.5634 38.8746C57.7167 39.4909 57.9601 40.0793 58.2875 40.6232C58.3409 40.7124 58.327 40.8264 58.2535 40.8997L57.5555 41.5977C57.4536 41.6998 57.4536 41.8654 57.5555 41.9675L59.1394 43.5517C59.2415 43.6533 59.4071 43.6533 59.5092 43.5517L60.207 42.8537C60.2505 42.8099 60.3084 42.7874 60.3669 42.7874ZM63.776 40.9108C62.8262 40.9108 61.9303 40.5441 61.2445 39.858C60.3899 39.0036 60.0309 37.8228 60.2593 36.6187C60.5286 35.1993 61.6631 34.0648 63.0825 33.7956C64.287 33.567 65.4674 33.9261 66.3222 34.7807C67.1766 35.6351 67.5358 36.8157 67.3074 38.0198C67.0383 39.4392 65.9038 40.5741 64.484 40.8436C64.2465 40.8887 64.0095 40.9108 63.776 40.9108ZM63.7882 34.181C63.5832 34.181 63.3756 34.2005 63.1668 34.24C61.9283 34.475 60.9385 35.4648 60.7037 36.7031C60.5036 37.7578 60.8173 38.7911 61.5643 39.5382C62.3114 40.2856 63.3449 40.5975 64.4001 40.3992C65.6383 40.1642 66.6284 39.1742 66.8629 37.9359C67.0631 36.8809 66.7494 35.8474 66.0024 35.1006C65.4029 34.5013 64.6192 34.181 63.7882 34.181Z"/>
</mask>
<path d="M64.9054 45.4641H62.6652C62.2716 45.4641 61.9515 45.1443 61.9515 44.7506V43.9382C61.4104 43.7885 60.8911 43.5738 60.4033 43.2968L59.829 43.8715C59.5507 44.1498 59.0979 44.1498 58.8196 43.8715L57.2356 42.2873C56.9573 42.009 56.9573 41.5562 57.2356 41.2779L57.8104 40.7031C57.5338 40.2154 57.3189 39.6959 57.1693 39.1556H56.3565C55.9629 39.1556 55.6426 38.8353 55.6426 38.4417V36.2015C55.6426 35.8078 55.9629 35.4876 56.3565 35.4876H57.1682C57.3178 34.9462 57.5327 34.4266 57.8093 33.9389L57.2356 33.3653C56.9573 33.0868 56.9575 32.6339 57.2356 32.3558L58.8196 30.7716C59.0979 30.4933 59.5507 30.4933 59.829 30.7716L60.4029 31.3453C60.8908 31.0687 61.4104 30.8538 61.9515 30.7045V29.8925C61.9515 29.4989 62.2716 29.1788 62.6652 29.1788H64.9054C65.2991 29.1788 65.6193 29.4989 65.6193 29.8925V30.7054C66.1605 30.8551 66.6796 31.0703 67.1669 31.3464L67.7416 30.7716C68.0199 30.494 68.4727 30.4931 68.7511 30.7716L70.3353 32.3558C70.6136 32.6339 70.6136 33.0868 70.3353 33.3653L69.761 33.9396C70.0379 34.4282 70.2531 34.9475 70.4024 35.4876H71.2144C71.608 35.4876 71.9283 35.8078 71.9283 36.2015V38.4417C71.9283 38.8353 71.608 39.1556 71.2144 39.1556H70.4011C70.2513 39.6963 70.0362 40.2154 69.7596 40.7022L70.3353 41.2779C70.6136 41.5562 70.6136 42.009 70.3353 42.2873L68.7511 43.8715C68.4727 44.1503 68.0199 44.1494 67.7416 43.8715L67.166 43.2959C66.6778 43.5729 66.1592 43.788 65.6193 43.9373V44.7506C65.6193 45.1443 65.2991 45.4641 64.9054 45.4641ZM60.3669 42.7874C60.4071 42.7874 60.4473 42.798 60.4835 42.8197C61.0269 43.147 61.6153 43.3909 62.2323 43.5442C62.3332 43.5693 62.4039 43.6599 62.4039 43.7637V44.7506C62.4039 44.8947 62.5212 45.0117 62.6652 45.0117H64.9054C65.0495 45.0117 65.167 44.8947 65.167 44.7506V43.7628C65.167 43.659 65.2377 43.5685 65.3384 43.5433C65.9533 43.3904 66.5413 43.1466 67.086 42.8188C67.1748 42.7658 67.2888 42.779 67.3626 42.8528L68.0615 43.5517C68.1631 43.6533 68.3296 43.6542 68.4312 43.5517L70.0154 41.9675C70.1175 41.8654 70.1175 41.6998 70.0154 41.5977L69.3165 40.8988C69.2432 40.8255 69.2291 40.7111 69.2825 40.6223C69.6099 40.0793 69.8537 39.4913 70.007 38.8746C70.0322 38.7739 70.1228 38.7032 70.2266 38.7032H71.2144C71.3584 38.7032 71.4759 38.5857 71.4759 38.4417V36.2015C71.4759 36.0572 71.3584 35.9399 71.2144 35.9399H70.2279C70.1241 35.9399 70.0335 35.8693 70.0084 35.7683C69.8555 35.1529 69.6116 34.5645 69.2838 34.0196C69.2304 33.9305 69.2445 33.8163 69.3179 33.743L70.0154 33.0454C70.117 32.9434 70.1175 32.7775 70.0154 32.6757L68.4312 31.0915C68.3292 30.9892 68.1626 30.9901 68.0615 31.0915L67.3635 31.7897C67.2892 31.8633 67.1757 31.8772 67.0869 31.8235C66.5435 31.4968 65.9555 31.253 65.3384 31.0994C65.2377 31.0743 65.167 30.9837 65.167 30.8799V29.8925C65.167 29.7485 65.0495 29.6312 64.9054 29.6312H62.6652C62.5212 29.6312 62.4039 29.7485 62.4039 29.8925V30.879C62.4039 30.983 62.333 31.0734 62.2323 31.0986C61.6153 31.2516 61.0269 31.4953 60.4829 31.8224C60.3941 31.8761 60.2799 31.8626 60.2063 31.7886L59.5092 31.0915C59.4071 30.9894 59.2415 30.9894 59.1394 31.0915L57.5555 32.6757C57.4536 32.7775 57.4536 32.9434 57.5555 33.0454L58.2523 33.7423C58.3259 33.8157 58.3398 33.9299 58.2864 34.0189C57.9592 34.5627 57.7156 35.1512 57.5623 35.7683C57.5371 35.8693 57.4466 35.9399 57.3427 35.9399H56.3565C56.2122 35.9399 56.095 36.0572 56.095 36.2015V38.4417C56.095 38.5857 56.2122 38.7032 56.3565 38.7032H57.3438C57.4477 38.7032 57.5382 38.7739 57.5634 38.8746C57.7167 39.4909 57.9601 40.0793 58.2875 40.6232C58.3409 40.7124 58.327 40.8264 58.2535 40.8997L57.5555 41.5977C57.4536 41.6998 57.4536 41.8654 57.5555 41.9675L59.1394 43.5517C59.2415 43.6533 59.4071 43.6533 59.5092 43.5517L60.207 42.8537C60.2505 42.8099 60.3084 42.7874 60.3669 42.7874ZM63.776 40.9108C62.8262 40.9108 61.9303 40.5441 61.2445 39.858C60.3899 39.0036 60.0309 37.8228 60.2593 36.6187C60.5286 35.1993 61.6631 34.0648 63.0825 33.7956C64.287 33.567 65.4674 33.9261 66.3222 34.7807C67.1766 35.6351 67.5358 36.8157 67.3074 38.0198C67.0383 39.4392 65.9038 40.5741 64.484 40.8436C64.2465 40.8887 64.0095 40.9108 63.776 40.9108ZM63.7882 34.181C63.5832 34.181 63.3756 34.2005 63.1668 34.24C61.9283 34.475 60.9385 35.4648 60.7037 36.7031C60.5036 37.7578 60.8173 38.7911 61.5643 39.5382C62.3114 40.2856 63.3449 40.5975 64.4001 40.3992C65.6383 40.1642 66.6284 39.1742 66.8629 37.9359C67.0631 36.8809 66.7494 35.8474 66.0024 35.1006C65.4029 34.5013 64.6192 34.181 63.7882 34.181Z" fill="#5648FF"/>
<path d="M64.442 40.791H64.4464V40.4518H64.442V40.791ZM61.9515 43.9382H62.2908V43.6801L62.042 43.6112L61.9515 43.9382ZM60.4033 43.2968L60.5709 43.0017L60.3461 42.8741L60.1633 43.057L60.4033 43.2968ZM59.829 43.8715L60.0689 44.1114L60.069 44.1113L59.829 43.8715ZM58.8196 43.8715L58.5797 44.1114L58.5797 44.1114L58.8196 43.8715ZM57.2356 42.2873L57.4755 42.0474L57.4755 42.0474L57.2356 42.2873ZM57.2356 41.2779L56.9957 41.038H56.9957L57.2356 41.2779ZM57.8104 40.7031L58.0503 40.943L58.2329 40.7604L58.1055 40.5358L57.8104 40.7031ZM57.1693 39.1556L57.4963 39.0651L57.4275 38.8163H57.1693V39.1556ZM56.3565 39.1556V38.8163H56.3565L56.3565 39.1556ZM57.1682 35.4876V35.8268H57.4265L57.4953 35.5779L57.1682 35.4876ZM57.8093 33.9389L58.1044 34.1063L58.2318 33.8816L58.0492 33.699L57.8093 33.9389ZM57.2356 33.3653L56.9956 33.6051L56.9957 33.6052L57.2356 33.3653ZM57.2356 32.3558L57.4755 32.5957L57.4755 32.5957L57.2356 32.3558ZM58.8196 30.7716L58.5797 30.5317L58.5797 30.5317L58.8196 30.7716ZM59.829 30.7716L59.5891 31.0116L59.5892 31.0116L59.829 30.7716ZM60.4029 31.3453L60.163 31.5852L60.3456 31.7677L60.5702 31.6405L60.4029 31.3453ZM61.9515 30.7045L62.0418 31.0316L62.2908 30.9628V30.7045H61.9515ZM65.6193 30.7054H65.2801V30.9635L65.5289 31.0324L65.6193 30.7054ZM67.1669 31.3464L66.9996 31.6416L67.2242 31.7689L67.4068 31.5863L67.1669 31.3464ZM67.7416 30.7716L67.502 30.5314L67.5017 30.5317L67.7416 30.7716ZM68.7511 30.7716L68.5111 31.0115L68.5112 31.0116L68.7511 30.7716ZM70.3353 32.3558L70.0954 32.5957L70.0954 32.5958L70.3353 32.3558ZM70.3353 33.3653L70.5752 33.6052L70.5753 33.6051L70.3353 33.3653ZM69.761 33.9396L69.521 33.6997L69.3385 33.8823L69.4658 34.1069L69.761 33.9396ZM70.4024 35.4876L70.0754 35.578L70.1442 35.8268H70.4024V35.4876ZM71.2144 35.4876V35.1483V35.4876ZM70.4011 39.1556V38.8163H70.143L70.0741 39.065L70.4011 39.1556ZM69.7596 40.7022L69.4646 40.5347L69.337 40.7594L69.5197 40.9422L69.7596 40.7022ZM70.3353 42.2873L70.5752 42.5272H70.5752L70.3353 42.2873ZM68.7511 43.8715L68.5112 43.6316L68.511 43.6318L68.7511 43.8715ZM67.7416 43.8715L67.5017 44.1114L67.5019 44.1116L67.7416 43.8715ZM67.166 43.2959L67.4059 43.056L67.2232 42.8733L66.9985 43.0008L67.166 43.2959ZM65.6193 43.9373L65.5289 43.6103L65.2801 43.6792V43.9373H65.6193ZM60.4835 42.8197L60.6586 42.529L60.6576 42.5284L60.4835 42.8197ZM62.2323 43.5442L62.3144 43.215L62.3141 43.2149L62.2323 43.5442ZM65.3384 43.5433L65.2565 43.214L65.2561 43.2141L65.3384 43.5433ZM67.086 42.8188L66.9121 42.5275L66.9111 42.5281L67.086 42.8188ZM67.3626 42.8528L67.6025 42.6129L67.3626 42.8528ZM68.0615 43.5517L67.8215 43.7916L67.8215 43.7916L68.0615 43.5517ZM68.4312 43.5517L68.1913 43.3118L68.1903 43.3128L68.4312 43.5517ZM70.0154 41.9675L70.2553 42.2074L70.0154 41.9675ZM69.3165 40.8988L69.5564 40.6589L69.5564 40.6589L69.3165 40.8988ZM69.2825 40.6223L68.992 40.4471L68.9918 40.4473L69.2825 40.6223ZM70.007 38.8746L69.6779 38.7923L69.6778 38.7928L70.007 38.8746ZM70.0084 35.7683L69.6791 35.8501L69.6792 35.8504L70.0084 35.7683ZM69.2838 34.0196L68.993 34.1942L68.9931 34.1944L69.2838 34.0196ZM69.3179 33.743L69.5578 33.9829V33.9829L69.3179 33.743ZM70.0154 33.0454L70.2553 33.2854L70.2559 33.2848L70.0154 33.0454ZM70.0154 32.6757L69.7755 32.9156L69.7758 32.9159L70.0154 32.6757ZM68.4312 31.0915L68.1911 31.3311L68.1913 31.3314L68.4312 31.0915ZM68.0615 31.0915L68.3014 31.3314L68.3016 31.3311L68.0615 31.0915ZM67.3635 31.7897L67.6023 32.0307L67.6034 32.0296L67.3635 31.7897ZM67.0869 31.8235L67.2624 31.5331L67.2617 31.5327L67.0869 31.8235ZM65.3384 31.0994L65.2561 31.4286L65.2565 31.4287L65.3384 31.0994ZM62.2323 31.0986L62.314 31.4279L62.3146 31.4277L62.2323 31.0986ZM60.4829 31.8224L60.308 31.5316L60.3073 31.532L60.4829 31.8224ZM60.2063 31.7886L60.4469 31.5494L60.4462 31.5487L60.2063 31.7886ZM59.5092 31.0915L59.2693 31.3314L59.5092 31.0915ZM59.1394 31.0915L58.8995 30.8516L58.8995 30.8516L59.1394 31.0915ZM57.5555 32.6757L57.7954 32.9156L57.7954 32.9156L57.5555 32.6757ZM57.5555 33.0454L57.3153 33.2851L57.3155 33.2854L57.5555 33.0454ZM58.2523 33.7423L58.0124 33.9823L58.0128 33.9826L58.2523 33.7423ZM58.2864 34.0189L58.5771 34.1938L58.5772 34.1936L58.2864 34.0189ZM57.5623 35.7683L57.8915 35.8504L57.8916 35.8501L57.5623 35.7683ZM57.5634 38.8746L57.8927 38.7927L57.8926 38.7923L57.5634 38.8746ZM58.2875 40.6232L58.5785 40.4488L58.5782 40.4482L58.2875 40.6232ZM58.2535 40.8997L58.0139 40.6594L58.0135 40.6598L58.2535 40.8997ZM57.5555 41.5977L57.3155 41.3578L57.3153 41.3581L57.5555 41.5977ZM57.5555 41.9675L57.3153 42.2071L57.3155 42.2074L57.5555 41.9675ZM59.1394 43.5517L58.8995 43.7916L58.9 43.7921L59.1394 43.5517ZM59.5092 43.5517L59.7486 43.7921L59.7491 43.7915L59.5092 43.5517ZM60.207 42.8537L60.4469 43.0935L60.4475 43.093L60.207 42.8537ZM61.2445 39.858L61.4844 39.6181L61.4844 39.6181L61.2445 39.858ZM60.2593 36.6187L59.926 36.5555L59.926 36.5555L60.2593 36.6187ZM63.0825 33.7956L63.1457 34.1289L63.1457 34.1289L63.0825 33.7956ZM66.3222 34.7807L66.5621 34.5408L66.5621 34.5408L66.3222 34.7807ZM67.3074 38.0198L66.974 37.9566L66.974 37.9566L67.3074 38.0198ZM64.484 40.8436L64.5472 41.1769L64.5473 41.1769L64.484 40.8436ZM63.1668 34.24L63.1037 33.9066L63.1036 33.9067L63.1668 34.24ZM60.7037 36.7031L61.0371 36.7663L61.0371 36.7663L60.7037 36.7031ZM61.5643 39.5382L61.8043 39.2983L61.8042 39.2983L61.5643 39.5382ZM64.4001 40.3992L64.4627 40.7326L64.4633 40.7325L64.4001 40.3992ZM66.8629 37.9359L66.5296 37.8726L66.5296 37.8727L66.8629 37.9359ZM66.0024 35.1006L66.2422 34.8606L66.2422 34.8606L66.0024 35.1006ZM64.9054 45.1248H62.6652V45.8034H64.9054V45.1248ZM62.6652 45.1248C62.4588 45.1248 62.2908 44.9567 62.2908 44.7506H61.6122C61.6122 45.3318 62.0843 45.8034 62.6652 45.8034V45.1248ZM62.2908 44.7506V43.9382H61.6122V44.7506H62.2908ZM62.042 43.6112C61.5275 43.4688 61.0341 43.2648 60.5709 43.0017L60.2358 43.5918C60.748 43.8827 61.2932 44.1081 61.861 44.2652L62.042 43.6112ZM60.1633 43.057L59.589 43.6317L60.069 44.1113L60.6433 43.5366L60.1633 43.057ZM59.5891 43.6316C59.4433 43.7774 59.2053 43.7774 59.0595 43.6316L58.5797 44.1114C58.9905 44.5222 59.6581 44.5222 60.0689 44.1114L59.5891 43.6316ZM59.0595 43.6316L57.4755 42.0474L56.9957 42.5272L58.5797 44.1114L59.0595 43.6316ZM57.4755 42.0474C57.3297 41.9016 57.3297 41.6636 57.4755 41.5178L56.9957 41.038C56.5849 41.4488 56.5849 42.1164 56.9957 42.5272L57.4755 42.0474ZM57.4755 41.5178L58.0503 40.943L57.5704 40.4632L56.9957 41.038L57.4755 41.5178ZM58.1055 40.5358C57.8427 40.0724 57.6385 39.5787 57.4963 39.0651L56.8424 39.2461C56.9993 39.8131 57.2249 40.3584 57.5152 40.8705L58.1055 40.5358ZM57.1693 38.8163H56.3565V39.4949H57.1693V38.8163ZM56.3565 38.8163C56.1502 38.8163 55.9819 38.6479 55.9819 38.4417H55.3033C55.3033 39.0227 55.7755 39.4949 56.3565 39.4949L56.3565 38.8163ZM55.9819 38.4417V36.2015H55.3033V38.4417H55.9819ZM55.9819 36.2015C55.9819 35.9952 56.1502 35.8268 56.3565 35.8268V35.1483C55.7755 35.1483 55.3033 35.6205 55.3033 36.2015H55.9819ZM56.3565 35.8268H57.1682V35.1483H56.3565V35.8268ZM57.4953 35.5779C57.6374 35.0633 57.8417 34.5696 58.1044 34.1063L57.5141 33.7716C57.2237 34.2837 56.9981 34.8291 56.8412 35.3972L57.4953 35.5779ZM58.0492 33.699L57.4755 33.1254L56.9957 33.6052L57.5693 34.1788L58.0492 33.699ZM57.4756 33.1255C57.3297 32.9794 57.3299 32.7414 57.4755 32.5957L56.9957 32.1159C56.5851 32.5265 56.5849 33.1941 56.9956 33.6051L57.4756 33.1255ZM57.4755 32.5957L59.0595 31.0115L58.5797 30.5317L56.9957 32.1159L57.4755 32.5957ZM59.0595 31.0116C59.2053 30.8657 59.4433 30.8657 59.5891 31.0116L60.0689 30.5317C59.6581 30.1209 58.9905 30.1209 58.5797 30.5317L59.0595 31.0116ZM59.5892 31.0116L60.163 31.5852L60.6428 31.1053L60.0689 30.5317L59.5892 31.0116ZM60.5702 31.6405C61.0338 31.3777 61.5274 31.1735 62.0418 31.0316L61.8613 30.3774C61.2933 30.5342 60.7479 30.7598 60.2356 31.0501L60.5702 31.6405ZM62.2908 30.7045V29.8925H61.6122V30.7045H62.2908ZM62.2908 29.8925C62.2908 29.6863 62.459 29.5181 62.6652 29.5181V28.8395C62.0842 28.8395 61.6122 29.3115 61.6122 29.8925H62.2908ZM62.6652 29.5181H64.9054V28.8395H62.6652V29.5181ZM64.9054 29.5181C65.1118 29.5181 65.2801 29.6864 65.2801 29.8925H65.9586C65.9586 29.3114 65.4863 28.8395 64.9054 28.8395V29.5181ZM65.2801 29.8925V30.7054H65.9586V29.8925H65.2801ZM65.5289 31.0324C66.0432 31.1747 66.5365 31.3792 66.9996 31.6416L67.3341 31.0512C66.8227 30.7614 66.2778 30.5356 65.7098 30.3784L65.5289 31.0324ZM67.4068 31.5863L67.9815 31.0116L67.5017 30.5317L66.927 31.1065L67.4068 31.5863ZM67.9812 31.0118C68.1276 30.8658 68.3657 30.866 68.5111 31.0115L68.9911 30.5318C68.5798 30.1202 67.9123 30.1222 67.502 30.5314L67.9812 31.0118ZM68.5112 31.0116L70.0954 32.5957L70.5752 32.1159L68.991 30.5317L68.5112 31.0116ZM70.0954 32.5958C70.241 32.7413 70.2413 32.9793 70.0953 33.1255L70.5753 33.6051C70.9859 33.1942 70.9861 32.5266 70.5751 32.1158L70.0954 32.5958ZM70.0954 33.1254L69.521 33.6997L70.0009 34.1795L70.5752 33.6052L70.0954 33.1254ZM69.4658 34.1069C69.7291 34.5713 69.9335 35.0648 70.0754 35.578L70.7294 35.3971C70.5727 34.8302 70.3468 34.2851 70.0561 33.7723L69.4658 34.1069ZM70.4024 35.8268H71.2144V35.1483H70.4024V35.8268ZM71.2144 35.8268C71.4206 35.8268 71.589 35.9952 71.589 36.2015H72.2676C72.2676 35.6205 71.7954 35.1483 71.2144 35.1483V35.8268ZM71.589 36.2015V38.4417H72.2676V36.2015H71.589ZM71.589 38.4417C71.589 38.6479 71.4206 38.8163 71.2144 38.8163V39.4949C71.7954 39.4949 72.2676 39.0227 72.2676 38.4417H71.589ZM71.2144 38.8163H70.4011V39.4949H71.2144V38.8163ZM70.0741 39.065C69.9318 39.579 69.7273 40.0722 69.4646 40.5347L70.0546 40.8698C70.345 40.3586 70.5709 39.8136 70.7281 39.2462L70.0741 39.065ZM69.5197 40.9422L70.0954 41.5178L70.5752 41.038L69.9995 40.4623L69.5197 40.9422ZM70.0954 41.5178C70.2412 41.6636 70.2412 41.9016 70.0954 42.0474L70.5752 42.5272C70.986 42.1164 70.986 41.4488 70.5752 41.038L70.0954 41.5178ZM70.0954 42.0474L68.5112 43.6316L68.991 44.1114L70.5752 42.5272L70.0954 42.0474ZM68.511 43.6318C68.3657 43.7773 68.1277 43.7775 67.9813 43.6314L67.5019 44.1116C67.9122 44.5213 68.5798 44.5232 68.9912 44.1112L68.511 43.6318ZM67.9815 43.6316L67.4059 43.056L66.9261 43.5358L67.5017 44.1114L67.9815 43.6316ZM66.9985 43.0008C66.5346 43.2641 66.0418 43.4685 65.5289 43.6103L65.7098 44.2643C66.2766 44.1076 66.8211 43.8817 67.3334 43.591L66.9985 43.0008ZM65.2801 43.9373V44.7506H65.9586V43.9373H65.2801ZM65.2801 44.7506C65.2801 44.9566 65.1119 45.1248 64.9054 45.1248V45.8034C65.4862 45.8034 65.9586 45.3319 65.9586 44.7506H65.2801ZM60.3669 43.1267C60.347 43.1267 60.3269 43.1213 60.3095 43.1109L60.6576 42.5284C60.5677 42.4747 60.4672 42.4481 60.3669 42.4481V43.1267ZM60.3084 43.1103C60.8808 43.4551 61.5007 43.712 62.1505 43.8734L62.3141 43.2149C61.73 43.0697 61.173 42.8389 60.6586 42.529L60.3084 43.1103ZM62.1502 43.8734C62.1 43.8609 62.0646 43.8157 62.0646 43.7637H62.7432C62.7432 43.5041 62.5664 43.2778 62.3144 43.215L62.1502 43.8734ZM62.0646 43.7637V44.7506H62.7432V43.7637H62.0646ZM62.0646 44.7506C62.0646 45.0824 62.3342 45.351 62.6652 45.351V44.6724C62.7082 44.6724 62.7432 44.7069 62.7432 44.7506H62.0646ZM62.6652 45.351H64.9054V44.6724H62.6652V45.351ZM64.9054 45.351C65.2361 45.351 65.5063 45.0828 65.5063 44.7506H64.8277C64.8277 44.7065 64.8628 44.6724 64.9054 44.6724V45.351ZM65.5063 44.7506V43.7628H64.8277V44.7506H65.5063ZM65.5063 43.7628C65.5063 43.8147 65.471 43.8598 65.4207 43.8724L65.2561 43.2141C65.0043 43.2771 64.8277 43.5034 64.8277 43.7628H65.5063ZM65.4202 43.8725C66.0681 43.7115 66.6875 43.4546 67.261 43.1095L66.9111 42.5281C66.3952 42.8385 65.8385 43.0693 65.2565 43.214L65.4202 43.8725ZM67.2599 43.1101C67.2169 43.1358 67.16 43.1301 67.1227 43.0927L67.6025 42.6129C67.4176 42.4279 67.1328 42.3957 66.9121 42.5275L67.2599 43.1101ZM67.1227 43.0927L67.8215 43.7916L68.3014 43.3118L67.6025 42.6129L67.1227 43.0927ZM67.8215 43.7916C68.0543 44.0244 68.4365 44.0282 68.6722 43.7905L68.1903 43.3128C68.2227 43.2801 68.2718 43.2822 68.3014 43.3118L67.8215 43.7916ZM68.6711 43.7916L70.2553 42.2074L69.7755 41.7276L68.1913 43.3118L68.6711 43.7916ZM70.2553 42.2074C70.4899 41.9728 70.4899 41.5924 70.2553 41.3578L69.7755 41.8376C69.7451 41.8072 69.7451 41.758 69.7755 41.7276L70.2553 42.2074ZM70.2553 41.3578L69.5564 40.6589L69.0766 41.1387L69.7755 41.8376L70.2553 41.3578ZM69.5564 40.6589C69.593 40.6955 69.6004 40.7521 69.5732 40.7973L68.9918 40.4473C68.8578 40.67 68.8934 40.9555 69.0766 41.1387L69.5564 40.6589ZM69.5731 40.7975C69.9179 40.2255 70.1748 39.606 70.3363 38.9565L69.6778 38.7928C69.5326 39.3767 69.3018 39.9332 68.992 40.4471L69.5731 40.7975ZM70.3362 38.9569C70.3236 39.0073 70.2784 39.0425 70.2266 39.0425V38.3639C69.9671 38.3639 69.7408 38.5405 69.6779 38.7923L70.3362 38.9569ZM70.2266 39.0425H71.2144V38.3639H70.2266V39.0425ZM71.2144 39.0425C71.5458 39.0425 71.8152 38.7731 71.8152 38.4417H71.1366C71.1366 38.3983 71.171 38.3639 71.2144 38.3639V39.0425ZM71.8152 38.4417V36.2015H71.1366V38.4417H71.8152ZM71.8152 36.2015C71.8152 35.8697 71.5456 35.6007 71.2144 35.6007V36.2792C71.1712 36.2792 71.1366 36.2448 71.1366 36.2015H71.8152ZM71.2144 35.6007H70.2279V36.2792H71.2144V35.6007ZM70.2279 35.6007C70.2799 35.6007 70.325 35.6361 70.3375 35.6862L69.6792 35.8504C69.742 36.1024 69.9683 36.2792 70.2279 36.2792V35.6007ZM70.3376 35.6865C70.1766 35.0382 69.9197 34.4184 69.5746 33.8447L68.9931 34.1944C69.3036 34.7105 69.5344 35.2676 69.6791 35.8501L70.3376 35.6865ZM69.5747 33.8449C69.6015 33.8895 69.5944 33.9463 69.5578 33.9829L69.0779 33.5031C68.8946 33.6864 68.8593 33.9715 68.993 34.1942L69.5747 33.8449ZM69.5578 33.9829L70.2553 33.2854L69.7755 32.8055L69.0779 33.5031L69.5578 33.9829ZM70.2559 33.2848C70.4885 33.0512 70.4908 32.6707 70.2551 32.4355L69.7758 32.9159C69.7442 32.8843 69.7456 32.8356 69.775 32.8061L70.2559 33.2848ZM70.2553 32.4358L68.6711 30.8516L68.1913 31.3314L69.7755 32.9156L70.2553 32.4358ZM68.6714 30.8518C68.436 30.616 68.0543 30.6183 67.8213 30.8518L68.3016 31.3311C68.271 31.3618 68.2223 31.3625 68.1911 31.3311L68.6714 30.8518ZM67.8215 30.8516L67.1235 31.5498L67.6034 32.0296L68.3014 31.3314L67.8215 30.8516ZM67.1246 31.5487C67.1596 31.514 67.2166 31.5054 67.2624 31.5331L66.9114 32.1139C67.1348 32.2489 67.4189 32.2125 67.6023 32.0307L67.1246 31.5487ZM67.2617 31.5327C66.6895 31.1887 66.0702 30.9319 65.4203 30.7702L65.2565 31.4287C65.8408 31.574 66.3975 31.8049 66.9121 32.1143L67.2617 31.5327ZM65.4207 30.7703C65.471 30.7829 65.5063 30.8281 65.5063 30.8799H64.8277C64.8277 31.1393 65.0043 31.3656 65.2561 31.4286L65.4207 30.7703ZM65.5063 30.8799V29.8925H64.8277V30.8799H65.5063ZM65.5063 29.8925C65.5063 29.5607 65.2365 29.2919 64.9054 29.2919V29.9705C64.8624 29.9705 64.8277 29.9363 64.8277 29.8925H65.5063ZM64.9054 29.2919H62.6652V29.9705H64.9054V29.2919ZM62.6652 29.2919C62.3338 29.2919 62.0646 29.5611 62.0646 29.8925H62.7432C62.7432 29.9359 62.7086 29.9705 62.6652 29.9705V29.2919ZM62.0646 29.8925V30.879H62.7432V29.8925H62.0646ZM62.0646 30.879C62.0646 30.8267 62.1003 30.7818 62.15 30.7694L62.3146 31.4277C62.5657 31.3649 62.7432 31.1394 62.7432 30.879H62.0646ZM62.1506 30.7693C61.5008 30.9305 60.881 31.1871 60.308 31.5316L60.6577 32.1132C61.1728 31.8034 61.7299 31.5728 62.314 31.4279L62.1506 30.7693ZM60.3073 31.532C60.3515 31.5053 60.4094 31.5116 60.4469 31.5494L59.9657 32.0278C60.1503 32.2136 60.4366 32.2468 60.6584 32.1128L60.3073 31.532ZM60.4462 31.5487L59.7491 30.8516L59.2693 31.3314L59.9664 32.0285L60.4462 31.5487ZM59.7491 30.8516C59.5146 30.617 59.1341 30.617 58.8995 30.8516L59.3793 31.3314C59.3489 31.3618 59.2997 31.3618 59.2693 31.3314L59.7491 30.8516ZM58.8995 30.8516L57.3155 32.4358L57.7954 32.9156L59.3794 31.3314L58.8995 30.8516ZM57.3155 32.4358C57.0811 32.6702 57.0814 33.0508 57.3153 33.2851L57.7956 32.8058C57.8258 32.836 57.8262 32.8848 57.7954 32.9156L57.3155 32.4358ZM57.3155 33.2854L58.0124 33.9823L58.4923 33.5024L57.7954 32.8055L57.3155 33.2854ZM58.0128 33.9826C57.9755 33.9455 57.969 33.8884 57.9955 33.8442L58.5772 34.1936C58.7107 33.9714 58.6763 33.6859 58.4919 33.5021L58.0128 33.9826ZM57.9956 33.844C57.6511 34.4168 57.3945 35.0366 57.233 35.6865L57.8916 35.8501C58.0367 35.2657 58.2674 34.7086 58.5771 34.1938L57.9956 33.844ZM57.2331 35.6862C57.2456 35.6361 57.2908 35.6007 57.3427 35.6007V36.2792C57.6024 36.2792 57.8286 36.1024 57.8915 35.8504L57.2331 35.6862ZM57.3427 35.6007H56.3565V36.2792H57.3427V35.6007ZM56.3565 35.6007C56.0249 35.6007 55.7557 35.8698 55.7557 36.2015H56.4342C56.4342 36.2446 56.3996 36.2792 56.3565 36.2792V35.6007ZM55.7557 36.2015V38.4417H56.4342V36.2015H55.7557ZM55.7557 38.4417C55.7557 38.7729 56.0247 39.0425 56.3565 39.0425V38.3639C56.3998 38.3639 56.4342 38.3985 56.4342 38.4417H55.7557ZM56.3565 39.0425H57.3438V38.3639H56.3565V39.0425ZM57.3438 39.0425C57.292 39.0425 57.2468 39.0073 57.2342 38.9569L57.8926 38.7923C57.8296 38.5405 57.6033 38.3639 57.3438 38.3639V39.0425ZM57.2342 38.9565C57.3956 39.6054 57.6519 40.2253 57.9968 40.7981L58.5782 40.4482C58.2683 39.9334 58.0378 39.3764 57.8927 38.7927L57.2342 38.9565ZM57.9964 40.7975C57.9702 40.7538 57.9765 40.6967 58.0139 40.6594L58.493 41.14C58.6775 40.9561 58.7116 40.671 58.5785 40.4488L57.9964 40.7975ZM58.0135 40.6598L57.3155 41.3578L57.7954 41.8376L58.4934 41.1396L58.0135 40.6598ZM57.3153 41.3581C57.0813 41.5925 57.0813 41.9726 57.3153 42.2071L57.7956 41.7278C57.8259 41.7582 57.8259 41.807 57.7956 41.8374L57.3153 41.3581ZM57.3155 42.2074L58.8995 43.7916L59.3794 43.3118L57.7954 41.7276L57.3155 42.2074ZM58.9 43.7921C59.1345 44.0255 59.5142 44.0255 59.7486 43.7921L59.2698 43.3112C59.3001 43.281 59.3485 43.281 59.3788 43.3112L58.9 43.7921ZM59.7491 43.7915L60.4469 43.0935L59.967 42.6138L59.2692 43.3118L59.7491 43.7915ZM60.4475 43.093C60.425 43.1156 60.3953 43.1267 60.3669 43.1267V42.4481C60.2215 42.4481 60.076 42.5043 59.9665 42.6144L60.4475 43.093ZM63.776 40.5715C62.9162 40.5715 62.1066 40.2405 61.4844 39.6181L61.0045 40.0979C61.7541 40.8477 62.7363 41.25 63.776 41.25V40.5715ZM61.4844 39.6181C60.7105 38.8444 60.3848 37.7776 60.5927 36.682L59.926 36.5555C59.677 37.8679 60.0692 39.1628 61.0046 40.098L61.4844 39.6181ZM60.5927 36.682C60.8359 35.3995 61.8633 34.3722 63.1457 34.1289L63.0192 33.4622C61.4628 33.7575 60.2212 34.9991 59.926 36.5555L60.5927 36.682ZM63.1457 34.1289C64.2418 33.9209 65.3082 34.2467 66.0823 35.0207L66.5621 34.5408C65.6266 33.6055 64.3321 33.213 63.0192 33.4622L63.1457 34.1289ZM66.0823 35.0206C66.856 35.7943 67.1818 36.8609 66.974 37.9566L67.6407 38.083C67.8897 36.7706 67.4972 35.4759 66.5621 34.5408L66.0823 35.0206ZM66.974 37.9566C66.7309 39.239 65.7036 40.2668 64.4207 40.5103L64.5473 41.1769C66.1041 40.8815 67.3457 39.6394 67.6407 38.083L66.974 37.9566ZM64.4207 40.5103C64.204 40.5514 63.9881 40.5715 63.776 40.5715V41.25C64.0309 41.25 64.2891 41.2259 64.5472 41.1769L64.4207 40.5103ZM63.7882 33.8417C63.5617 33.8417 63.3329 33.8632 63.1037 33.9066L63.23 34.5734C63.4182 34.5377 63.6047 34.5203 63.7882 34.5203V33.8417ZM63.1036 33.9067C61.7281 34.1677 60.6312 35.2646 60.3704 36.6399L61.0371 36.7663C61.2459 35.665 62.1285 34.7824 63.2301 34.5733L63.1036 33.9067ZM60.3704 36.6399C60.1498 37.8027 60.4965 38.9501 61.3244 39.7781L61.8042 39.2983C61.1381 38.6321 60.8575 37.7129 61.0371 36.7663L60.3704 36.6399ZM61.3243 39.778C62.1526 40.6068 63.3002 40.9512 64.4627 40.7326L64.3374 40.0657C63.3895 40.2439 62.4701 39.9645 61.8043 39.2983L61.3243 39.778ZM64.4633 40.7325C65.8385 40.4715 66.9357 39.3744 67.1963 37.999L66.5296 37.8727C66.321 38.9739 65.4381 39.8568 64.3368 40.0658L64.4633 40.7325ZM67.1963 37.9991C67.4169 36.836 67.0702 35.6884 66.2422 34.8606L65.7625 35.3405C66.4286 36.0064 66.7092 36.9258 66.5296 37.8726L67.1963 37.9991ZM66.2422 34.8606C65.579 34.1976 64.7089 33.8417 63.7882 33.8417V34.5203C64.5294 34.5203 65.2268 34.805 65.7625 35.3405L66.2422 34.8606Z" fill="#5648FF" mask="url(#path-4-outside-2_3711_10256)"/>
<g clip-path="url(#clip1_3711_10256)">
<rect width="24.4286" height="24.4286" transform="translate(25.7871 25.1071)" fill="#0D2259"/>
<circle cx="38.0014" cy="37.3213" r="12.2143" fill="#D4F941"/>
<path d="M33.9297 37.3213L36.3047 39.6963L41.394 34.6071" stroke="#0D2259" stroke-width="2.71429"/>
</g>
</g>
<defs>
<clipPath id="clip0_3711_10256">
<rect width="76" height="76" fill="white"/>
</clipPath>
<clipPath id="clip1_3711_10256">
<rect width="24.4286" height="24.4286" fill="white" transform="translate(25.7871 25.1071)"/>
</clipPath>
</defs>
</svg>
