<svg width="76" height="77" viewBox="0 0 76 77" fill="none" xmlns="http://www.w3.org/2000/svg">
<rect x="1.15152" y="1.15152" width="73.697" height="34.5455" rx="17.2727" stroke="white" stroke-width="2.30303"/>
<rect x="11.5167" y="9.21218" width="16.1212" height="16.1212" rx="8.06061" stroke="#D4F941" stroke-width="2.30303"/>
<path d="M24.7598 22.4546L30.5173 29.3637" stroke="#D4F941" stroke-width="2.30303"/>
<rect x="12.4258" y="46.0607" width="52.9697" height="11.5152" rx="5.75758" fill="#D4F941"/>
<rect x="12.4258" y="64.4849" width="27.6364" height="11.5152" rx="5.75758" fill="#5648FF"/>
<path d="M52.0714 69.0261L52.4574 68.599L52.0285 68.2113L51.6427 68.6418L52.0714 69.0261ZM56.0194 72.5942L55.6334 73.0213L56.0681 73.4142L56.4533 72.9727L56.0194 72.5942ZM63.6675 64.4457C63.6458 64.1285 63.3711 63.8889 63.0539 63.9105L57.8841 64.2631C57.5668 64.2848 57.3272 64.5595 57.3488 64.8768C57.3705 65.194 57.6452 65.4336 57.9624 65.412L62.5578 65.0985L62.8713 69.6939C62.8929 70.0112 63.1676 70.2508 63.4849 70.2292C63.8021 70.2075 64.0418 69.9328 64.0201 69.6155L63.6675 64.4457ZM46.249 76.3844L52.5001 69.4104L51.6427 68.6418L45.3916 75.6158L46.249 76.3844ZM51.6853 69.4533L55.6334 73.0213L56.4055 72.167L52.4574 68.599L51.6853 69.4533ZM56.4533 72.9727L63.5269 64.8634L62.6592 64.1065L55.5856 72.2157L56.4533 72.9727Z" fill="#5648FF"/>
</svg>
