<svg width="76" height="76" viewBox="0 0 76 76" fill="none" xmlns="http://www.w3.org/2000/svg">
<path d="M11.156 17V15.698H11.81V13.982H11.156V12.68H13.856V13.982H13.202V15.698H13.856V17H11.156ZM15.644 17H14.216V13.49H15.416L15.542 13.994C15.716 13.64 16.04 13.43 16.532 13.43C17.246 13.43 17.624 13.868 17.624 14.702V17H16.208V15.134C16.208 14.828 16.172 14.636 15.932 14.636C15.68 14.636 15.644 14.84 15.644 15.17V17ZM19.7285 15.116L19.7225 17H18.3725L18.3785 15.116H17.8745V13.904H18.3785V13.646C18.3785 12.74 18.7985 12.38 19.8005 12.38H20.4065V13.508H20.0165C19.7885 13.508 19.7285 13.574 19.7285 13.838V13.904H20.4005V15.116H19.7285ZM22.376 17.09C21.218 17.09 20.606 16.538 20.606 15.35V15.224C20.606 14.822 20.684 14.486 20.834 14.222C21.134 13.694 21.68 13.43 22.382 13.43C22.742 13.43 23.048 13.502 23.312 13.628C23.852 13.904 24.152 14.426 24.152 15.224V15.35C24.152 16.538 23.468 17.09 22.376 17.09ZM22.382 15.896C22.61 15.896 22.778 15.74 22.778 15.332V15.218C22.778 14.786 22.67 14.606 22.388 14.606C22.13 14.606 21.98 14.774 21.98 15.218V15.332C21.98 15.728 22.154 15.896 22.382 15.896ZM24.4758 17V13.49H25.5918L25.7838 14.15C25.8738 13.586 26.2158 13.43 26.8338 13.43H26.9958L26.9898 14.924H26.5218C26.0538 14.924 25.9398 15.068 25.9398 15.512V17H24.4758ZM28.7158 17H27.3058V13.49H28.4878L28.6018 13.964C28.7878 13.634 29.1058 13.43 29.5558 13.43C30.0358 13.43 30.3538 13.61 30.5218 13.988C30.7078 13.64 31.0198 13.43 31.4878 13.43C32.2258 13.43 32.5918 13.868 32.5918 14.702V17H31.1938V15.134C31.1938 14.828 31.1698 14.636 30.9298 14.636C30.6778 14.636 30.6538 14.84 30.6538 15.17V17H29.2558V15.134C29.2558 14.828 29.2318 14.636 28.9918 14.636C28.7398 14.636 28.7158 14.84 28.7158 15.17V17ZM35.0167 16.556C34.8547 16.868 34.5547 17.09 33.9847 17.09C33.2107 17.09 32.8687 16.736 32.8687 16.148C32.8687 15.692 33.0487 15.434 33.3307 15.26C33.5887 15.098 33.8467 15.044 34.3267 14.972C34.7707 14.906 34.9507 14.864 34.9507 14.702C34.9507 14.588 34.9027 14.504 34.6927 14.504C34.4827 14.504 34.3807 14.606 34.3807 14.822H32.9707C32.9887 14.54 33.0607 14.3 33.1867 14.09C33.4447 13.67 33.9367 13.43 34.7347 13.43C35.1367 13.43 35.4427 13.49 35.6767 13.616C36.1507 13.856 36.3367 14.306 36.3367 14.894V17H35.1727L35.0167 16.556ZM34.5967 16.106C34.8067 16.106 34.9507 15.944 34.9507 15.77V15.542C34.8967 15.584 34.8127 15.608 34.7107 15.632C34.5367 15.674 34.4767 15.692 34.4227 15.734C34.3687 15.776 34.3387 15.842 34.3387 15.92C34.3387 16.046 34.4467 16.106 34.5967 16.106ZM39.1457 17H38.4857C38.1077 17 37.8197 16.946 37.6157 16.85C37.2077 16.64 37.0697 16.208 37.0697 15.458V14.732H36.5597V13.586C36.7217 13.586 36.8417 13.556 36.9437 13.508C37.0637 13.442 37.1597 13.34 37.2077 13.172C37.2497 13.034 37.2617 12.872 37.2677 12.68H38.4017V13.49H39.1457V14.732H38.4017V15.158C38.4017 15.326 38.4137 15.452 38.4437 15.53C38.4917 15.68 38.6417 15.704 38.9477 15.704H39.1457V17ZM40.2195 13.472C39.6435 13.472 39.4335 13.34 39.4335 12.908C39.4335 12.476 39.6795 12.338 40.2195 12.338C40.7475 12.338 41.0055 12.476 41.0055 12.908C41.0055 13.328 40.7655 13.472 40.2195 13.472ZM39.4875 13.544C39.6075 13.622 39.8475 13.67 40.2195 13.67C40.5975 13.67 40.8315 13.61 40.9575 13.532V17H39.4875V13.544ZM42.3038 17L41.0738 13.49H42.4958L42.9818 15.146L43.4738 13.49H44.9018L43.6178 17H42.3038ZM48.371 15.812C48.317 16.07 48.209 16.292 48.065 16.484C47.777 16.868 47.297 17.09 46.541 17.09C45.293 17.09 44.735 16.43 44.735 15.344V15.218C44.735 14.84 44.813 14.516 44.963 14.252C45.269 13.712 45.827 13.43 46.559 13.43C46.985 13.43 47.327 13.508 47.591 13.658C48.131 13.964 48.371 14.51 48.371 15.176V15.596H46.127C46.169 15.878 46.301 16.016 46.577 16.016C46.781 16.016 46.859 15.914 46.901 15.812H48.371ZM46.571 14.468C46.307 14.468 46.175 14.582 46.127 14.84H46.997C46.967 14.588 46.847 14.468 46.571 14.468Z" fill="white"/>
<rect x="11" y="21" width="26" height="10" rx="5" fill="#D4F941"/>
<rect x="41" y="21" width="22" height="10" rx="5" fill="#D4F941"/>
<rect x="1" y="1" width="74" height="74" rx="11" stroke="white" stroke-width="2"/>
<rect x="11" y="35" width="52" height="10" rx="5" fill="#5648FF"/>
<rect x="12" y="49" width="14" height="14" rx="7" stroke="white" stroke-width="2"/>
<rect x="33" y="48" width="16" height="16" rx="8" fill="white"/>
<g clip-path="url(#clip0_5524_31916)">
<path d="M44.7461 65.9877L42.2961 61.1811L39.334 63.7927V53.1778C39.334 52.9603 39.3947 52.7473 39.5094 52.5625C39.624 52.3778 39.788 52.2288 39.9828 52.1323C40.1776 52.0358 40.3955 51.9956 40.612 52.0164C40.8284 52.0371 41.0347 52.1179 41.2076 52.2497L49.3189 59.2543L45.459 59.6825L47.8769 64.425L44.7461 65.9877Z" fill="#00154C"/>
</g>
<defs>
<clipPath id="clip0_5524_31916">
<rect width="14" height="14" fill="white" transform="translate(37 52)"/>
</clipPath>
</defs>
</svg>
