<svg width="76" height="76" viewBox="0 0 76 76" fill="none" xmlns="http://www.w3.org/2000/svg">
<rect x="1" y="1" width="74" height="74" rx="14.8333" stroke="white" stroke-width="2"/>
<rect x="17" y="46" width="18" height="18" rx="9" fill="#5648FF"/>
<rect x="39" y="46" width="18" height="18" rx="2" fill="#5648FF"/>
<circle cx="18.1546" cy="13.1538" r="2.4359" fill="#5648FF"/>
<circle cx="31.7972" cy="13.1538" r="2.4359" fill="#5648FF"/>
<circle cx="24.975" cy="13.1538" r="2.4359" fill="#5648FF"/>
<path fill-rule="evenodd" clip-rule="evenodd" d="M24 23C19.0294 23 15 27.0294 15 32C15 36.9706 19.0294 41 24 41H51C55.9706 41 60 36.9706 60 32C60 27.0294 55.9706 23 51 23H24ZM36.7279 29.6982V23.9999L31 31.4306L37.7279 40.1585L44.4558 31.4306L38.7279 23.9999V29.6982C39.3257 30.044 39.7279 30.6904 39.7279 31.4307C39.7279 32.5352 38.8325 33.4307 37.7279 33.4307C36.6233 33.4307 35.7279 32.5352 35.7279 31.4307C35.7279 30.6904 36.1301 30.044 36.7279 29.6982Z" fill="#D4F941"/>
</svg>
