<svg width="76" height="76" viewBox="0 0 76 76" fill="none" xmlns="http://www.w3.org/2000/svg">
<g clip-path="url(#clip0_3758_34571)">
<path fill-rule="evenodd" clip-rule="evenodd" d="M32.385 0H43.1325V3.28536C45.8329 3.89771 48.3617 4.96196 50.6352 6.39442L52.9597 4.06987L60.5593 11.6695L58.2351 13.9937C59.6676 16.2667 60.732 18.7951 61.3447 21.495H64.6292V32.2425H61.3447C60.7321 34.942 59.6679 37.4701 58.2357 39.7429L60.5607 42.0679L52.9611 49.6675L50.636 47.3425C48.3623 48.7752 45.8333 49.8396 43.1326 50.452V53.7374H32.3851V50.4506C29.6868 49.8379 27.1599 48.774 24.8879 47.3423L22.5627 49.6676L14.9631 42.0679L17.2883 39.7427C15.8562 37.4699 14.792 34.942 14.1795 32.2425H10.8926L10.8926 21.495H14.1794C14.792 18.7956 15.8561 16.2677 17.2881 13.995L14.9626 11.6694L22.5622 4.06982L24.8876 6.39526C27.1596 4.96355 29.6866 3.89956 32.385 3.28685V0ZM37.6122 38.37C43.9208 38.37 49.0349 33.2559 49.0349 26.9473C49.0349 20.6388 43.9208 15.5247 37.6122 15.5247C31.3037 15.5247 26.1896 20.6388 26.1896 26.9473C26.1896 33.2559 31.3037 38.37 37.6122 38.37Z" fill="#5648FF"/>
</g>
<rect x="1.1875" y="25.1875" width="73.625" height="49.625" rx="14.8125" stroke="white" stroke-width="2.375"/>
<circle cx="27.5352" cy="50.4375" r="8.43749" fill="#5648FF"/>
<circle cx="50.332" cy="50.4375" r="8.43749" fill="#D4F941"/>
<defs>
<clipPath id="clip0_3758_34571">
<rect width="54" height="26" fill="white" transform="translate(11)"/>
</clipPath>
</defs>
</svg>
