<svg width="76" height="76" viewBox="0 0 76 76" fill="none" xmlns="http://www.w3.org/2000/svg">
<g clip-path="url(#clip0_3792_59891)">
<path d="M21.4206 29.7418C22.7546 28.4079 24.9173 28.4079 26.2513 29.7418L42.5328 46.0234C43.8668 47.3573 43.8668 49.5201 42.5328 50.854L36.726 56.6609C36.2884 57.0984 35.7402 57.4089 35.14 57.5591L24.5245 60.2159C23.3602 60.5073 22.1285 60.1663 21.2799 59.3177L12.957 50.9948C12.1083 50.1461 11.7673 48.9144 12.0587 47.7502L14.7155 37.1347C14.8657 36.5344 15.1762 35.9862 15.6138 35.5487L21.4206 29.7418Z" fill="#D4F941"/>
<path d="M57.4153 35.9706C56.0814 37.3045 53.9186 37.3045 52.5847 35.9706L36.3031 19.689C34.9692 18.3551 34.9691 16.1923 36.3031 14.8584L42.1099 9.05152C42.5475 8.61397 43.0957 8.3035 43.696 8.15326L54.3114 5.49647C55.4757 5.20508 56.7074 5.54609 57.5561 6.39472L65.879 14.7176C66.7276 15.5663 67.0686 16.798 66.7772 17.9622L64.1204 28.5777C63.9702 29.178 63.6597 29.7262 63.2222 30.1637L57.4153 35.9706Z" fill="#5648FF"/>
<rect x="36.4102" y="24.7645" width="4.05478" height="10.8127" transform="rotate(45 36.4102 24.7645)" fill="#D4F941"/>
<rect x="45.0078" y="33.366" width="4.05478" height="10.8127" transform="rotate(45 45.0078 33.366)" fill="#D4F941"/>
<path d="M17.5302 55.5873L4.77227 68.3453C3.35472 70.8969 2.9011 76.0001 12.427 76.0001C21.953 76.0001 24.9005 76.0001 25.1835 76.0001" stroke="white" stroke-width="1.70789"/>
</g>
<defs>
<clipPath id="clip0_3792_59891">
<rect width="76" height="76" fill="white"/>
</clipPath>
</defs>
</svg>
