<svg width="76" height="76" viewBox="0 0 76 76" fill="none" xmlns="http://www.w3.org/2000/svg">
<path d="M44.1733 58.5121H31.7404C29.4771 58.5121 29.4771 56.5121 31.7404 56.5121H44.1733C46.4365 56.5121 46.4365 58.5121 44.1733 58.5121Z" fill="white"/>
<path d="M53.1634 65.3589H22.7482C20.485 65.3589 20.485 63.3589 22.7482 63.3589H53.1634C55.4267 63.3589 55.4267 65.3589 53.1634 65.3589Z" fill="white"/>
<path d="M36.2464 9.22113C28.7087 9.62925 21.9212 12.6761 16.6992 17.382L23.2162 23.899C26.6887 20.8803 31.1369 18.8344 36.2464 18.4559V9.22113Z" fill="#5648FF"/>
<path d="M15.3627 39.3476C15.726 34.3658 17.6891 29.9517 20.8013 26.3204L14.2691 19.7882C9.53121 25.0504 6.51857 31.6898 6.12109 39.3476H15.3627Z" fill="#5648FF"/>
<path d="M15.3475 42.7675H6.12109C6.47829 49.492 8.87989 55.6738 12.765 60.6625C13.3586 61.424 14.4879 61.5068 15.2244 60.8821L19.6385 57.1429C20.3559 56.5349 20.4266 55.4876 19.8589 54.7375C17.303 51.3608 15.6811 47.2439 15.3475 42.7675Z" fill="#5648FF"/>
<path d="M65.2663 24.5564C63.7235 26.4511 61.4336 29.2608 58.8739 32.3958C59.9903 35.068 60.6447 37.9795 60.6447 41.0575C60.6447 46.2293 58.9142 50.9968 56.0003 54.8128C55.4501 55.5332 55.6059 56.5706 56.299 57.1543L60.6933 60.8532C61.4389 61.481 62.5804 61.3951 63.1785 60.6252C67.3783 55.2209 69.8787 48.431 69.8787 41.0568C69.8795 34.922 68.1619 29.317 65.2663 24.5564Z" fill="#D4F941"/>
<path d="M63.2288 21.6358C57.639 14.4226 49.0905 9.73189 39.6673 9.22345V18.4643C45.5276 18.9112 51.5476 21.6426 55.8218 27.1085C55.8218 27.1085 35.4614 42.2219 34.7372 42.9469C33.072 44.6121 33.072 47.3124 34.7372 48.9775C36.4023 50.6427 39.1026 50.6427 40.7678 48.9775C41.847 47.8976 63.2288 21.6358 63.2288 21.6358ZM63.1437 21.7407C63.1444 21.7407 63.1444 21.7399 63.1444 21.7399L63.1437 21.7407Z" fill="#D4F941"/>
</svg>
