<svg width="76" height="76" viewBox="0 0 76 76" fill="none" xmlns="http://www.w3.org/2000/svg">
<g clip-path="url(#clip0_3779_27416)">
<rect x="3.73974" y="0.739743" width="68.5205" height="74.5205" rx="10.3564" stroke="white" stroke-width="1.47949"/>
<rect x="18.5" y="16.5" width="40" height="10" stroke="white"/>
<rect x="17" y="15" width="3" height="3" fill="white"/>
<rect x="17" y="25" width="3" height="3" fill="white"/>
<rect x="57" y="15" width="3" height="3" fill="white"/>
<rect x="57" y="25" width="3" height="3" fill="white"/>
<path d="M60.8701 30.9938L59.6451 28.5905L58.1641 29.8963V24.5888C58.1641 24.4801 58.1944 24.3736 58.2518 24.2812C58.3091 24.1889 58.3911 24.1144 58.4885 24.0661C58.5859 24.0179 58.6948 23.9978 58.8031 24.0082C58.9113 24.0185 59.0144 24.0589 59.1009 24.1248L63.1565 27.6271L61.2266 27.8412L62.4355 30.2125L60.8701 30.9938Z" fill="#D4F941"/>
<circle cx="27.9129" cy="48.9129" r="11.649" transform="rotate(-30 27.9129 48.9129)" fill="#5648FF"/>
<circle cx="48.0886" cy="48.9129" r="11.649" transform="rotate(-30 48.0886 48.9129)" fill="#D4F941"/>
<path d="M28.46 21.026C28.442 21.518 28.316 21.908 28.082 22.22C27.608 22.838 26.792 23.114 25.736 23.114C24.056 23.114 23.114 22.424 23.114 20.864C23.114 20.384 23.228 19.982 23.444 19.634C23.888 18.944 24.704 18.566 25.772 18.566C26.294 18.566 26.744 18.644 27.14 18.794C27.944 19.106 28.43 19.724 28.46 20.678H26.408C26.384 20.42 26.174 20.204 25.772 20.204C25.328 20.204 25.064 20.456 25.064 20.852C25.064 21.26 25.316 21.488 25.76 21.488C26.162 21.488 26.384 21.284 26.408 21.026H28.46ZM31.3565 22.19C31.2065 22.712 30.8345 23.078 30.1205 23.078C29.1905 23.078 28.7705 22.562 28.7705 21.59V19.49H30.5945V21.014C30.5945 21.392 30.6485 21.524 30.9245 21.524C31.1885 21.524 31.2725 21.398 31.2725 21.002V19.49H33.1385V23H31.5545L31.3565 22.19ZM35.6575 23.114C35.2495 23.114 34.8775 23.078 34.5475 23C33.8815 22.856 33.4255 22.508 33.3055 21.848H35.2015C35.2915 22.022 35.4835 22.058 35.8795 22.058C36.1375 22.058 36.2155 21.992 36.2155 21.938C36.2155 21.848 36.0235 21.806 35.3335 21.764C34.8655 21.734 34.4935 21.686 34.2175 21.614C33.6655 21.47 33.4375 21.194 33.4375 20.702C33.4375 19.868 34.1575 19.412 35.5615 19.412C36.9415 19.412 37.6555 19.778 37.9615 20.636H36.1435C36.0535 20.474 35.8195 20.426 35.5075 20.426C35.2315 20.426 35.1655 20.474 35.1655 20.546C35.1655 20.648 35.5435 20.696 36.0175 20.72C36.4975 20.744 36.8755 20.798 37.1575 20.876C37.7275 21.026 37.9615 21.308 37.9615 21.776C37.9615 22.04 37.8835 22.274 37.7395 22.478C37.4395 22.88 36.7915 23.114 35.6575 23.114ZM41.4881 23H40.3301C39.8801 23 39.5381 22.94 39.2981 22.82C38.8061 22.58 38.6441 22.07 38.6441 21.26V20.984H37.9841V19.586C38.2421 19.568 38.3801 19.544 38.5241 19.49C38.7161 19.412 38.8181 19.316 38.8961 19.118C38.9681 18.932 38.9921 18.734 39.0101 18.506H40.3841V19.49H41.4941V20.984H40.3841V21.158C40.3841 21.458 40.4501 21.548 40.8221 21.548H41.4881V23ZM44.0755 23.114C43.5115 23.114 43.0615 23.036 42.7135 22.892C42.0115 22.592 41.7055 22.04 41.7055 21.284C41.7055 20.912 41.7955 20.594 41.9875 20.312C42.3655 19.748 43.0735 19.412 44.0875 19.412C44.5915 19.412 45.0175 19.49 45.3715 19.652C46.0795 19.976 46.4515 20.546 46.4515 21.284C46.4515 21.662 46.3615 21.98 46.1755 22.256C45.7975 22.802 45.0955 23.114 44.0755 23.114ZM44.0755 21.698C44.3815 21.698 44.5675 21.554 44.5675 21.278C44.5675 20.972 44.3755 20.816 44.0755 20.816C43.7695 20.816 43.5895 20.972 43.5895 21.278C43.5895 21.554 43.7695 21.698 44.0755 21.698ZM48.6247 23H46.7707V19.49H48.3427L48.5287 20.234C48.7147 19.73 49.1407 19.412 49.8247 19.412C50.5027 19.412 50.8867 19.694 51.0607 20.234C51.2647 19.73 51.6907 19.412 52.3507 19.412C53.2927 19.412 53.6587 19.976 53.6587 20.948V23H51.8347V21.638C51.8347 21.236 51.8227 20.978 51.4927 20.978C51.3787 20.978 51.3007 21.002 51.2527 21.068C51.1567 21.188 51.1447 21.404 51.1447 21.692V23H49.3207V21.638C49.3207 21.236 49.3087 20.978 48.9787 20.978C48.6487 20.978 48.6247 21.26 48.6247 21.686V23Z" fill="#D4F941"/>
</g>
<defs>
<clipPath id="clip0_3779_27416">
<rect width="76" height="76" fill="white"/>
</clipPath>
</defs>
</svg>
