<svg width="76" height="76" viewBox="0 0 76 76" fill="none" xmlns="http://www.w3.org/2000/svg">
<g clip-path="url(#clip0_3792_59632)">
<rect x="3.73974" y="0.739743" width="68.5205" height="74.5205" rx="10.3564" stroke="white" stroke-width="1.47949"/>
<g clip-path="url(#clip1_3792_59632)">
<path d="M37.5557 12C33.3893 12 30 15.5885 30 19.9997C30 24.4111 33.3895 28 37.5556 28C41.7215 28 45.1106 24.4111 45.1106 19.9997C45.1108 15.5887 41.7216 12 37.5557 12ZM30.7625 19.9997C30.7625 18.9571 30.9736 17.9669 31.3506 17.0727L34.5911 26.4732C32.3252 25.3071 30.7625 22.8467 30.7625 19.9997ZM37.5557 27.1929C36.8889 27.1929 36.2453 27.0893 35.6367 26.8998L37.6747 20.6289L39.7632 26.686C39.7767 26.7217 39.7932 26.7543 39.8115 26.785C39.1055 27.048 38.3468 27.1929 37.5557 27.1929ZM38.4917 16.6274C38.9005 16.6047 39.2694 16.5589 39.2694 16.5589C39.6352 16.5131 39.5924 15.9436 39.2259 15.9664C39.2259 15.9664 38.1257 16.0577 37.4152 16.0577C36.7479 16.0577 35.6258 15.9664 35.6258 15.9664C35.2597 15.9436 35.217 16.5362 35.583 16.5589C35.583 16.5589 35.9297 16.6047 36.2954 16.6274L37.3536 19.6979L35.867 24.4186L33.3937 16.6276C33.8032 16.605 34.1713 16.5591 34.1713 16.5591C34.5371 16.5134 34.4939 15.9436 34.1276 15.9669C34.1276 15.9669 33.0279 16.0582 32.3172 16.0582C32.1896 16.0582 32.0393 16.0547 31.8801 16.0495C33.0944 14.0966 35.1826 12.8073 37.5557 12.8073C39.3245 12.8073 40.9345 13.5232 42.1429 14.6954C42.1135 14.6938 42.0851 14.6896 42.0547 14.6896C41.3877 14.6896 40.9141 15.3051 40.9141 15.9663C40.9141 16.5588 41.2368 17.0605 41.5811 17.653C41.8397 18.1322 42.1412 18.7478 42.1412 19.6367C42.1412 20.2525 41.9179 20.9668 41.6241 21.9619L40.9466 24.3594L38.4917 16.6274ZM40.9706 26.2171L43.0456 19.865C43.4336 18.8391 43.5622 18.0186 43.5622 17.2886C43.5622 17.0241 43.5458 16.7782 43.5163 16.549C44.047 17.5736 44.349 18.7495 44.3486 20C44.3485 22.6534 42.99 24.9702 40.9706 26.2171Z" fill="#D4F941"/>
</g>
<rect x="12" y="35" width="52" height="7" rx="3.5" fill="#5648FF"/>
<rect x="12" y="46" width="21" height="15" rx="2" fill="#5648FF"/>
<rect x="37" y="46" width="27" height="15" rx="2" fill="#D4F941"/>
</g>
<defs>
<clipPath id="clip0_3792_59632">
<rect width="76" height="76" fill="white"/>
</clipPath>
<clipPath id="clip1_3792_59632">
<rect width="15.1111" height="16" fill="white" transform="translate(30 12)"/>
</clipPath>
</defs>
</svg>
